{
.appVersion = "3257";
.formatVersion = 3;
DisplayStrings = (
"ABCDEFGHIJKLM
NOPQRSTUVWXYZ0123456789"
);
axes = (
{
name = bloat;
tag = BLOT;
}
);
date = "2024-04-03 23:17:43 +0000";
familyName = Balloooooon;
fontMaster = (
{
axesValues = (
0
);
id = m01;
metricValues = (
{
over = 16;
pos = 800;
},
{
over = 16;
pos = 700;
},
{
over = 16;
pos = 500;
},
{
over = -16;
},
{
over = -16;
pos = -200;
},
{
}
);
name = Regular;
},
{
axesValues = (
25
);
id = m004;
metricValues = (
{
over = 16;
pos = 800;
},
{
over = 16;
pos = 700;
},
{
over = 16;
pos = 500;
},
{
over = -16;
},
{
over = -16;
pos = -200;
},
{
}
);
name = Regular;
},
{
axesValues = (
35
);
id = m006;
metricValues = (
{
over = 16;
pos = 800;
},
{
over = 16;
pos = 700;
},
{
over = 16;
pos = 500;
},
{
over = -16;
},
{
over = -16;
pos = -200;
},
{
}
);
name = Regular;
},
{
axesValues = (
50
);
customParameters = (
{
name = "Master Icon Glyph Name";
value = H;
}
);
id = m003;
metricValues = (
{
over = 16;
pos = 800;
},
{
over = 16;
pos = 700;
},
{
over = 16;
pos = 500;
},
{
over = -16;
},
{
over = -16;
pos = -200;
},
{
}
);
name = half;
},
{
axesValues = (
75
);
customParameters = (
{
name = "Master Icon Glyph Name";
value = B;
}
);
id = m002;
metricValues = (
{
over = 16;
pos = 800;
},
{
over = 16;
pos = 700;
},
{
over = 16;
pos = 500;
},
{
over = -16;
},
{
over = -16;
pos = -200;
},
{
}
);
name = "75";
},
{
axesValues = (
100
);
customParameters = (
{
name = "Master Icon Glyph Name";
value = B;
}
);
id = m005;
metricValues = (
{
over = 16;
pos = 800;
},
{
over = 16;
pos = 700;
},
{
over = 16;
pos = 500;
},
{
over = -16;
},
{
over = -16;
pos = -200;
},
{
}
);
name = B;
}
);
glyphs = (
{
glyphname = A;
lastChange = "2024-04-12 14:07:05 +0000";
layers = (
{
layerId = m01;
shapes = (
{
closed = 1;
nodes = (
(535,-1,o),
(596,-5,o),
(598,26,cs),
(599,45,o),
(564,56,o),
(543,56,cs),
(498,56,o),
(383,59,o),
(315,59,cs),
(243,59,o),
(46,66,o),
(15,45,cs),
(5,38,o),
(5,26,o),
(14,18,cs),
(41,-5,o),
(122,0,o),
(186,0,cs),
(232,0,o),
(238,0,o),
(271,0,cs),
(325,0,o),
(329,0,o),
(384,0,cs),
(408,0,o),
(420,-1,o),
(504,-1,cs)
);
},
{
closed = 1;
nodes = (
(176,11,o),
(31,1,o),
(31,33,cs),
(31,54,o),
(139,50,o),
(328,50,cs),
(516,50,o),
(577,50,o),
(577,25,cs),
(577,1,o),
(426,11,o),
(293,11,cs)
);
}
);
width = 600;
},
{
layerId = m002;
shapes = (
{
closed = 1;
nodes = (
(535,5,o),
(568,44,o),
(577,84,cs),
(585,125,o),
(605,187,o),
(568,378,cs),
(548,485,o),
(509,660,o),
(294,655,cs),
(94,652,o),
(52,461,o),
(39,410,cs),
(10,290,o),
(17,93,o),
(43,51,cs),
(81,-10,o),
(155,-5,o),
(188,30,cs),
(225,71,o),
(215,110,o),
(264,130,cs),
(313,150,o),
(365,148,o),
(396,104,cs),
(428,62,o),
(401,-8,o),
(504,2,cs)
);
},
{
closed = 1;
nodes = (
(265,316,o),
(240,328,o),
(239,357,cs),
(239,389,o),
(255,418,o),
(293,418,cs),
(330,419,o),
(351,390,o),
(345,363,cs),
(338,338,o),
(315,316,o),
(288,315,cs)
);
}
);
width = 600;
},
{
layerId = m003;
shapes = (
{
closed = 1;
nodes = (
(504,3,o),
(533,30,o),
(542,70,cs),
(550,111,o),
(563,90,o),
(545,283,cs),
(535,390,o),
(515,559,o),
(300,554,cs),
(100,551,o),
(75,363,o),
(72,311,cs),
(65,177,o),
(86,79,o),
(105,43,cs),
(132,-8,o),
(188,-4,o),
(221,31,cs),
(258,72,o),
(228,99,o),
(265,138,cs),
(301,176,o),
(349,177,o),
(380,138,cs),
(413,96,o),
(386,0,o),
(473,2,cs)
);
},
{
closed = 1;
nodes = (
(228,213,o),
(160,246,o),
(157,325,cs),
(157,412,o),
(201,491,o),
(305,491,cs),
(406,494,o),
(463,415,o),
(447,341,cs),
(427,273,o),
(365,213,o),
(291,210,cs)
);
}
);
width = 600;
},
{
layerId = m004;
shapes = (
{
closed = 1;
nodes = (
(535,0,o),
(615,-1,o),
(587,64,cs),
(569,105,o),
(543,120,o),
(504,143,cs),
(445,179,o),
(414,185,o),
(315,185,cs),
(142,185,o),
(73,160,o),
(28,93,cs),
(18,78,o),
(5,52,o),
(14,34,cs),
(23,17,o),
(41,0,o),
(114,0,cs),
(161,0,o),
(226,41,o),
(282,41,cs),
(336,41,o),
(339,28,o),
(394,13,cs),
(418,7,o),
(420,0,o),
(504,0,cs)
);
},
{
closed = 1;
nodes = (
(194,74,o),
(35,52,o),
(65,102,cs),
(85,135,o),
(198,160,o),
(310,160,cs),
(369,160,o),
(502,135,o),
(526,94,cs),
(551,50,o),
(385,74,o),
(283,74,cs)
);
}
);
width = 600;
},
{
layerId = m005;
shapes = (
{
closed = 1;
nodes = (
(535,5,o),
(578,50,o),
(588,90,cs),
(598,131,o),
(596,187,o),
(596,390,cs),
(596,500,o),
(612,736,o),
(308,736,cs),
(-28,736,o),
(7,465,o),
(6,410,cs),
(4,287,o),
(6,109,o),
(25,57,cs),
(50,-12,o),
(149,-8,o),
(188,20,cs),
(216,40,o),
(210,40,o),
(259,60,cs),
(288,72,o),
(325,68,o),
(365,49,cs),
(413,26,o),
(401,-8,o),
(504,2,cs)
);
},
{
closed = 1;
nodes = (
(275,352,o),
(259,360,o),
(258,378,cs),
(258,399,o),
(269,418,o),
(294,418,cs),
(318,419,o),
(332,400,o),
(328,382,cs),
(323,366,o),
(308,352,o),
(290,351,cs)
);
}
);
width = 600;
},
{
layerId = m006;
shapes = (
{
closed = 1;
nodes = (
(535,0,o),
(615,-1,o),
(587,85,cs),
(569,139,o),
(543,160,o),
(504,190,cs),
(445,238,o),
(414,241,o),
(315,246,cs),
(142,255,o),
(73,212,o),
(28,124,cs),
(18,104,o),
(5,69,o),
(14,46,cs),
(23,23,o),
(41,0,o),
(114,0,cs),
(161,0,o),
(226,55,o),
(282,55,cs),
(336,55,o),
(339,37,o),
(394,18,cs),
(418,9,o),
(420,0,o),
(504,0,cs)
);
},
{
closed = 1;
nodes = (
(194,98,o),
(69,69,o),
(99,136,cs),
(119,180,o),
(198,180,o),
(310,180,cs),
(369,180,o),
(467,180,o),
(491,125,cs),
(516,67,o),
(385,98,o),
(283,98,cs)
);
}
);
width = 600;
}
);
unicode = 65;
},
{
glyphname = B;
lastChange = "2024-04-12 13:48:57 +0000";
layers = (
{
layerId = m01;
shapes = (
{
closed = 1;
nodes = (
(401,-1,o),
(430,-1,o),
(483,-1,cs),
(549,-1,o),
(600,-3,o),
(600,12,cs),
(600,28,o),
(588,25,o),
(580,25,cs),
(577,25,o),
(576,25,o),
(576,25,cs),
(576,27,o),
(600,23,o),
(600,36,cs),
(600,55,o),
(561,58,o),
(520,59,cs),
(438,61,o),
(388,61,o),
(310,61,cs),
(177,61,o),
(133,59,o),
(94,59,cs),
(52,59,o),
(0,55,o),
(0,28,cs),
(0,-4,o),
(43,0,o),
(50,0,cs),
(102,0,o),
(178,-1,o),
(315,-1,cs)
);
},
{
closed = 1;
nodes = (
(112,6,o),
(43,4,o),
(43,13,cs),
(43,22,o),
(130,22,o),
(320,22,cs),
(508,22,o),
(580,24,o),
(580,13,cs),
(580,-4,o),
(422,6,o),
(288,6,cs)
);
},
{
closed = 1;
nodes = (
(169,31,o),
(39,28,o),
(39,41,cs),
(39,57,o),
(127,52,o),
(322,52,cs),
(515,52,o),
(576,54,o),
(587,40,cs),
(603,20,o),
(426,31,o),
(290,31,cs)
);
}
);
width = 600;
},
{
layerId = m002;
shapes = (
{
closed = 1;
nodes = (
(351,4,o),
(519,14,o),
(569,99,cs),
(603,156,o),
(589,240,o),
(555,283,cs),
(528,317,o),
(458,318,o),
(435,313,cs),
(410,306,o),
(406,305,o),
(406,308,cs),
(406,311,o),
(413,311,o),
(440,317,cs),
(475,325,o),
(546,352,o),
(558,420,cs),
(568,475,o),
(570,522,o),
(509,576,cs),
(435,644,o),
(241,669,o),
(141,627,cs),
(21,577,o),
(17,459,o),
(10,338,cs),
(8,274,o),
(35,156,o),
(55,119,cs),
(97,37,o),
(162,-1,o),
(257,1,cs)
);
},
{
closed = 1;
nodes = (
(397,158,o),
(370,170,o),
(369,199,cs),
(368,230,o),
(387,258,o),
(427,259,cs),
(467,260,o),
(492,231,o),
(483,206,cs),
(477,181,o),
(450,160,o),
(422,159,cs)
);
},
{
closed = 1;
nodes = (
(371,402,o),
(343,413,o),
(342,442,cs),
(343,474,o),
(360,502,o),
(401,502,cs),
(441,503,o),
(465,474,o),
(457,448,cs),
(450,424,o),
(425,402,o),
(396,402,cs)
);
}
);
width = 600;
},
{
layerId = m003;
shapes = (
{
closed = 1;
nodes = (
(333,2,o),
(473,6,o),
(515,84,cs),
(543,137,o),
(545,202,o),
(503,262,cs),
(481,294,o),
(407,292,o),
(388,287,cs),
(367,281,o),
(362,283,o),
(362,289,cs),
(362,296,o),
(370,293,o),
(392,299,cs),
(421,307,o),
(501,341,o),
(505,403,cs),
(508,448,o),
(489,489,o),
(451,527,cs),
(389,589,o),
(225,584,o),
(154,526,cs),
(66,455,o),
(55,415,o),
(49,303,cs),
(47,245,o),
(57,146,o),
(66,113,cs),
(88,36,o),
(111,0,o),
(255,1,cs)
);
},
{
closed = 1;
nodes = (
(330,50,o),
(277,75,o),
(275,137,cs),
(273,202,o),
(310,259,o),
(384,262,cs),
(462,264,o),
(507,204,o),
(491,151,cs),
(480,98,o),
(427,55,o),
(378,52,cs)
);
},
{
closed = 1;
nodes = (
(257,312,o),
(199,337,o),
(197,405,cs),
(199,478,o),
(235,536,o),
(321,536,cs),
(403,538,o),
(451,478,o),
(451,418,cs),
(451,360,o),
(368,312,o),
(310,312,cs)
);
}
);
width = 600;
},
{
layerId = m004;
shapes = (
{
closed = 1;
nodes = (
(401,0,o),
(430,0,o),
(483,0,cs),
(549,0,o),
(595,1,o),
(595,32,cs),
(595,58,o),
(557,66,o),
(536,66,cs),
(529,66,o),
(530,68,o),
(530,68,cs),
(530,70,o),
(593,71,o),
(593,100,cs),
(593,131,o),
(559,162,o),
(520,172,cs),
(440,193,o),
(388,193,o),
(310,193,cs),
(177,193,o),
(96,183,o),
(57,168,cs),
(18,153,o),
(10,106,o),
(10,79,cs),
(10,47,o),
(17,34,o),
(44,20,cs),
(88,-3,o),
(178,0,o),
(315,0,cs)
);
},
{
closed = 1;
nodes = (
(236,13,o),
(102,9,o),
(102,35,cs),
(102,51,o),
(195,54,o),
(335,54,cs),
(474,54,o),
(565,58,o),
(568,37,cs),
(573,11,o),
(465,13,o),
(366,13,cs)
);
},
{
closed = 1;
nodes = (
(247,79,o),
(100,81,o),
(100,122,cs),
(100,166,o),
(202,172,o),
(344,172,cs),
(485,172,o),
(554,137,o),
(556,121,cs),
(562,89,o),
(434,79,o),
(335,79,cs)
);
}
);
width = 600;
},
{
layerId = m005;
shapes = (
{
closed = 1;
nodes = (
(497,-3,o),
(569,4,o),
(590,99,cs),
(604,162,o),
(602,221,o),
(586,276,cs),
(580,297,o),
(568,320,o),
(550,330,cs),
(543,334,o),
(530,336,o),
(530,342,cs),
(530,350,o),
(535,352,o),
(551,363,cs),
(565,373,o),
(599,410,o),
(599,504,cs),
(599,574,o),
(575,649,o),
(531,683,cs),
(450,746,o),
(223,731,o),
(122,718,cs),
(1,702,o),
(3,528,o),
(3,350,cs),
(3,168,o),
(1,129,o),
(16,86,cs),
(38,22,o),
(116,3,o),
(251,1,cs)
);
},
{
closed = 1;
nodes = (
(392,185,o),
(377,192,o),
(377,210,cs),
(376,230,o),
(386,246,o),
(409,246,cs),
(430,247,o),
(444,230,o),
(439,214,cs),
(435,199,o),
(421,187,o),
(406,186,cs)
);
},
{
closed = 1;
nodes = (
(368,440,o),
(353,446,o),
(352,464,cs),
(353,482,o),
(363,499,o),
(384,499,cs),
(406,500,o),
(419,482,o),
(414,467,cs),
(410,453,o),
(397,440,o),
(382,440,cs)
);
}
);
width = 600;
},
{
layerId = m006;
shapes = (
{
closed = 1;
nodes = (
(395,0,o),
(424,0,o),
(477,0,cs),
(543,0,o),
(589,13,o),
(589,52,cs),
(589,101,o),
(535,106,o),
(514,106,cs),
(507,106,o),
(509,109,o),
(509,109,cs),
(509,111,o),
(587,109,o),
(587,152,cs),
(587,186,o),
(566,209,o),
(523,226,cs),
(459,251,o),
(383,257,o),
(305,257,cs),
(172,257,o),
(90,224,o),
(55,199,cs),
(22,175,o),
(10,133,o),
(10,106,cs),
(10,74,o),
(7,53,o),
(36,24,cs),
(66,-6,o),
(172,0,o),
(309,0,cs)
);
},
{
closed = 1;
nodes = (
(271,16,o),
(154,10,o),
(154,55,cs),
(154,83,o),
(235,88,o),
(357,88,cs),
(478,88,o),
(557,94,o),
(560,58,cs),
(564,13,o),
(470,16,o),
(384,16,cs)
);
},
{
closed = 1;
nodes = (
(275,115,o),
(149,137,o),
(150,171,cs),
(151,217,o),
(237,223,o),
(358,223,cs),
(478,223,o),
(537,186,o),
(539,170,cs),
(544,136,o),
(435,115,o),
(350,115,cs)
);
}
);
width = 600;
}
);
unicode = 66;
},
{
glyphname = C;
lastChange = "2024-04-04 07:49:58 +0000";
layers = (
{
layerId = m01;
shapes = (
{
closed = 1;
nodes = (
(599,57,o),
(480,64,o),
(342,64,cs),
(154,64,o),
(43,57,o),
(20,47,cs),
(2,39,o),
(3,22,o),
(15,12,cs),
(33,-4,o),
(84,0,o),
(307,0,cs),
(599,0,o),
(596,4,o),
(596,18,cs),
(596,20,o),
(592,24,o),
(579,24,cs),
(558,24,o),
(539,18,o),
(525,15,cs),
(508,11,o),
(418,10,o),
(324,10,cs),
(164,10,o),
(33,-2,o),
(33,30,cs),
(33,60,o),
(209,55,o),
(342,55,cs),
(414,55,o),
(515,47,o),
(525,43,cs),
(539,37,o),
(558,33,o),
(579,33,cs),
(592,33,o),
(599,36,o),
(599,40,cs)
);
}
);
width = 600;
},
{
layerId = m002;
shapes = (
{
closed = 1;
nodes = (
(588,528,o),
(492,658,o),
(346,663,cs),
(144,670,o),
(74,596,o),
(44,526,cs),
(2,430,o),
(-1,284,o),
(44,165,cs),
(74,87,o),
(141,1,o),
(313,1,cs),
(551,1,o),
(585,131,o),
(585,191,cs),
(585,211,o),
(594,303,o),
(513,303,cs),
(466,303,o),
(434,300,o),
(414,272,cs),
(392,242,o),
(384,235,o),
(340,235,cs),
(273,235,o),
(244,286,o),
(244,337,cs),
(244,373,o),
(264,430,o),
(341,430,cs),
(388,430,o),
(405,423,o),
(414,393,cs),
(431,343,o),
(466,340,o),
(512,340,cs),
(592,340,o),
(588,388,o),
(588,416,cs)
);
}
);
width = 600;
},
{
layerId = m003;
shapes = (
{
closed = 1;
nodes = (
(540,457,o),
(445,572,o),
(334,572,cs),
(183,572,o),
(97,461,o),
(78,401,cs),
(52,319,o),
(65,229,o),
(91,159,cs),
(123,73,o),
(207,23,o),
(306,27,cs),
(467,33,o),
(537,135,o),
(537,183,cs),
(537,200,o),
(545,257,o),
(495,260,cs),
(449,264,o),
(456,234,o),
(444,204,cs),
(431,168,o),
(395,109,o),
(320,109,cs),
(214,109,o),
(118,227,o),
(152,343,cs),
(173,415,o),
(228,500,o),
(334,500,cs),
(392,500,o),
(451,446,o),
(452,386,cs),
(453,342,o),
(473,311,o),
(498,311,cs),
(529,311,o),
(540,337,o),
(540,369,cs)
);
}
);
width = 600;
},
{
layerId = m004;
shapes = (
{
closed = 1;
nodes = (
(574,158,o),
(463,201,o),
(334,201,cs),
(158,201,o),
(58,160,o),
(36,137,cs),
(5,107,o),
(13,72,o),
(36,42,cs),
(64,6,o),
(104,0,o),
(301,-1,cs),
(551,-2,o),
(571,39,o),
(571,56,cs),
(571,63,o),
(571,79,o),
(538,83,cs),
(518,85,o),
(510,66,o),
(496,56,cs),
(481,42,o),
(405,29,o),
(318,29,cs),
(168,29,o),
(70,44,o),
(100,114,cs),
(114,147,o),
(210,174,o),
(334,174,cs),
(401,174,o),
(492,151,o),
(502,130,cs),
(510,113,o),
(523,106,o),
(538,104,cs),
(574,100,o),
(574,114,o),
(574,125,cs)
);
}
);
width = 600;
},
{
layerId = m005;
shapes = (
{
closed = 1;
nodes = (
(598,669,o),
(560,726,o),
(347,726,cs),
(67,726,o),
(56,677,o),
(26,565,cs),
(-4,454,o),
(-1,312,o),
(26,180,cs),
(49,69,o),
(81,0,o),
(313,0,cs),
(560,0,o),
(595,66,o),
(595,209,cs),
(595,231,o),
(604,353,o),
(520,357,cs),
(419,362,o),
(402,348,o),
(383,323,cs),
(376,314,o),
(357,307,o),
(332,307,cs),
(296,307,o),
(272,330,o),
(272,369,cs),
(272,394,o),
(291,420,o),
(332,420,cs),
(357,420,o),
(376,413,o),
(383,405,cs),
(402,383,o),
(418,369,o),
(520,370,cs),
(604,371,o),
(598,425,o),
(598,455,cs)
);
}
);
width = 600;
},
{
layerId = m006;
shapes = (
{
closed = 1;
nodes = (
(582,209,o),
(469,265,o),
(339,265,cs),
(160,265,o),
(59,211,o),
(36,182,cs),
(5,142,o),
(13,97,o),
(36,58,cs),
(65,10,o),
(105,2,o),
(305,1,cs),
(579,0,o),
(579,53,o),
(579,76,cs),
(579,85,o),
(588,112,o),
(528,114,cs),
(475,116,o),
(483,101,o),
(468,87,cs),
(453,69,o),
(411,41,o),
(322,41,cs),
(197,41,o),
(83,98,o),
(124,154,cs),
(148,189,o),
(213,230,o),
(339,230,cs),
(407,230,o),
(477,204,o),
(479,175,cs),
(480,153,o),
(503,138,o),
(532,138,cs),
(569,138,o),
(582,151,o),
(582,166,cs)
);
}
);
width = 600;
}
);
unicode = 67;
},
{
glyphname = D;
lastChange = "2024-04-11 06:35:06 +0000";
layers = (
{
layerId = m01;
shapes = (
{
closed = 1;
nodes = (
(581,0,o),
(599,1,o),
(599,28,cs),
(599,55,o),
(570,56,o),
(481,60,cs),
(412,63,o),
(254,64,o),
(183,63,cs),
(113,62,o),
(46,60,o),
(21,52,cs),
(-1,45,o),
(0,34,o),
(0,28,cs),
(0,15,o),
(9,4,o),
(53,2,cs),
(138,-2,o),
(265,0,o),
(331,0,cs)
);
},
{
closed = 1;
nodes = (
(158,9,o),
(16,-1,o),
(16,28,cs),
(16,59,o),
(135,53,o),
(304,53,cs),
(471,53,o),
(583,55,o),
(583,29,cs),
(583,4,o),
(491,9,o),
(304,9,cs)
);
}
);
width = 600;
},
{
layerId = m002;
shapes = (
{
closed = 1;
nodes = (
(498,25,o),
(562,120,o),
(585,250,cs),
(608,379,o),
(562,536,o),
(475,602,cs),
(408,654,o),
(257,658,o),
(189,647,cs),
(122,635,o),
(37,626,o),
(25,548,cs),
(12,470,o),
(14,360,o),
(14,288,cs),
(14,165,o),
(17,58,o),
(64,32,cs),
(146,-12,o),
(293,1,o),
(354,8,cs)
);
},
{
closed = 1;
nodes = (
(384,192,o),
(365,222,o),
(364,300,cs),
(365,385,o),
(384,461,o),
(426,461,cs),
(469,464,o),
(489,385,o),
(486,317,cs),
(482,250,o),
(468,192,o),
(422,193,cs)
);
}
);
width = 600;
},
{
layerId = m003;
shapes = (
{
closed = 1;
nodes = (
(446,39,o),
(516,132,o),
(536,241,cs),
(554,350,o),
(516,481,o),
(446,536,cs),
(391,580,o),
(266,583,o),
(210,574,cs),
(154,564,o),
(84,557,o),
(75,491,cs),
(64,426,o),
(65,334,o),
(65,273,cs),
(65,171,o),
(68,81,o),
(107,59,cs),
(174,22,o),
(275,39,o),
(328,39,cs)
);
},
{
closed = 1;
nodes = (
(240,70,o),
(197,122,o),
(194,257,cs),
(197,404,o),
(240,534,o),
(345,534,cs),
(448,540,o),
(498,404,o),
(490,284,cs),
(480,171,o),
(446,70,o),
(331,70,cs)
);
}
);
width = 600;
},
{
layerId = m004;
shapes = (
{
closed = 1;
nodes = (
(470,2,o),
(551,37,o),
(574,77,cs),
(596,118,o),
(551,167,o),
(470,187,cs),
(406,204,o),
(260,205,o),
(195,202,cs),
(130,198,o),
(68,195,o),
(45,170,cs),
(25,148,o),
(26,112,o),
(26,90,cs),
(26,51,o),
(29,17,o),
(75,10,cs),
(153,-4,o),
(270,2,o),
(332,2,cs)
);
},
{
closed = 1;
nodes = (
(172,21,o),
(99,47,o),
(101,95,cs),
(104,166,o),
(172,182,o),
(328,182,cs),
(482,184,o),
(558,137,o),
(546,96,cs),
(530,57,o),
(479,21,o),
(307,21,cs)
);
}
);
width = 600;
},
{
layerId = m005;
shapes = (
{
closed = 1;
nodes = (
(553,0,o),
(600,180,o),
(600,338,cs),
(600,485,o),
(593,660,o),
(484,707,cs),
(416,736,o),
(263,734,o),
(186,727,cs),
(116,721,o),
(30,720,o),
(17,616,cs),
(6,527,o),
(1,430,o),
(1,349,cs),
(1,210,o),
(7,57,o),
(57,28,cs),
(114,-6,o),
(267,0,o),
(334,0,cs)
);
},
{
closed = 1;
nodes = (
(479,274,o),
(467,292,o),
(466,343,cs),
(467,396,o),
(479,445,o),
(508,445,cs),
(536,448,o),
(550,396,o),
(547,354,cs),
(545,311,o),
(535,274,o),
(504,274,cs)
);
}
);
width = 600;
},
{
layerId = m006;
shapes = (
{
closed = 1;
nodes = (
(470,2,o),
(551,48,o),
(574,103,cs),
(596,157,o),
(551,223,o),
(470,250,cs),
(406,272,o),
(260,273,o),
(195,269,cs),
(130,264,o),
(68,260,o),
(45,227,cs),
(25,197,o),
(26,149,o),
(26,119,cs),
(26,68,o),
(29,23,o),
(75,12,cs),
(153,-6,o),
(270,2,o),
(332,2,cs)
);
},
{
closed = 1;
nodes = (
(199,28,o),
(136,63,o),
(138,126,cs),
(141,222,o),
(199,243,o),
(333,243,cs),
(466,246,o),
(531,183,o),
(521,127,cs),
(507,75,o),
(464,28,o),
(315,28,cs)
);
}
);
width = 600;
}
);
unicode = 68;
},
{
glyphname = E;
lastChange = "2024-04-11 06:38:04 +0000";
layers = (
{
layerId = m01;
shapes = (
{
closed = 1;
nodes = (
(387,66,o),
(173,66,o),
(121,63,cs),
(52,60,o),
(28,53,o),
(21,50,cs),
(-3,41,o),
(-1,32,o),
(2,27,cs),
(10,16,o),
(22,12,o),
(43,8,cs),
(64,3,o),
(169,0,o),
(214,0,cs),
(259,0,o),
(507,0,o),
(564,4,cs),
(593,6,o),
(599,10,o),
(599,11,cs),
(599,12,o),
(588,19,o),
(540,18,cs),
(451,17,o),
(513,6,o),
(267,7,cs),
(204,7,o),
(72,5,o),
(77,19,cs),
(81,31,o),
(195,31,o),
(240,31,cs),
(292,31,o),
(348,29,o),
(419,29,cs),
(462,29,o),
(484,28,o),
(484,32,cs),
(484,36,o),
(445,36,o),
(405,36,cs),
(332,35,o),
(324,33,o),
(230,34,cs),
(204,35,o),
(70,33,o),
(77,46,cs),
(82,59,o),
(212,58,o),
(279,59,cs),
(507,60,o),
(491,46,o),
(548,46,cs),
(588,46,o),
(599,50,o),
(598,55,cs),
(597,59,o),
(569,61,o),
(522,63,cs)
);
}
);
width = 600;
},
{
layerId = m002;
shapes = (
{
closed = 1;
nodes = (
(384,661,o),
(179,665,o),
(127,638,cs),
(59,601,o),
(37,532,o),
(30,502,cs),
(3,386,o),
(14,322,o),
(18,265,cs),
(25,139,o),
(33,118,o),
(51,73,cs),
(72,25,o),
(142,1,o),
(217,1,cs),
(258,1,o),
(497,-4,o),
(554,34,cs),
(582,55,o),
(589,92,o),
(589,106,cs),
(589,122,o),
(576,175,o),
(531,176,cs),
(488,178,o),
(476,153,o),
(454,153,cs),
(392,153,o),
(362,161,o),
(362,203,cs),
(362,237,o),
(375,260,o),
(418,261,cs),
(468,262,o),
(449,259,o),
(490,259,cs),
(531,259,o),
(542,272,o),
(544,311,cs),
(548,361,o),
(507,383,o),
(468,384,cs),
(428,385,o),
(445,384,o),
(418,385,cs),
(393,386,o),
(363,398,o),
(364,433,cs),
(363,470,o),
(383,502,o),
(453,493,cs),
(477,490,o),
(472,471,o),
(499,468,cs),
(549,462,o),
(589,506,o),
(587,547,cs),
(586,587,o),
(558,618,o),
(514,629,cs)
);
}
);
width = 600;
},
{
layerId = m003;
shapes = (
{
closed = 1;
nodes = (
(378,592,o),
(201,595,o),
(157,572,cs),
(100,541,o),
(79,485,o),
(74,460,cs),
(50,363,o),
(60,310,o),
(63,263,cs),
(69,157,o),
(75,140,o),
(92,102,cs),
(110,63,o),
(197,43,o),
(234,43,cs),
(271,43,o),
(476,38,o),
(524,71,cs),
(548,87,o),
(554,119,o),
(554,131,cs),
(554,144,o),
(543,193,o),
(504,189,cs),
(430,181,o),
(422,94,o),
(278,100,cs),
(226,102,o),
(175,140,o),
(170,198,cs),
(164,264,o),
(219,280,o),
(255,281,cs),
(298,282,o),
(345,257,o),
(405,260,cs),
(439,262,o),
(455,268,o),
(457,300,cs),
(461,342,o),
(426,365,o),
(392,361,cs),
(332,354,o),
(325,336,o),
(248,347,cs),
(226,350,o),
(170,366,o),
(179,433,cs),
(186,485,o),
(232,526,o),
(289,531,cs),
(378,539,o),
(430,425,o),
(478,430,cs),
(520,434,o),
(554,463,o),
(553,498,cs),
(552,530,o),
(528,556,o),
(490,565,cs)
);
}
);
width = 600;
},
{
layerId = m004;
shapes = (
{
closed = 1;
nodes = (
(379,212,o),
(182,213,o),
(134,204,cs),
(70,192,o),
(48,171,o),
(41,162,cs),
(19,132,o),
(21,104,o),
(24,87,cs),
(31,52,o),
(42,39,o),
(62,25,cs),
(81,10,o),
(178,1,o),
(219,1,cs),
(261,1,o),
(489,0,o),
(542,12,cs),
(569,19,o),
(575,31,o),
(575,36,cs),
(575,39,o),
(564,60,o),
(520,58,cs),
(438,56,o),
(495,18,o),
(268,23,cs),
(211,24,o),
(88,15,o),
(93,61,cs),
(97,101,o),
(202,99,o),
(243,99,cs),
(291,101,o),
(343,92,o),
(409,94,cs),
(448,95,o),
(468,91,o),
(468,103,cs),
(468,117,o),
(433,116,o),
(395,115,cs),
(328,112,o),
(321,107,o),
(235,111,cs),
(211,113,o),
(87,105,o),
(93,150,cs),
(98,189,o),
(217,188,o),
(280,189,cs),
(489,192,o),
(475,149,o),
(528,149,cs),
(564,149,o),
(575,162,o),
(574,177,cs),
(573,189,o),
(547,197,o),
(504,202,cs)
);
}
);
width = 600;
},
{
layerId = m005;
shapes = (
{
closed = 1;
nodes = (
(384,731,o),
(177,743,o),
(125,712,cs),
(57,671,o),
(33,596,o),
(26,561,cs),
(-1,431,o),
(9,361,o),
(14,297,cs),
(20,156,o),
(29,133,o),
(48,81,cs),
(69,28,o),
(118,0,o),
(217,1,cs),
(260,1,o),
(507,-9,o),
(564,25,cs),
(606,50,o),
(599,105,o),
(599,120,cs),
(599,137,o),
(592,187,o),
(545,194,cs),
(538,195,o),
(540,197,o),
(515,197,cs),
(495,197,o),
(468,203,o),
(468,241,cs),
(468,267,o),
(482,281,o),
(508,281,cs),
(559,281,o),
(517,281,o),
(533,281,cs),
(567,281,o),
(571,316,o),
(571,352,cs),
(571,386,o),
(563,425,o),
(527,425,cs),
(518,425,o),
(510,425,o),
(501,427,cs),
(492,429,o),
(471,440,o),
(471,471,cs),
(471,487,o),
(477,508,o),
(512,510,cs),
(526,511,o),
(536,509,o),
(542,509,cs),
(606,509,o),
(602,565,o),
(600,612,cs),
(597,696,o),
(564,706,o),
(521,712,cs)
);
}
);
width = 600;
},
{
layerId = m006;
shapes = (
{
closed = 1;
nodes = (
(378,266,o),
(201,267,o),
(157,256,cs),
(100,241,o),
(80,215,o),
(74,203,cs),
(54,165,o),
(56,130,o),
(59,109,cs),
(65,64,o),
(75,49,o),
(92,31,cs),
(110,12,o),
(197,2,o),
(234,2,cs),
(271,2,o),
(476,0,o),
(524,15,cs),
(548,24,o),
(554,38,o),
(554,45,cs),
(554,50,o),
(543,75,o),
(504,73,cs),
(430,70,o),
(422,27,o),
(278,29,cs),
(226,31,o),
(175,49,o),
(170,77,cs),
(164,109,o),
(219,116,o),
(255,116,cs),
(298,118,o),
(345,106,o),
(405,107,cs),
(439,108,o),
(455,111,o),
(457,126,cs),
(461,145,o),
(426,157,o),
(392,155,cs),
(332,151,o),
(325,143,o),
(248,148,cs),
(226,150,o),
(170,158,o),
(179,189,cs),
(186,215,o),
(232,234,o),
(289,236,cs),
(378,240,o),
(430,185,o),
(478,187,cs),
(520,189,o),
(554,204,o),
(553,221,cs),
(552,236,o),
(528,248,o),
(490,253,cs)
);
}
);
width = 600;
}
);
unicode = 69;
},
{
glyphname = F;
lastChange = "2024-04-11 06:37:45 +0000";
layers = (
{
layerId = m01;
shapes = (
{
closed = 1;
nodes = (
(386,66,o),
(174,66,o),
(119,63,cs),
(51,60,o),
(27,53,o),
(20,50,cs),
(-3,41,o),
(1,32,o),
(2,27,cs),
(4,18,o),
(19,13,o),
(29,8,cs),
(40,3,o),
(48,0,o),
(70,0,cs),
(73,0,o),
(90,0,o),
(106,2,cs),
(113,4,o),
(102,7,o),
(91,10,cs),
(82,12,o),
(47,22,o),
(47,29,cs),
(47,37,o),
(194,29,o),
(237,29,cs),
(290,29,o),
(347,26,o),
(418,27,cs),
(460,27,o),
(480,27,o),
(482,31,cs),
(486,36,o),
(444,39,o),
(403,38,cs),
(331,38,o),
(323,35,o),
(229,37,cs),
(204,37,o),
(29,29,o),
(52,50,cs),
(68,64,o),
(211,58,o),
(278,59,cs),
(386,60,o),
(450,46,o),
(509,47,cs),
(557,47,o),
(599,50,o),
(598,55,cs),
(597,59,o),
(567,61,o),
(522,63,cs)
);
}
);
width = 600;
},
{
layerId = m002;
shapes = (
{
closed = 1;
nodes = (
(385,666,o),
(179,670,o),
(127,642,cs),
(61,605,o),
(37,536,o),
(30,505,cs),
(3,388,o),
(14,324,o),
(18,267,cs),
(24,139,o),
(33,118,o),
(51,73,cs),
(72,24,o),
(143,0,o),
(217,0,cs),
(260,0,o),
(343,0,o),
(362,53,cs),
(377,95,o),
(368,117,o),
(364,154,cs),
(362,168,o),
(362,184,o),
(363,204,cs),
(366,237,o),
(376,261,o),
(419,262,cs),
(469,263,o),
(449,260,o),
(492,260,cs),
(531,260,o),
(542,273,o),
(544,312,cs),
(549,363,o),
(509,385,o),
(469,386,cs),
(429,387,o),
(444,386,o),
(419,387,cs),
(393,388,o),
(364,400,o),
(364,436,cs),
(364,473,o),
(384,505,o),
(453,497,cs),
(479,493,o),
(473,474,o),
(501,471,cs),
(550,465,o),
(591,510,o),
(589,551,cs),
(588,591,o),
(559,622,o),
(515,633,cs)
);
}
);
width = 600;
},
{
layerId = m003;
shapes = (
{
closed = 1;
nodes = (
(378,592,o),
(201,595,o),
(157,572,cs),
(100,541,o),
(79,485,o),
(74,460,cs),
(50,363,o),
(60,310,o),
(63,263,cs),
(69,157,o),
(71,144,o),
(82,105,cs),
(93,66,o),
(100,43,o),
(137,43,cs),
(152,43,o),
(180,41,o),
(193,59,cs),
(203,73,o),
(193,88,o),
(187,111,cs),
(179,141,o),
(170,172,o),
(170,198,cs),
(170,264,o),
(219,280,o),
(255,281,cs),
(298,282,o),
(345,257,o),
(405,260,cs),
(439,262,o),
(455,268,o),
(457,300,cs),
(461,342,o),
(426,365,o),
(392,361,cs),
(332,354,o),
(325,336,o),
(248,347,cs),
(226,350,o),
(170,366,o),
(179,433,cs),
(186,485,o),
(232,526,o),
(289,531,cs),
(378,539,o),
(430,425,o),
(478,430,cs),
(520,434,o),
(554,463,o),
(553,498,cs),
(552,530,o),
(528,556,o),
(490,565,cs)
);
}
);
width = 600;
},
{
layerId = m004;
shapes = (
{
closed = 1;
nodes = (
(384,212,o),
(188,213,o),
(138,204,cs),
(75,193,o),
(52,171,o),
(45,161,cs),
(25,133,o),
(28,104,o),
(29,85,cs),
(31,58,o),
(44,40,o),
(54,25,cs),
(64,10,o),
(72,0,o),
(92,0,cs),
(95,0,o),
(111,-1,o),
(125,7,cs),
(132,11,o),
(124,23,o),
(114,31,cs),
(106,37,o),
(87,53,o),
(87,78,cs),
(87,103,o),
(207,92,o),
(247,93,cs),
(295,93,o),
(348,83,o),
(414,85,cs),
(453,85,o),
(471,87,o),
(473,100,cs),
(477,116,o),
(438,125,o),
(400,123,cs),
(333,121,o),
(326,113,o),
(239,118,cs),
(216,119,o),
(79,115,o),
(99,161,cs),
(114,195,o),
(222,187,o),
(285,189,cs),
(384,192,o),
(443,148,o),
(497,150,cs),
(542,152,o),
(581,162,o),
(580,176,cs),
(579,189,o),
(552,198,o),
(510,202,cs)
);
}
);
width = 600;
},
{
layerId = m005;
shapes = (
{
closed = 1;
nodes = (
(384,731,o),
(177,743,o),
(125,712,cs),
(57,671,o),
(33,596,o),
(26,561,cs),
(-1,431,o),
(9,361,o),
(14,297,cs),
(20,156,o),
(29,133,o),
(48,81,cs),
(69,28,o),
(118,0,o),
(217,1,cs),
(260,1,o),
(424,-6,o),
(468,15,cs),
(503,32,o),
(514,75,o),
(516,119,cs),
(517,169,o),
(508,221,o),
(508,241,cs),
(508,267,o),
(508,281,o),
(534,281,cs),
(585,281,o),
(543,281,o),
(559,281,cs),
(593,281,o),
(602,302,o),
(600,355,cs),
(598,417,o),
(563,425,o),
(527,425,cs),
(518,425,o),
(510,425,o),
(501,427,cs),
(492,429,o),
(471,440,o),
(471,471,cs),
(471,487,o),
(477,508,o),
(512,510,cs),
(526,511,o),
(536,509,o),
(542,509,cs),
(606,509,o),
(602,565,o),
(600,612,cs),
(597,696,o),
(564,706,o),
(521,712,cs)
);
}
);
width = 600;
},
{
layerId = m006;
shapes = (
{
closed = 1;
nodes = (
(377,266,o),
(202,267,o),
(158,256,cs),
(102,241,o),
(82,214,o),
(76,202,cs),
(58,167,o),
(61,130,o),
(62,107,cs),
(64,72,o),
(73,50,o),
(84,31,cs),
(95,12,o),
(102,1,o),
(138,1,cs),
(153,1,o),
(181,0,o),
(194,9,cs),
(204,15,o),
(194,23,o),
(188,34,cs),
(180,48,o),
(171,63,o),
(171,76,cs),
(171,108,o),
(220,115,o),
(255,116,cs),
(298,116,o),
(345,104,o),
(404,106,cs),
(438,107,o),
(454,109,o),
(456,125,cs),
(460,145,o),
(425,156,o),
(391,154,cs),
(332,151,o),
(325,142,o),
(248,148,cs),
(227,149,o),
(171,157,o),
(180,189,cs),
(187,214,o),
(233,234,o),
(289,236,cs),
(377,240,o),
(429,185,o),
(477,188,cs),
(518,190,o),
(552,203,o),
(551,220,cs),
(550,236,o),
(526,248,o),
(489,253,cs)
);
}
);
width = 600;
}
);
unicode = 70;
},
{
glyphname = G;
lastChange = "2024-04-05 01:54:13 +0000";
layers = (
{
layerId = m01;
shapes = (
{
closed = 1;
nodes = (
(593,53,o),
(492,67,o),
(340,67,cs),
(156,68,o),
(25,59,o),
(9,44,cs),
(-2,33,o),
(5,18,o),
(25,13,cs),
(66,3,o),
(126,0,o),
(306,0,cs),
(555,0,o),
(591,13,o),
(591,19,cs),
(591,21,o),
(601,33,o),
(515,34,cs),
(493,34,o),
(396,34,o),
(344,34,c),
(320,34,o),
(288,34,o),
(289,30,cs),
(292,22,o),
(573,37,o),
(564,20,cs),
(560,12,o),
(405,8,o),
(299,9,cs),
(112,9,o),
(13,10,o),
(24,36,cs),
(31,54,o),
(175,61,o),
(340,60,cs),
(452,60,o),
(490,56,o),
(510,50,cs),
(525,46,o),
(545,38,o),
(565,38,cs),
(592,38,o),
(593,41,o),
(593,44,cs)
);
}
);
width = 600;
},
{
layerId = m002;
shapes = (
{
closed = 1;
nodes = (
(588,548,o),
(492,657,o),
(346,662,cs),
(144,669,o),
(74,595,o),
(44,525,cs),
(2,429,o),
(-1,283,o),
(44,164,cs),
(74,86,o),
(141,0,o),
(313,0,cs),
(551,0,o),
(585,130,o),
(585,190,cs),
(585,210,o),
(594,325,o),
(513,333,cs),
(493,335,o),
(398,338,o),
(350,336,c),
(327,335,o),
(297,337,o),
(297,300,cs),
(297,245,o),
(337,265,o),
(337,250,cs),
(337,241,o),
(334,240,o),
(310,240,cs),
(263,240,o),
(244,285,o),
(244,336,cs),
(244,372,o),
(264,429,o),
(341,429,cs),
(375,429,o),
(406,427,o),
(419,402,cs),
(443,356,o),
(466,360,o),
(512,360,cs),
(592,360,o),
(588,408,o),
(588,436,cs)
);
}
);
width = 600;
},
{
layerId = m003;
shapes = (
{
closed = 1;
nodes = (
(548,475,o),
(467,588,o),
(343,590,cs),
(195,592,o),
(94,500,o),
(76,404,cs),
(60,317,o),
(58,234,o),
(88,177,cs),
(121,115,o),
(170,41,o),
(315,41,cs),
(517,41,o),
(546,149,o),
(546,199,cs),
(546,215,o),
(554,311,o),
(485,317,cs),
(468,319,o),
(387,321,o),
(347,320,c),
(327,319,o),
(301,321,o),
(302,290,cs),
(305,189,o),
(486,343,o),
(479,204,cs),
(476,138,o),
(396,109,o),
(310,113,cs),
(158,120,o),
(128,243,o),
(133,332,cs),
(138,427,o),
(209,524,o),
(343,518,cs),
(435,514,o),
(448,433,o),
(448,409,cs),
(448,369,o),
(476,340,o),
(504,340,cs),
(548,340,o),
(548,379,o),
(548,403,cs)
);
}
);
width = 600;
},
{
layerId = m004;
shapes = (
{
closed = 1;
nodes = (
(579,168,o),
(486,212,o),
(345,213,cs),
(174,214,o),
(59,178,o),
(38,142,cs),
(20,108,o),
(18,75,o),
(52,55,cs),
(90,30,o),
(147,1,o),
(313,1,cs),
(544,1,o),
(577,43,o),
(577,62,cs),
(577,68,o),
(587,106,o),
(507,108,cs),
(487,109,o),
(396,109,o),
(349,109,c),
(326,109,o),
(296,109,o),
(297,98,cs),
(301,58,o),
(541,117,o),
(533,64,cs),
(529,39,o),
(405,27,o),
(307,29,cs),
(133,31,o),
(66,66,o),
(76,113,cs),
(86,159,o),
(191,192,o),
(345,189,cs),
(449,188,o),
(479,168,o),
(497,151,cs),
(512,137,o),
(535,123,o),
(554,122,cs),
(578,123,o),
(579,132,o),
(579,141,cs)
);
}
);
width = 600;
},
{
layerId = m005;
shapes = (
{
closed = 1;
nodes = (
(594,614,o),
(542,722,o),
(320,732,cs),
(89,742,o),
(46,649,o),
(23,569,cs),
(-11,452,o),
(-1,271,o),
(42,138,cs),
(65,67,o),
(100,0,o),
(313,0,cs),
(597,0,o),
(590,146,o),
(595,213,cs),
(598,253,o),
(608,374,o),
(517,384,cs),
(497,386,o),
(410,389,o),
(361,389,cs),
(338,389,o),
(307,393,o),
(307,359,cs),
(307,308,o),
(348,335,o),
(348,318,cs),
(348,308,o),
(337,311,o),
(320,311,cs),
(284,311,o),
(265,341,o),
(265,378,cs),
(265,407,o),
(288,437,o),
(320,437,cs),
(348,437,o),
(365,433,o),
(373,421,cs),
(390,395,o),
(432,397,o),
(516,397,cs),
(598,397,o),
(594,457,o),
(594,488,cs)
);
}
);
width = 600;
},
{
layerId = m006;
shapes = (
{
closed = 1;
nodes = (
(586,209,o),
(491,264,o),
(346,265,cs),
(171,266,o),
(53,221,o),
(32,176,cs),
(13,134,o),
(11,94,o),
(46,67,cs),
(85,37,o),
(143,1,o),
(313,1,cs),
(550,1,o),
(584,53,o),
(584,77,cs),
(584,84,o),
(594,131,o),
(512,134,cs),
(492,135,o),
(398,136,o),
(350,135,c),
(327,135,o),
(296,136,o),
(297,121,cs),
(301,72,o),
(513,146,o),
(505,79,cs),
(501,48,o),
(408,34,o),
(307,36,cs),
(129,39,o),
(93,98,o),
(99,141,cs),
(105,187,o),
(188,233,o),
(346,230,cs),
(453,228,o),
(468,190,o),
(468,178,cs),
(468,159,o),
(501,145,o),
(534,145,cs),
(586,145,o),
(586,164,o),
(586,175,cs)
);
}
);
width = 600;
}
);
unicode = 71;
},
{
glyphname = H;
lastChange = "2024-04-11 06:37:22 +0000";
layers = (
{
layerId = m01;
shapes = (
{
closed = 1;
nodes = (
(48,63,o),
(61,68,o),
(90,68,cs),
(128,68,o),
(125,64,o),
(121,63,cs),
(111,61,o),
(29,65,o),
(29,49,cs),
(29,32,o),
(266,36,o),
(290,36,cs),
(301,36,o),
(331,36,o),
(343,36,cs),
(364,36,o),
(569,36,o),
(570,45,cs),
(572,66,o),
(504,56,o),
(480,61,cs),
(469,63,o),
(495,67,o),
(527,67,cs),
(539,67,o),
(554,67,o),
(568,59,cs),
(601,40,o),
(588,14,o),
(566,6,cs),
(555,2,o),
(551,0,o),
(535,0,cs),
(505,0,o),
(461,0,o),
(480,4,cs),
(503,9,o),
(570,2,o),
(570,19,cs),
(570,36,o),
(342,31,o),
(326,31,cs),
(316,31,o),
(303,31,o),
(290,31,cs),
(267,31,o),
(29,39,o),
(29,21,cs),
(29,3,o),
(107,8,o),
(121,5,cs),
(129,3,o),
(109,0,o),
(78,0,cs),
(45,0,o),
(40,2,o),
(30,6,cs),
(5,17,o),
(0,50,o),
(38,61,c)
);
}
);
width = 600;
},
{
layerId = m002;
shapes = (
{
closed = 1;
nodes = (
(54,627,o),
(55,669,o),
(144,669,cs),
(233,669,o),
(244,655,o),
(254,605,cs),
(258,587,o),
(257,566,o),
(255,550,cs),
(250,511,o),
(267,490,o),
(292,490,cs),
(302,490,o),
(313,490,o),
(324,490,cs),
(345,490,o),
(363,520,o),
(356,550,cs),
(352,566,o),
(352,587,o),
(356,605,cs),
(370,665,o),
(401,666,o),
(464,666,cs),
(513,666,o),
(543,662,o),
(565,589,cs),
(599,474,o),
(577,109,o),
(562,62,cs),
(546,12,o),
(526,0,o),
(467,0,cs),
(426,0,o),
(379,-11,o),
(356,62,cs),
(344,101,o),
(356,104,o),
(356,130,cs),
(356,138,o),
(342,149,o),
(327,149,cs),
(318,149,o),
(304,149,o),
(292,149,cs),
(269,149,o),
(254,138,o),
(254,130,cs),
(254,106,o),
(263,95,o),
(254,64,cs),
(235,0,o),
(176,0,o),
(144,0,cs),
(87,0,o),
(47,20,o),
(37,64,cs),
(12,174,o),
(6,500,o),
(45,606,c)
);
}
);
width = 600;
},
{
layerId = m003;
shapes = (
{
closed = 1;
nodes = (
(98,553,o),
(100,588,o),
(147,588,cs),
(178,588,o),
(183,579,o),
(191,554,cs),
(202,521,o),
(173,457,o),
(166,406,cs),
(156,332,o),
(276,340,o),
(297,340,cs),
(305,340,o),
(331,340,o),
(340,340,cs),
(358,340,o),
(442,340,o),
(442,406,cs),
(442,465,o),
(398,523,o),
(426,567,cs),
(433,578,o),
(445,585,o),
(471,585,cs),
(499,585,o),
(507,582,o),
(525,523,cs),
(554,429,o),
(544,146,o),
(523,96,cs),
(507,58,o),
(501,45,o),
(471,45,cs),
(433,45,o),
(427,66,o),
(424,78,cs),
(418,107,o),
(413,146,o),
(433,211,cs),
(455,283,o),
(339,297,o),
(326,297,cs),
(318,297,o),
(307,297,o),
(297,297,cs),
(277,297,o),
(153,284,o),
(170,210,cs),
(185,146,o),
(194,87,o),
(178,65,cs),
(166,49,o),
(160,45,o),
(144,45,cs),
(96,45,o),
(92,62,o),
(83,97,cs),
(63,186,o),
(58,451,o),
(90,536,c)
);
}
);
width = 600;
},
{
layerId = m004;
shapes = (
{
closed = 1;
nodes = (
(55,200,o),
(67,214,o),
(94,214,cs),
(131,214,o),
(127,207,o),
(125,200,cs),
(120,182,o),
(86,181,o),
(74,143,cs),
(65,114,o),
(264,116,o),
(288,116,cs),
(298,116,o),
(328,116,o),
(339,116,cs),
(360,116,o),
(524,116,o),
(524,143,cs),
(524,175,o),
(478,186,o),
(483,206,cs),
(485,213,o),
(498,213,o),
(517,213,cs),
(528,213,o),
(535,212,o),
(556,188,cs),
(591,151,o),
(575,46,o),
(554,21,cs),
(543,7,o),
(539,1,o),
(524,1,cs),
(496,1,o),
(485,8,o),
(485,14,cs),
(484,29,o),
(502,37,o),
(524,63,cs),
(556,102,o),
(338,100,o),
(323,100,cs),
(313,100,o),
(300,100,o),
(288,100,cs),
(265,100,o),
(64,110,o),
(79,61,cs),
(87,34,o),
(126,18,o),
(115,9,cs),
(106,3,o),
(95,1,o),
(83,1,cs),
(52,1,o),
(47,7,o),
(37,21,cs),
(13,57,o),
(8,160,o),
(45,194,c)
);
}
);
width = 600;
},
{
layerId = m005;
shapes = (
{
closed = 1;
nodes = (
(37,684,o),
(46,730,o),
(142,730,cs),
(231,730,o),
(267,722,o),
(277,680,cs),
(281,661,o),
(283,637,o),
(278,620,cs),
(271,598,o),
(267,570,o),
(290,570,cs),
(293,570,o),
(300,570,o),
(302,570,cs),
(323,570,o),
(326,587,o),
(319,620,cs),
(315,638,o),
(313,661,o),
(319,680,cs),
(333,727,o),
(399,727,o),
(462,727,cs),
(511,727,o),
(556,722,o),
(578,643,cs),
(612,517,o),
(590,119,o),
(575,68,cs),
(559,13,o),
(524,0,o),
(465,0,cs),
(424,0,o),
(340,-4,o),
(319,49,cs),
(303,90,o),
(319,90,o),
(319,119,cs),
(319,128,o),
(318,137,o),
(308,137,cs),
(304,137,o),
(293,137,o),
(290,137,cs),
(279,137,o),
(277,128,o),
(277,119,cs),
(277,93,o),
(291,84,o),
(278,51,cs),
(255,-7,o),
(174,0,o),
(142,0,cs),
(85,0,o),
(35,22,o),
(20,70,cs),
(5,119,o),
(-12,575,o),
(28,661,c)
);
}
);
width = 600;
},
{
layerId = m006;
shapes = (
{
closed = 1;
nodes = (
(55,248,o),
(57,265,o),
(112,265,cs),
(149,265,o),
(154,261,o),
(164,248,cs),
(177,232,o),
(127,224,o),
(115,176,cs),
(106,141,o),
(264,144,o),
(288,144,cs),
(298,144,o),
(328,144,o),
(339,144,cs),
(360,144,o),
(481,144,o),
(481,176,cs),
(481,217,o),
(407,233,o),
(440,255,cs),
(448,260,o),
(462,264,o),
(493,264,cs),
(526,264,o),
(535,262,o),
(556,233,cs),
(591,187,o),
(579,49,o),
(554,25,cs),
(535,6,o),
(528,0,o),
(493,0,cs),
(448,0,o),
(441,10,o),
(438,16,cs),
(431,30,o),
(448,45,o),
(470,77,cs),
(502,125,o),
(338,123,o),
(323,123,cs),
(313,123,o),
(300,123,o),
(288,123,cs),
(265,123,o),
(96,130,o),
(120,74,cs),
(134,40,o),
(167,20,o),
(149,10,cs),
(134,2,o),
(127,0,o),
(109,0,cs),
(52,0,o),
(47,8,o),
(37,25,cs),
(13,69,o),
(8,198,o),
(45,240,c)
);
}
);
width = 600;
}
);
unicode = 72;
},
{
glyphname = I;
lastChange = "2024-04-11 06:37:13 +0000";
layers = (
{
layerId = m01;
shapes = (
{
closed = 1;
nodes = (
(563,61,o),
(601,61,o),
(601,54,cs),
(601,50,o),
(591,49,o),
(563,48,cs),
(527,47,o),
(456,57,o),
(399,57,cs),
(311,57,o),
(307,41,o),
(307,36,cs),
(307,35,o),
(307,27,o),
(307,26,cs),
(307,19,o),
(317,6,o),
(399,9,cs),
(465,11,o),
(529,20,o),
(578,16,cs),
(590,15,o),
(598,13,o),
(598,10,cs),
(598,6,o),
(594,5,o),
(529,2,cs),
(425,-1,o),
(112,0,o),
(57,3,cs),
(14,5,o),
(0,6,o),
(0,10,cs),
(0,15,o),
(23,16,o),
(37,16,cs),
(68,17,o),
(112,11,o),
(183,9,cs),
(289,6,o),
(293,19,o),
(295,26,cs),
(295,27,o),
(295,35,o),
(295,37,cs),
(295,42,o),
(286,57,o),
(189,57,cs),
(118,57,o),
(47,48,o),
(23,50,cs),
(4,52,o),
(0,52,o),
(0,55,cs),
(0,61,o),
(18,62,o),
(57,63,cs),
(156,66,o),
(449,67,o),
(543,62,c)
);
}
);
width = 600;
},
{
layerId = m002;
shapes = (
{
closed = 1;
nodes = (
(547,617,o),
(583,616,o),
(583,512,cs),
(583,410,o),
(571,397,o),
(528,387,cs),
(513,382,o),
(496,383,o),
(482,386,cs),
(448,391,o),
(432,371,o),
(432,342,cs),
(432,331,o),
(432,318,o),
(432,304,cs),
(432,280,o),
(457,259,o),
(482,268,cs),
(496,272,o),
(513,272,o),
(528,268,cs),
(579,252,o),
(580,216,o),
(580,143,cs),
(580,86,o),
(576,53,o),
(516,26,cs),
(418,-13,o),
(110,3,o),
(71,30,cs),
(32,57,o),
(18,71,o),
(18,139,cs),
(18,186,o),
(9,241,o),
(71,268,cs),
(102,281,o),
(116,264,o),
(138,264,cs),
(164,264,o),
(179,276,o),
(179,301,cs),
(179,312,o),
(179,327,o),
(179,342,cs),
(179,373,o),
(160,388,o),
(139,388,cs),
(119,388,o),
(98,375,o),
(72,387,cs),
(18,407,o),
(18,476,o),
(18,512,cs),
(18,579,o),
(35,618,o),
(72,633,cs),
(164,672,o),
(440,673,o),
(529,628,c)
);
}
);
width = 600;
},
{
layerId = m003;
shapes = (
{
closed = 1;
nodes = (
(491,554,o),
(518,551,o),
(518,498,cs),
(518,463,o),
(511,457,o),
(491,448,cs),
(466,435,o),
(416,468,o),
(376,476,cs),
(319,488,o),
(325,351,o),
(325,327,cs),
(325,318,o),
(325,288,o),
(325,278,cs),
(325,257,o),
(325,162,o),
(376,162,cs),
(422,162,o),
(467,212,o),
(502,180,cs),
(510,172,o),
(516,158,o),
(516,129,cs),
(516,97,o),
(513,88,o),
(467,67,cs),
(394,34,o),
(174,45,o),
(135,69,cs),
(105,88,o),
(95,94,o),
(95,129,cs),
(95,172,o),
(111,179,o),
(121,182,cs),
(143,189,o),
(174,195,o),
(224,172,cs),
(280,147,o),
(291,279,o),
(291,294,cs),
(291,303,o),
(291,316,o),
(291,327,cs),
(291,350,o),
(281,491,o),
(224,472,cs),
(174,455,o),
(128,444,o),
(111,463,cs),
(98,476,o),
(95,483,o),
(95,501,cs),
(95,556,o),
(108,561,o),
(135,571,cs),
(205,594,o),
(411,599,o),
(477,563,c)
);
}
);
width = 600;
},
{
layerId = m004;
shapes = (
{
closed = 1;
nodes = (
(485,192,o),
(512,190,o),
(512,170,cs),
(512,157,o),
(505,155,o),
(485,152,cs),
(460,147,o),
(410,189,o),
(370,192,cs),
(313,196,o),
(312,115,o),
(312,106,cs),
(312,103,o),
(312,96,o),
(312,91,cs),
(312,84,o),
(316,6,o),
(369,15,cs),
(415,22,o),
(461,63,o),
(496,50,cs),
(504,48,o),
(510,42,o),
(510,32,cs),
(510,19,o),
(507,16,o),
(461,7,cs),
(388,-4,o),
(168,0,o),
(129,8,cs),
(99,16,o),
(89,18,o),
(89,32,cs),
(89,48,o),
(105,50,o),
(115,51,cs),
(137,55,o),
(168,23,o),
(218,16,cs),
(274,6,o),
(285,88,o),
(285,93,cs),
(285,98,o),
(285,102,o),
(285,106,cs),
(285,114,o),
(275,197,o),
(218,190,cs),
(168,184,o),
(122,150,o),
(105,157,cs),
(92,163,o),
(89,165,o),
(89,172,cs),
(89,193,o),
(102,194,o),
(129,198,cs),
(199,207,o),
(405,209,o),
(471,195,c)
);
}
);
width = 600;
},
{
layerId = m005;
shapes = (
{
closed = 1;
nodes = (
(556,690,o),
(593,680,o),
(593,561,cs),
(593,452,o),
(588,408,o),
(553,396,cs),
(538,390,o),
(519,388,o),
(505,395,cs),
(487,403,o),
(465,408,o),
(465,379,cs),
(465,376,o),
(465,367,o),
(465,364,cs),
(465,338,o),
(478,335,o),
(505,344,cs),
(519,349,o),
(538,351,o),
(553,344,cs),
(592,327,o),
(592,246,o),
(592,167,cs),
(592,107,o),
(588,52,o),
(524,25,cs),
(422,-17,o),
(100,10,o),
(59,29,cs),
(15,49,o),
(4,91,o),
(4,164,cs),
(4,214,o),
(1,317,o),
(44,344,cs),
(77,363,o),
(77,344,o),
(100,344,cs),
(108,344,o),
(115,345,o),
(115,357,cs),
(115,362,o),
(115,376,o),
(115,379,cs),
(115,392,o),
(108,396,o),
(100,396,cs),
(80,396,o),
(72,378,o),
(45,395,cs),
(-2,423,o),
(4,522,o),
(4,561,cs),
(4,631,o),
(23,694,o),
(60,711,cs),
(100,730,o),
(468,751,o),
(538,702,c)
);
}
);
width = 600;
},
{
layerId = m006;
shapes = (
{
closed = 1;
nodes = (
(485,239,o),
(512,237,o),
(512,212,cs),
(512,196,o),
(505,193,o),
(485,189,cs),
(460,183,o),
(410,198,o),
(370,202,cs),
(313,208,o),
(319,143,o),
(319,132,cs),
(319,128,o),
(319,114,o),
(319,109,cs),
(319,99,o),
(319,55,o),
(370,55,cs),
(416,55,o),
(461,78,o),
(496,63,cs),
(504,60,o),
(510,53,o),
(510,39,cs),
(510,24,o),
(507,20,o),
(461,10,cs),
(388,-5,o),
(168,0,o),
(129,11,cs),
(99,20,o),
(91,22,o),
(89,39,cs),
(86,61,o),
(93,66,o),
(103,70,cs),
(122,78,o),
(168,70,o),
(218,60,cs),
(274,48,o),
(285,110,o),
(285,117,cs),
(285,121,o),
(285,127,o),
(285,132,cs),
(285,143,o),
(275,209,o),
(218,200,cs),
(168,192,o),
(122,187,o),
(105,196,cs),
(92,202,o),
(89,205,o),
(89,214,cs),
(89,240,o),
(102,242,o),
(129,247,cs),
(199,257,o),
(405,260,o),
(471,243,c)
);
}
);
width = 600;
}
);
unicode = 73;
},
{
glyphname = J;
lastChange = "2024-04-05 02:48:38 +0000";
layers = (
{
layerId = m01;
shapes = (
{
closed = 1;
nodes = (
(74,65,o),
(128,66,o),
(210,67,cs),
(255,68,o),
(463,67,o),
(497,67,cs),
(567,67,o),
(590,65,o),
(590,62,cs),
(590,60,o),
(572,60,o),
(558,60,cs),
(541,60,o),
(511,61,o),
(497,60,cs),
(468,57,o),
(585,52,o),
(587,36,cs),
(589,15,o),
(539,0,o),
(298,0,cs),
(187,0,o),
(67,2,o),
(28,14,cs),
(-13,26,o),
(8,62,o),
(48,62,cs),
(65,62,o),
(38,54,o),
(26,41,cs),
(1,14,o),
(140,5,o),
(277,5,cs),
(432,5,o),
(564,12,o),
(562,36,cs),
(561,49,o),
(456,56,o),
(443,58,cs),
(422,61,o),
(319,58,o),
(219,58,cs),
(133,58,o),
(74,60,o),
(74,62,cs)
);
}
);
width = 600;
},
{
layerId = m002;
shapes = (
{
closed = 1;
nodes = (
(114,630,o),
(131,655,o),
(211,664,cs),
(254,669,o),
(456,669,o),
(490,665,cs),
(579,654,o),
(579,645,o),
(580,585,cs),
(581,534,o),
(586,425,o),
(546,425,cs),
(531,425,o),
(524,429,o),
(520,424,cs),
(511,410,o),
(518,401,o),
(518,305,cs),
(518,211,o),
(531,0,o),
(296,0,cs),
(188,0,o),
(71,21,o),
(34,138,cs),
(-7,265,o),
(25,376,o),
(143,376,cs),
(208,376,o),
(238,344,o),
(238,305,cs),
(238,272,o),
(238,249,o),
(266,249,cs),
(290,249,o),
(287,270,o),
(288,338,cs),
(290,443,o),
(289,370,o),
(289,416,cs),
(289,431,o),
(266,430,o),
(225,430,cs),
(117,429,o),
(116,466,o),
(115,559,cs)
);
}
);
width = 600;
},
{
layerId = m003;
shapes = (
{
closed = 1;
nodes = (
(160,573,o),
(173,581,o),
(240,588,cs),
(276,592,o),
(445,589,o),
(473,589,cs),
(530,589,o),
(548,554,o),
(548,533,cs),
(548,510,o),
(546,489,o),
(522,489,cs),
(509,489,o),
(492,505,o),
(480,493,cs),
(457,470,o),
(497,372,o),
(497,293,cs),
(497,215,o),
(507,41,o),
(311,41,cs),
(221,41,o),
(123,59,o),
(92,155,cs),
(58,260,o),
(74,300,o),
(121,300,cs),
(151,300,o),
(177,285,o),
(171,253,cs),
(151,139,o),
(222,104,o),
(294,104,cs),
(420,104,o),
(428,162,o),
(414,310,cs),
(406,391,o),
(391,418,o),
(391,466,cs),
(391,528,o),
(333,485,o),
(252,485,cs),
(161,485,o),
(160,505,o),
(160,536,cs)
);
}
);
width = 600;
},
{
layerId = m004;
shapes = (
{
closed = 1;
nodes = (
(118,206,o),
(133,209,o),
(213,211,cs),
(256,213,o),
(457,212,o),
(490,212,cs),
(558,212,o),
(580,205,o),
(580,196,cs),
(580,188,o),
(563,188,o),
(549,188,cs),
(533,188,o),
(504,193,o),
(490,188,cs),
(462,180,o),
(519,128,o),
(519,97,cs),
(519,68,o),
(531,0,o),
(298,0,cs),
(190,0,o),
(74,7,o),
(37,44,cs),
(-3,84,o),
(16,100,o),
(71,100,cs),
(107,100,o),
(97,82,o),
(90,70,cs),
(66,26,o),
(192,14,o),
(277,14,cs),
(427,14,o),
(494,50,o),
(482,92,cs),
(473,123,o),
(449,169,o),
(438,182,cs),
(419,206,o),
(318,182,o),
(221,182,cs),
(138,182,o),
(118,188,o),
(118,195,cs)
);
}
);
width = 600;
},
{
layerId = m005;
shapes = (
{
closed = 1;
nodes = (
(94,693,o),
(123,721,o),
(207,731,cs),
(252,737,o),
(465,737,o),
(500,732,cs),
(594,720,o),
(595,665,o),
(595,581,cs),
(595,508,o),
(592,469,o),
(568,469,cs),
(553,469,o),
(546,463,o),
(546,432,cs),
(546,414,o),
(546,442,o),
(546,337,cs),
(546,107,o),
(587,0,o),
(296,0,cs),
(145,0,o),
(30,1,o),
(11,143,cs),
(-8,288,o),
(-16,441,o),
(148,434,cs),
(201,432,o),
(231,423,o),
(235,395,cs),
(237,382,o),
(243,377,o),
(251,377,cs),
(270,377,o),
(270,400,o),
(270,404,cs),
(270,407,o),
(270,410,o),
(270,414,cs),
(270,456,o),
(245,459,o),
(222,459,cs),
(108,459,o),
(94,490,o),
(94,616,cs)
);
}
);
width = 600;
},
{
layerId = m006;
shapes = (
{
closed = 1;
nodes = (
(118,256,o),
(133,260,o),
(213,263,cs),
(256,265,o),
(457,264,o),
(490,264,cs),
(558,264,o),
(580,247,o),
(580,237,cs),
(580,226,o),
(577,215,o),
(549,215,cs),
(533,215,o),
(513,223,o),
(499,217,cs),
(471,206,o),
(519,159,o),
(519,121,cs),
(519,84,o),
(531,0,o),
(298,0,cs),
(190,0,o),
(74,9,o),
(37,55,cs),
(-3,105,o),
(16,125,o),
(71,125,cs),
(107,125,o),
(138,117,o),
(131,102,cs),
(107,47,o),
(192,30,o),
(277,30,cs),
(427,30,o),
(437,58,o),
(420,129,cs),
(411,168,o),
(393,181,o),
(393,204,cs),
(393,234,o),
(324,214,o),
(227,214,cs),
(119,214,o),
(118,223,o),
(118,238,cs)
);
}
);
width = 600;
}
);
unicode = 74;
},
{
glyphname = K;
lastChange = "2024-04-12 14:05:29 +0000";
layers = (
{
layerId = m01;
shapes = (
{
closed = 1;
nodes = (
(32,68,o),
(141,77,o),
(141,67,cs),
(141,61,o),
(39,61,o),
(37,50,cs),
(35,41,o),
(37,34,o),
(106,37,cs),
(171,41,o),
(236,41,o),
(295,45,cs),
(338,48,o),
(390,54,o),
(445,60,cs),
(493,65,o),
(547,72,o),
(566,67,cs),
(580,65,o),
(564,64,o),
(538,62,cs),
(513,60,o),
(337,46,o),
(327,43,cs),
(312,39,o),
(402,30,o),
(433,25,cs),
(464,19,o),
(514,12,o),
(532,10,cs),
(554,5,o),
(607,1,o),
(564,0,cs),
(532,-1,o),
(487,9,o),
(461,13,cs),
(449,15,o),
(359,33,o),
(310,36,cs),
(283,39,o),
(220,36,o),
(193,35,cs),
(142,34,o),
(37,35,o),
(37,23,cs),
(37,12,o),
(57,12,o),
(61,11,cs),
(85,5,o),
(141,11,o),
(141,7,cs),
(141,0,o),
(35,-5,o),
(17,10,cs),
(-2,26,o),
(2,52,o),
(17,60,cs)
);
}
);
width = 600;
},
{
layerId = m002;
shapes = (
{
closed = 1;
nodes = (
(35,602,o),
(26,656,o),
(150,656,cs),
(208,656,o),
(250,638,o),
(250,595,cs),
(250,578,o),
(241,537,o),
(252,522,cs),
(264,506,o),
(274,506,o),
(293,522,cs),
(343,563,o),
(349,566,o),
(405,613,cs),
(455,654,o),
(516,667,o),
(555,634,cs),
(585,610,o),
(609,543,o),
(577,511,cs),
(550,486,o),
(466,408,o),
(430,372,cs),
(401,341,o),
(427,311,o),
(452,277,cs),
(497,216,o),
(547,147,o),
(562,125,cs),
(578,104,o),
(572,54,o),
(532,27,cs),
(464,-19,o),
(401,7,o),
(376,44,cs),
(364,60,o),
(337,100,o),
(329,113,cs),
(319,129,o),
(320,144,o),
(287,148,cs),
(259,151,o),
(252,139,o),
(252,93,cs),
(252,83,o),
(251,77,o),
(251,66,cs),
(251,30,o),
(187,0,o),
(132,0,cs),
(75,0,o),
(29,22,o),
(20,76,cs),
(10,133,o),
(19,547,o),
(25,574,cs)
);
}
);
width = 600;
},
{
layerId = m003;
shapes = (
{
closed = 1;
nodes = (
(77,538,o),
(72,586,o),
(128,586,cs),
(165,586,o),
(169,570,o),
(169,531,cs),
(169,516,o),
(138,371,o),
(174,326,cs),
(224,265,o),
(306,384,o),
(321,401,cs),
(356,438,o),
(372,468,o),
(419,511,cs),
(460,547,o),
(488,591,o),
(522,561,cs),
(546,540,o),
(535,517,o),
(507,488,cs),
(486,466,o),
(357,381,o),
(348,341,cs),
(336,285,o),
(384,249,o),
(410,221,cs),
(448,180,o),
(494,119,o),
(508,99,cs),
(526,70,o),
(551,32,o),
(517,9,cs),
(472,-23,o),
(442,46,o),
(421,79,cs),
(411,94,o),
(364,165,o),
(356,178,cs),
(336,211,o),
(295,277,o),
(250,277,cs),
(161,277,o),
(152,250,o),
(152,144,cs),
(152,135,o),
(155,80,o),
(155,70,cs),
(155,38,o),
(177,0,o),
(130,0,cs),
(81,0,o),
(72,18,o),
(64,66,cs),
(56,117,o),
(64,488,o),
(69,513,cs)
);
}
);
width = 600;
},
{
layerId = m004;
shapes = (
{
closed = 1;
nodes = (
(31,200,o),
(31,215,o),
(62,215,cs),
(83,215,o),
(95,205,o),
(88,190,cs),
(51,112,o),
(46,110,o),
(113,119,cs),
(176,127,o),
(238,129,o),
(295,142,cs),
(337,152,o),
(387,167,o),
(440,188,cs),
(486,206,o),
(539,225,o),
(557,213,cs),
(570,204,o),
(555,201,o),
(530,195,cs),
(506,189,o),
(336,145,o),
(326,135,cs),
(312,121,o),
(399,97,o),
(429,80,cs),
(458,63,o),
(507,39,o),
(524,31,cs),
(545,20,o),
(596,5,o),
(555,2,cs),
(524,0,o),
(481,30,o),
(456,42,cs),
(444,48,o),
(357,104,o),
(310,116,cs),
(284,123,o),
(223,115,o),
(197,113,cs),
(148,109,o),
(55,117,o),
(55,88,cs),
(55,66,o),
(72,50,o),
(74,37,cs),
(76,26,o),
(73,-1,o),
(54,-1,cs),
(31,-1,o),
(27,13,o),
(21,31,cs),
(14,52,o),
(24,180,o),
(27,189,cs)
);
}
);
width = 600;
},
{
layerId = m005;
shapes = (
{
closed = 1;
nodes = (
(25,668,o),
(15,728,o),
(143,728,cs),
(203,728,o),
(263,710,o),
(270,680,cs),
(276,653,o),
(288,625,o),
(314,625,cs),
(343,625,o),
(346,633,o),
(360,644,cs),
(365,648,o),
(400,677,o),
(404,681,cs),
(452,729,o),
(517,735,o),
(562,703,cs),
(609,669,o),
(609,591,o),
(579,545,cs),
(566,525,o),
(530,472,o),
(498,427,cs),
(471,390,o),
(477,350,o),
(511,306,cs),
(552,253,o),
(562,226,o),
(578,200,cs),
(608,152,o),
(615,88,o),
(546,29,cs),
(476,-31,o),
(420,16,o),
(389,54,cs),
(385,59,o),
(366,76,o),
(362,79,cs),
(340,93,o),
(344,102,o),
(311,102,cs),
(282,102,o),
(276,85,o),
(274,66,cs),
(274,63,o),
(274,56,o),
(273,51,cs),
(265,12,o),
(182,1,o),
(125,1,cs),
(65,1,o),
(18,24,o),
(9,85,cs),
(-1,147,o),
(8,607,o),
(14,636,cs)
);
}
);
width = 600;
},
{
layerId = m006;
shapes = (
{
closed = 1;
nodes = (
(37,251,o),
(31,273,o),
(97,273,cs),
(140,273,o),
(145,266,o),
(145,248,cs),
(145,241,o),
(109,173,o),
(151,152,cs),
(210,124,o),
(306,179,o),
(324,188,cs),
(366,204,o),
(384,219,o),
(440,239,cs),
(487,254,o),
(521,276,o),
(561,262,cs),
(589,252,o),
(576,241,o),
(543,227,cs),
(519,218,o),
(367,177,o),
(356,160,cs),
(342,134,o),
(398,116,o),
(429,103,cs),
(473,85,o),
(527,57,o),
(544,47,cs),
(565,33,o),
(595,16,o),
(555,5,cs),
(501,-10,o),
(467,22,o),
(442,37,cs),
(430,44,o),
(374,77,o),
(366,84,cs),
(342,99,o),
(293,129,o),
(241,129,cs),
(136,129,o),
(125,117,o),
(125,67,cs),
(125,63,o),
(129,38,o),
(129,33,cs),
(129,18,o),
(154,1,o),
(99,1,cs),
(41,1,o),
(31,9,o),
(22,32,cs),
(12,56,o),
(22,227,o),
(27,240,cs)
);
}
);
width = 600;
}
);
unicode = 75;
},
{
glyphname = L;
lastChange = "2024-04-12 14:01:10 +0000";
layers = (
{
layerId = m01;
shapes = (
{
closed = 1;
nodes = (
(43,64,o),
(107,68,o),
(130,68,cs),
(170,68,o),
(149,61,o),
(133,61,cs),
(111,61,o),
(29,62,o),
(28,37,cs),
(27,11,o),
(96,6,o),
(193,6,cs),
(284,6,o),
(454,7,o),
(531,11,cs),
(585,13,o),
(598,7,o),
(598,4,cs),
(598,0,o),
(555,0,o),
(517,0,cs),
(479,0,o),
(178,0,o),
(154,0,cs),
(63,0,o),
(34,0,o),
(15,12,cs),
(-5,24,o),
(-3,50,o),
(24,58,cs)
);
}
);
width = 600;
},
{
layerId = m002;
shapes = (
{
closed = 1;
nodes = (
(41,615,o),
(36,667,o),
(146,667,cs),
(226,667,o),
(266,638,o),
(273,597,cs),
(294,491,o),
(287,350,o),
(273,310,cs),
(260,271,o),
(271,241,o),
(316,245,cs),
(405,251,o),
(476,255,o),
(517,245,cs),
(574,230,o),
(589,160,o),
(589,128,cs),
(589,44,o),
(548,2,o),
(511,0,cs),
(475,-2,o),
(181,0,o),
(158,0,cs),
(69,0,o),
(37,76,o),
(22,121,cs),
(5,171,o),
(8,495,o),
(36,598,cs)
);
}
);
width = 600;
},
{
layerId = m003;
shapes = (
{
closed = 1;
nodes = (
(78,552,o),
(90,582,o),
(143,582,cs),
(176,582,o),
(178,565,o),
(181,544,cs),
(187,501,o),
(132,375,o),
(122,295,cs),
(105,162,o),
(133,51,o),
(212,51,cs),
(287,51,o),
(425,69,o),
(488,96,cs),
(532,115,o),
(542,67,o),
(542,39,cs),
(542,4,o),
(508,0,o),
(477,0,cs),
(446,0,o),
(200,0,o),
(180,0,cs),
(106,0,o),
(79,66,o),
(66,105,cs),
(52,149,o),
(51,448,o),
(74,537,cs)
);
}
);
width = 600;
},
{
layerId = m004;
shapes = (
{
closed = 1;
nodes = (
(42,198,o),
(57,209,o),
(79,209,cs),
(117,209,o),
(83,180,o),
(69,161,cs),
(54,141,o),
(45,109,o),
(48,80,cs),
(56,2,o),
(106,21,o),
(198,21,cs),
(285,21,o),
(446,24,o),
(519,34,cs),
(570,41,o),
(582,23,o),
(582,13,cs),
(582,1,o),
(542,0,o),
(506,0,cs),
(470,0,o),
(184,0,o),
(161,0,cs),
(75,0,o),
(37,13,o),
(28,37,cs),
(12,80,o),
(11,161,o),
(38,192,cs)
);
}
);
width = 600;
},
{
layerId = m005;
shapes = (
{
closed = 1;
nodes = (
(41,679,o),
(45,719,o),
(146,736,cs),
(227,750,o),
(427,747,o),
(452,680,cs),
(483,596,o),
(460,560,o),
(450,514,cs),
(445,490,o),
(447,445,o),
(474,445,cs),
(498,445,o),
(504,456,o),
(545,445,cs),
(602,429,o),
(592,225,o),
(592,190,cs),
(592,59,o),
(551,3,o),
(513,1,cs),
(477,-1,o),
(180,1,o),
(158,1,cs),
(68,1,o),
(36,85,o),
(21,135,cs),
(4,190,o),
(-2,547,o),
(35,660,cs)
);
}
);
width = 600;
},
{
layerId = m006;
shapes = (
{
closed = 1;
nodes = (
(78,256,o),
(90,270,o),
(143,270,cs),
(176,270,o),
(178,262,o),
(181,252,cs),
(187,233,o),
(132,173,o),
(122,137,cs),
(105,75,o),
(133,23,o),
(212,23,cs),
(287,23,o),
(425,32,o),
(488,45,cs),
(532,53,o),
(542,31,o),
(542,18,cs),
(542,2,o),
(508,0,o),
(477,0,cs),
(446,0,o),
(200,0,o),
(180,0,cs),
(106,0,o),
(79,31,o),
(66,49,cs),
(52,69,o),
(51,208,o),
(74,249,cs)
);
}
);
width = 600;
}
);
unicode = 76;
},
{
glyphname = M;
lastChange = "2024-04-12 14:05:16 +0000";
layers = (
{
layerId = m01;
shapes = (
{
closed = 1;
nodes = (
(205,-8,o),
(54,3,o),
(38,8,cs),
(-2,20,o),
(-4,39,o),
(21,47,cs),
(43,54,o),
(67,58,o),
(107,60,cs),
(154,63,o),
(219,63,o),
(273,58,cs),
(285,58,o),
(305,56,o),
(315,54,cs),
(321,52,o),
(322,49,o),
(345,49,cs),
(366,49,o),
(368,52,o),
(376,53,cs),
(384,55,o),
(397,58,o),
(404,58,cs),
(425,62,o),
(486,63,o),
(528,63,cs),
(563,63,o),
(616,61,o),
(646,54,cs),
(710,41,o),
(706,27,o),
(669,12,cs),
(653,5,o),
(478,-10,o),
(478,11,cs),
(478,23,o),
(629,10,o),
(657,22,cs),
(693,38,o),
(674,58,o),
(518,58,cs),
(386,58,o),
(395,38,o),
(345,38,cs),
(297,38,o),
(303,57,o),
(180,57,cs),
(50,57,o),
(30,42,o),
(30,32,cs),
(30,22,o),
(67,15,o),
(82,15,cs),
(111,15,o),
(205,22,o),
(205,9,cs)
);
}
);
width = 700;
},
{
layerId = m002;
shapes = (
{
closed = 1;
nodes = (
(113,0,o),
(52,3,o),
(35,55,cs),
(18,106,o),
(0,425,o),
(22,498,cs),
(45,573,o),
(52,608,o),
(92,633,cs),
(140,663,o),
(211,669,o),
(265,618,cs),
(277,608,o),
(294,593,o),
(306,569,cs),
(316,551,o),
(323,533,o),
(349,533,cs),
(380,533,o),
(386,548,o),
(394,569,cs),
(402,590,o),
(408,599,o),
(420,618,cs),
(441,654,o),
(494,664,o),
(537,664,cs),
(571,664,o),
(625,633,o),
(655,565,cs),
(687,493,o),
(698,156,o),
(678,96,cs),
(659,39,o),
(630,-1,o),
(562,0,cs),
(426,2,o),
(443,71,o),
(449,139,cs),
(456,226,o),
(461,363,o),
(443,366,cs),
(386,375,o),
(403,281,o),
(345,283,cs),
(296,285,o),
(303,370,o),
(255,364,cs),
(224,360,o),
(240,231,o),
(255,176,cs),
(271,125,o),
(266,80,o),
(261,56,cs),
(256,31,o),
(225,6,o),
(152,2,cs)
);
}
);
width = 700;
},
{
layerId = m003;
shapes = (
{
closed = 1;
nodes = (
(119,-7,o),
(77,29,o),
(62,74,cs),
(25,186,o),
(23,357,o),
(46,430,cs),
(67,495,o),
(88,529,o),
(125,550,cs),
(169,577,o),
(229,582,o),
(279,538,cs),
(290,529,o),
(307,512,o),
(318,492,cs),
(327,476,o),
(325,453,o),
(345,453,cs),
(365,453,o),
(367,473,o),
(374,491,cs),
(381,509,o),
(393,530,o),
(400,538,cs),
(419,558,o),
(465,571,o),
(504,571,cs),
(536,571,o),
(596,559,o),
(624,500,cs),
(683,374,o),
(679,253,o),
(645,107,cs),
(630,42,o),
(586,-8,o),
(538,7,cs),
(476,27,o),
(542,117,o),
(571,221,cs),
(607,350,o),
(598,492,o),
(504,488,cs),
(381,483,o),
(400,381,o),
(345,381,cs),
(301,381,o),
(310,492,o),
(196,492,cs),
(106,492,o),
(110,365,o),
(125,281,cs),
(137,213,o),
(156,165,o),
(169,126,cs),
(176,106,o),
(191,18,o),
(154,5,cs)
);
}
);
width = 700;
},
{
layerId = m004;
shapes = (
{
closed = 1;
nodes = (
(121,-8,o),
(77,12,o),
(62,28,cs),
(25,71,o),
(23,135,o),
(46,163,cs),
(67,187,o),
(88,200,o),
(125,209,cs),
(169,218,o),
(229,221,o),
(279,203,cs),
(290,200,o),
(307,196,o),
(318,187,cs),
(328,178,o),
(325,172,o),
(345,172,cs),
(365,172,o),
(367,179,o),
(374,186,cs),
(381,192,o),
(394,200,o),
(400,203,cs),
(419,214,o),
(476,218,o),
(515,218,cs),
(547,218,o),
(596,212,o),
(624,189,cs),
(683,142,o),
(679,96,o),
(645,41,cs),
(630,16,o),
(561,-15,o),
(542,12,cs),
(526,35,o),
(594,35,o),
(620,78,cs),
(650,128,o),
(650,197,o),
(506,197,cs),
(383,197,o),
(392,122,o),
(345,122,cs),
(301,122,o),
(307,195,o),
(193,195,cs),
(73,195,o),
(67,148,o),
(67,112,cs),
(67,78,o),
(88,53,o),
(103,45,cs),
(129,30,o),
(147,18,o),
(138,9,cs)
);
}
);
width = 700;
},
{
layerId = m005;
shapes = (
{
closed = 1;
nodes = (
(108,0,o),
(55,7,o),
(32,63,cs),
(6,126,o),
(-3,476,o),
(15,558,cs),
(33,642,o),
(46,681,o),
(86,709,cs),
(135,742,o),
(207,748,o),
(263,692,cs),
(269,686,o),
(283,675,o),
(292,666,cs),
(308,650,o),
(322,630,o),
(348,630,cs),
(380,630,o),
(390,651,o),
(404,669,cs),
(411,678,o),
(416,684,o),
(421,692,cs),
(445,730,o),
(496,743,o),
(540,743,cs),
(575,743,o),
(630,709,o),
(660,633,cs),
(693,552,o),
(704,175,o),
(684,108,cs),
(664,44,o),
(635,0,o),
(566,0,cs),
(394,0,o),
(426,82,o),
(429,101,cs),
(430,108,o),
(434,124,o),
(415,127,cs),
(380,133,o),
(399,102,o),
(352,103,cs),
(315,104,o),
(326,130,o),
(296,127,cs),
(280,125,o),
(279,110,o),
(282,98,cs),
(285,84,o),
(289,80,o),
(284,53,cs),
(279,25,o),
(222,7,o),
(148,2,cs)
);
}
);
width = 700;
},
{
layerId = m006;
shapes = (
{
closed = 1;
nodes = (
(119,-3,o),
(77,13,o),
(62,33,cs),
(25,83,o),
(23,160,o),
(46,193,cs),
(67,222,o),
(88,237,o),
(125,247,cs),
(169,259,o),
(229,261,o),
(279,241,cs),
(290,237,o),
(305,230,o),
(315,220,cs),
(321,214,o),
(331,203,o),
(345,203,cs),
(365,203,o),
(367,212,o),
(374,220,cs),
(381,228,o),
(394,237,o),
(400,241,cs),
(419,254,o),
(476,259,o),
(515,259,cs),
(547,259,o),
(596,251,o),
(624,224,cs),
(683,168,o),
(679,113,o),
(645,48,cs),
(630,19,o),
(584,-9,o),
(538,3,cs),
(499,13,o),
(578,54,o),
(593,97,cs),
(612,152,o),
(648,227,o),
(504,227,cs),
(381,227,o),
(392,151,o),
(345,151,cs),
(301,151,o),
(307,227,o),
(193,227,cs),
(73,227,o),
(92,164,o),
(107,126,cs),
(119,96,o),
(140,74,o),
(153,56,cs),
(160,48,o),
(191,8,o),
(154,2,cs)
);
}
);
width = 700;
}
);
unicode = 77;
},
{
glyphname = N;
lastChange = "2024-04-12 13:59:04 +0000";
layers = (
{
layerId = m01;
shapes = (
{
closed = 1;
nodes = (
(197,0,o),
(147,0,o),
(125,0,cs),
(100,0,o),
(6,-4,o),
(6,36,cs),
(6,61,o),
(30,63,o),
(52,64,cs),
(72,65,o),
(95,64,o),
(111,62,cs),
(140,59,o),
(173,52,o),
(184,50,cs),
(199,47,o),
(391,20,o),
(469,14,cs),
(539,9,o),
(572,9,o),
(570,34,cs),
(567,69,o),
(420,50,o),
(398,51,cs),
(367,52,o),
(357,66,o),
(374,66,cs),
(399,66,o),
(523,69,o),
(560,56,cs),
(601,42,o),
(584,14,o),
(570,8,cs),
(560,4,o),
(548,0,o),
(522,0,cs),
(510,0,o),
(492,1,o),
(482,3,cs),
(466,5,o),
(389,14,o),
(360,18,cs),
(322,23,o),
(129,56,o),
(85,56,cs),
(43,56,o),
(18,60,o),
(17,36,cs),
(15,-3,o),
(176,16,o),
(196,16,cs),
(229,16,o),
(235,0,o),
(225,0,cs)
);
}
);
width = 600;
},
{
layerId = m002;
shapes = (
{
closed = 1;
nodes = (
(112,9,o),
(59,21,o),
(38,63,cs),
(4,131,o),
(4,514,o),
(25,584,cs),
(38,630,o),
(51,646,o),
(109,647,cs),
(167,648,o),
(191,650,o),
(230,612,cs),
(248,595,o),
(266,562,o),
(280,544,cs),
(295,525,o),
(304,483,o),
(358,483,cs),
(386,483,o),
(378,522,o),
(378,537,cs),
(378,549,o),
(378,578,o),
(378,584,cs),
(378,632,o),
(391,659,o),
(471,659,cs),
(508,659,o),
(547,659,o),
(564,589,cs),
(604,421,o),
(590,150,o),
(577,91,cs),
(567,50,o),
(560,7,o),
(497,9,cs),
(434,11,o),
(423,11,o),
(392,61,cs),
(368,103,o),
(357,124,o),
(338,153,cs),
(317,185,o),
(311,194,o),
(292,194,cs),
(253,194,o),
(256,168,o),
(256,153,cs),
(256,108,o),
(260,86,o),
(245,50,cs),
(230,17,o),
(187,11,o),
(154,9,cs)
);
}
);
width = 600;
},
{
layerId = m003;
shapes = (
{
closed = 1;
nodes = (
(104,1,o),
(97,11,o),
(81,47,cs),
(53,105,o),
(53,435,o),
(69,495,cs),
(81,535,o),
(85,550,o),
(132,550,cs),
(158,550,o),
(170,549,o),
(183,519,cs),
(195,492,o),
(212,458,o),
(222,442,cs),
(234,423,o),
(307,239,o),
(372,239,cs),
(421,239,o),
(399,427,o),
(399,453,cs),
(399,463,o),
(396,486,o),
(396,491,cs),
(396,532,o),
(387,560,o),
(434,560,cs),
(464,560,o),
(496,560,o),
(510,499,cs),
(543,355,o),
(531,122,o),
(520,71,cs),
(512,35,o),
(502,0,o),
(461,0,cs),
(414,0,o),
(410,24,o),
(396,60,cs),
(384,90,o),
(373,120,o),
(349,152,cs),
(318,194,o),
(250,288,o),
(192,288,cs),
(157,288,o),
(163,226,o),
(164,208,cs),
(165,181,o),
(168,134,o),
(169,101,cs),
(171,47,o),
(184,-1,o),
(138,0,cs)
);
}
);
width = 600;
},
{
layerId = m004;
shapes = (
{
closed = 1;
nodes = (
(56,0,o),
(50,11,o),
(44,19,cs),
(21,50,o),
(13,159,o),
(29,183,cs),
(39,198,o),
(43,202,o),
(64,205,cs),
(83,208,o),
(105,205,o),
(120,194,cs),
(134,184,o),
(154,171,o),
(165,165,cs),
(179,158,o),
(388,49,o),
(463,50,cs),
(532,51,o),
(518,91,o),
(488,150,cs),
(484,158,o),
(467,185,o),
(463,192,cs),
(456,205,o),
(473,209,o),
(489,209,cs),
(513,209,o),
(529,209,o),
(545,187,cs),
(584,133,o),
(570,46,o),
(557,27,cs),
(547,13,o),
(536,1,o),
(511,1,cs),
(500,1,o),
(483,5,o),
(473,10,cs),
(458,17,o),
(385,45,o),
(357,57,cs),
(321,73,o),
(123,171,o),
(99,171,cs),
(59,171,o),
(66,125,o),
(67,118,cs),
(68,108,o),
(91,53,o),
(95,41,cs),
(100,25,o),
(109,0,o),
(83,0,cs)
);
}
);
width = 600;
},
{
layerId = m005;
shapes = (
{
closed = 1;
nodes = (
(111,0,o),
(57,14,o),
(37,62,cs),
(2,140,o),
(2,580,o),
(23,660,cs),
(37,713,o),
(55,736,o),
(114,737,cs),
(172,738,o),
(193,730,o),
(212,722,cs),
(240,711,o),
(245,707,o),
(271,694,cs),
(289,685,o),
(320,673,o),
(336,673,cs),
(350,673,o),
(354,682,o),
(353,692,cs),
(352,706,o),
(359,714,o),
(365,721,cs),
(375,733,o),
(391,746,o),
(472,746,cs),
(508,746,o),
(548,746,o),
(565,666,cs),
(605,473,o),
(591,162,o),
(577,94,cs),
(568,47,o),
(561,0,o),
(497,0,cs),
(409,0,o),
(397,9,o),
(375,25,cs),
(352,41,o),
(332,57,o),
(320,64,cs),
(302,75,o),
(291,80,o),
(271,80,cs),
(260,80,o),
(255,80,o),
(256,62,cs),
(257,49,o),
(254,40,o),
(247,31,cs),
(238,20,o),
(207,0,o),
(153,0,cs)
);
}
);
width = 600;
},
{
layerId = m006;
shapes = (
{
closed = 1;
nodes = (
(72,1,o),
(64,6,o),
(45,24,cs),
(13,53,o),
(13,217,o),
(31,247,cs),
(45,267,o),
(50,274,o),
(105,274,cs),
(135,274,o),
(149,274,o),
(164,259,cs),
(178,245,o),
(198,228,o),
(209,220,cs),
(223,211,o),
(308,119,o),
(384,119,cs),
(441,119,o),
(416,213,o),
(416,226,cs),
(416,231,o),
(412,242,o),
(412,245,cs),
(412,265,o),
(402,279,o),
(456,279,cs),
(491,279,o),
(529,279,o),
(545,249,cs),
(584,177,o),
(570,61,o),
(557,36,cs),
(547,18,o),
(536,0,o),
(488,0,cs),
(433,0,o),
(429,12,o),
(412,30,cs),
(398,45,o),
(385,60,o),
(357,76,cs),
(321,97,o),
(242,144,o),
(174,144,cs),
(134,144,o),
(141,113,o),
(142,104,cs),
(143,91,o),
(147,67,o),
(148,51,cs),
(150,24,o),
(165,0,o),
(112,0,cs)
);
}
);
width = 600;
}
);
unicode = 78;
},
{
glyphname = O;
lastChange = "2024-04-12 04:31:50 +0000";
layers = (
{
layerId = m01;
shapes = (
{
closed = 1;
nodes = (
(508,0,o),
(600,1,o),
(600,32,cs),
(600,64,o),
(457,66,o),
(300,66,cs),
(137,66,o),
(0,67,o),
(0,32,cs),
(0,2,o),
(68,0,o),
(300,0,cs)
);
},
{
closed = 1;
nodes = (
(119,12,o),
(24,15,o),
(24,33,cs),
(24,51,o),
(117,56,o),
(301,56,cs),
(485,56,o),
(574,48,o),
(574,32,cs),
(574,15,o),
(428,12,o),
(278,12,cs)
);
}
);
width = 600;
},
{
layerId = m002;
shapes = (
{
closed = 1;
nodes = (
(526,0,o),
(617,103,o),
(617,336,cs),
(617,542,o),
(533,672,o),
(316,672,cs),
(83,672,o),
(14,546,o),
(14,336,cs),
(14,125,o),
(82,0,o),
(316,0,cs)
);
},
{
closed = 1;
nodes = (
(290,286,o),
(265,298,o),
(264,327,cs),
(264,359,o),
(280,388,o),
(318,388,cs),
(355,389,o),
(376,360,o),
(370,333,cs),
(363,308,o),
(340,286,o),
(313,285,cs)
);
}
);
width = 630;
},
{
layerId = m003;
shapes = (
{
closed = 1;
nodes = (
(471,0,o),
(545,112,o),
(545,280,cs),
(545,425,o),
(429,561,o),
(301,561,cs),
(168,561,o),
(55,444,o),
(55,280,cs),
(55,125,o),
(111,0,o),
(301,0,cs)
);
},
{
closed = 1;
nodes = (
(180,84,o),
(130,154,o),
(126,265,cs),
(126,389,o),
(178,473,o),
(299,473,cs),
(420,475,o),
(468,366,o),
(468,263,cs),
(468,167,o),
(383,74,o),
(284,79,cs)
);
}
);
width = 600;
},
{
layerId = m004;
shapes = (
{
closed = 1;
nodes = (
(498,0,o),
(585,42,o),
(585,104,cs),
(585,158,o),
(449,209,o),
(300,209,cs),
(145,209,o),
(14,166,o),
(14,104,cs),
(14,46,o),
(79,0,o),
(300,0,cs)
);
},
{
closed = 1;
nodes = (
(128,41,o),
(57,66,o),
(50,105,cs),
(50,149,o),
(126,178,o),
(301,178,cs),
(476,179,o),
(546,140,o),
(546,104,cs),
(546,70,o),
(422,38,o),
(279,39,cs)
);
}
);
width = 600;
},
{
layerId = m005;
shapes = (
{
closed = 1;
nodes = (
(562,0,o),
(594,34,o),
(594,368,cs),
(594,681,o),
(570,736,o),
(300,736,cs),
(23,736,o),
(6,681,o),
(6,368,cs),
(6,51,o),
(21,0,o),
(300,0,cs)
);
},
{
closed = 1;
nodes = (
(285,328,o),
(270,337,o),
(269,357,cs),
(269,380,o),
(279,400,o),
(304,400,cs),
(327,401,o),
(341,381,o),
(337,362,cs),
(332,344,o),
(317,328,o),
(300,327,cs)
);
}
);
width = 600;
},
{
layerId = m006;
shapes = (
{
closed = 1;
nodes = (
(499,0,o),
(586,56,o),
(586,139,cs),
(586,211,o),
(450,279,o),
(301,279,cs),
(146,279,o),
(15,221,o),
(15,139,cs),
(15,62,o),
(80,0,o),
(301,0,cs)
);
},
{
closed = 1;
nodes = (
(160,42,o),
(102,77,o),
(97,132,cs),
(97,193,o),
(158,235,o),
(299,235,cs),
(440,236,o),
(496,182,o),
(496,131,cs),
(496,83,o),
(397,37,o),
(281,39,cs)
);
}
);
width = 600;
}
);
unicode = 79;
},
{
glyphname = P;
lastChange = "2024-04-11 06:50:19 +0000";
layers = (
{
layerId = m01;
shapes = (
{
closed = 1;
nodes = (
(95,0,o),
(105,0,o),
(114,0,cs),
(120,0,o),
(124,0,o),
(127,0,cs),
(136,0,o),
(131,0,o),
(172,0,cs),
(248,0,o),
(459,1,o),
(515,3,cs),
(568,7,o),
(600,10,o),
(600,29,cs),
(600,51,o),
(529,59,o),
(468,62,cs),
(404,65,o),
(237,66,o),
(125,61,cs),
(65,60,o),
(35,54,o),
(20,48,cs),
(-5,38,o),
(-7,16,o),
(20,4,cs),
(34,-2,o),
(59,0,o),
(69,0,cs)
);
},
{
closed = 1;
nodes = (
(147,11,o),
(19,2,o),
(20,30,cs),
(21,52,o),
(129,56,o),
(280,56,cs),
(430,57,o),
(581,53,o),
(581,30,cs),
(581,12,o),
(445,11,o),
(282,11,cs)
);
}
);
width = 600;
},
{
layerId = m002;
shapes = (
{
closed = 1;
nodes = (
(240,-1,o),
(287,23,o),
(307,53,cs),
(318,71,o),
(311,117,o),
(311,154,cs),
(311,227,o),
(344,265,o),
(386,254,cs),
(427,243,o),
(491,258,o),
(511,273,cs),
(543,298,o),
(586,349,o),
(587,454,cs),
(588,560,o),
(523,619,o),
(463,646,cs),
(400,675,o),
(239,686,o),
(130,644,cs),
(72,621,o),
(47,596,o),
(34,561,cs),
(11,500,o),
(3,122,o),
(30,65,cs),
(54,12,o),
(127,-1,o),
(158,-1,cs)
);
},
{
closed = 1;
nodes = (
(409,328,o),
(390,353,o),
(389,419,cs),
(390,490,o),
(409,554,o),
(451,554,cs),
(493,557,o),
(513,490,o),
(510,433,cs),
(506,377,o),
(492,328,o),
(447,329,cs)
);
}
);
width = 600;
},
{
layerId = m003;
shapes = (
{
closed = 1;
nodes = (
(212,0,o),
(225,20,o),
(232,45,cs),
(237,61,o),
(235,119,o),
(235,150,cs),
(235,211,o),
(254,235,o),
(289,220,cs),
(351,193,o),
(429,208,o),
(474,235,cs),
(518,263,o),
(543,292,o),
(544,380,cs),
(545,468,o),
(490,517,o),
(440,540,cs),
(388,564,o),
(252,574,o),
(161,539,cs),
(112,519,o),
(92,499,o),
(80,469,cs),
(61,418,o),
(55,100,o),
(77,52,cs),
(97,8,o),
(127,0,o),
(152,0,cs)
);
},
{
closed = 1;
nodes = (
(282,260,o),
(242,288,o),
(240,362,cs),
(242,444,o),
(282,516,o),
(371,516,cs),
(460,520,o),
(503,444,o),
(495,378,cs),
(488,315,o),
(458,260,o),
(362,260,cs)
);
}
);
width = 600;
},
{
layerId = m004;
shapes = (
{
closed = 1;
nodes = (
(105,0,o),
(115,7,o),
(123,16,cs),
(129,22,o),
(126,43,o),
(126,55,cs),
(126,76,o),
(151,83,o),
(192,78,cs),
(264,68,o),
(446,76,o),
(499,85,cs),
(550,96,o),
(579,106,o),
(580,139,cs),
(582,171,o),
(517,189,o),
(459,197,cs),
(399,206,o),
(240,209,o),
(134,196,cs),
(77,190,o),
(54,182,o),
(40,171,cs),
(17,152,o),
(12,34,o),
(34,13,cs),
(48,0,o),
(71,0,o),
(80,0,cs)
);
},
{
closed = 1;
nodes = (
(204,94,o),
(134,105,o),
(136,132,cs),
(139,177,o),
(204,188,o),
(347,188,cs),
(490,190,o),
(560,162,o),
(546,138,cs),
(534,115,o),
(487,94,o),
(332,94,cs)
);
}
);
width = 600;
},
{
layerId = m005;
shapes = (
{
closed = 1;
nodes = (
(316,4,o),
(377,7,o),
(400,41,cs),
(413,60,o),
(414,117,o),
(404,157,cs),
(397,185,o),
(428,176,o),
(458,176,cs),
(487,176,o),
(529,203,o),
(539,215,cs),
(557,238,o),
(597,272,o),
(594,454,cs),
(590,678,o),
(529,687,o),
(468,707,cs),
(394,731,o),
(244,732,o),
(126,708,cs),
(67,696,o),
(41,670,o),
(27,632,cs),
(4,567,o),
(-13,141,o),
(23,60,cs),
(48,4,o),
(116,-3,o),
(233,1,cs)
);
},
{
closed = 1;
nodes = (
(472,359,o),
(464,373,o),
(463,413,cs),
(464,455,o),
(472,492,o),
(491,492,cs),
(510,495,o),
(519,455,o),
(517,422,cs),
(516,389,o),
(509,359,o),
(488,359,cs)
);
}
);
width = 600;
},
{
layerId = m006;
shapes = (
{
closed = 1;
nodes = (
(193,0,o),
(209,10,o),
(217,22,cs),
(223,30,o),
(220,58,o),
(220,73,cs),
(220,102,o),
(242,114,o),
(283,107,cs),
(355,94,o),
(446,101,o),
(499,114,cs),
(550,128,o),
(579,142,o),
(580,185,cs),
(582,228,o),
(517,252,o),
(459,263,cs),
(399,275,o),
(240,279,o),
(134,262,cs),
(77,253,o),
(54,243,o),
(40,228,cs),
(17,203,o),
(11,49,o),
(36,25,cs),
(59,4,o),
(94,0,o),
(124,0,cs)
);
},
{
closed = 1;
nodes = (
(275,126,o),
(228,140,o),
(226,176,cs),
(228,216,o),
(275,251,o),
(379,251,cs),
(482,253,o),
(533,216,o),
(523,184,cs),
(515,153,o),
(480,126,o),
(368,126,cs)
);
}
);
width = 600;
}
);
unicode = 80;
},
{
glyphname = Q;
lastChange = "2024-04-11 07:46:16 +0000";
layers = (
{
layerId = m01;
shapes = (
{
closed = 1;
nodes = (
(562,0,o),
(545,8,o),
(524,14,cs),
(503,20,o),
(480,25,o),
(461,24,cs),
(442,23,o),
(443,17,o),
(481,7,cs),
(500,2,o),
(509,0,o),
(532,0,cs)
);
},
{
closed = 1;
nodes = (
);
},
{
closed = 1;
nodes = (
);
},
{
closed = 1;
nodes = (
(508,0,o),
(600,1,o),
(600,32,cs),
(600,64,o),
(457,66,o),
(300,66,cs),
(137,66,o),
(0,67,o),
(0,32,cs),
(0,2,o),
(68,0,o),
(300,0,cs)
);
},
{
closed = 1;
nodes = (
(119,12,o),
(24,15,o),
(24,33,cs),
(24,51,o),
(117,56,o),
(301,56,cs),
(485,56,o),
(574,48,o),
(574,32,cs),
(574,15,o),
(428,12,o),
(278,12,cs)
);
}
);
width = 600;
},
{
layerId = m002;
shapes = (
{
closed = 1;
nodes = (
(618,44,o),
(600,105,o),
(487,238,cs),
(416,321,o),
(357,375,o),
(301,328,cs),
(252,287,o),
(294,222,o),
(372,135,cs),
(452,45,o),
(518,-27,o),
(570,10,cs)
);
},
{
closed = 1;
nodes = (
(502,0,o),
(589,103,o),
(589,336,cs),
(589,542,o),
(509,672,o),
(301,672,cs),
(78,672,o),
(12,546,o),
(12,336,cs),
(12,125,o),
(77,0,o),
(301,0,cs)
);
},
{
closed = 1;
nodes = (
(265,220,o),
(246,245,o),
(245,311,cs),
(246,382,o),
(265,446,o),
(307,446,cs),
(349,449,o),
(369,382,o),
(366,325,cs),
(362,269,o),
(348,220,o),
(303,221,cs)
);
},
{
closed = 1;
nodes = (
);
}
);
width = 600;
},
{
layerId = m003;
shapes = (
{
closed = 1;
nodes = (
(558,26,o),
(546,56,o),
(489,119,cs),
(453,160,o),
(423,187,o),
(394,164,cs),
(368,143,o),
(396,100,o),
(436,57,cs),
(469,21,o),
(507,-14,o),
(533,6,cs)
);
},
{
closed = 1;
nodes = (
(467,0,o),
(540,112,o),
(540,280,cs),
(540,425,o),
(425,561,o),
(298,561,cs),
(167,561,o),
(55,444,o),
(55,280,cs),
(55,125,o),
(110,0,o),
(298,0,cs)
);
},
{
closed = 1;
nodes = (
(198,61,o),
(137,156,o),
(133,256,cs),
(127,397,o),
(171,504,o),
(299,506,cs),
(414,508,o),
(459,388,o),
(459,274,cs),
(459,164,o),
(429,61,o),
(289,61,cs)
);
},
{
closed = 1;
nodes = (
);
}
);
width = 600;
},
{
layerId = m004;
shapes = (
{
closed = 1;
nodes = (
(591,9,o),
(578,20,o),
(514,44,cs),
(473,58,o),
(430,70,o),
(406,59,cs),
(377,46,o),
(408,36,o),
(453,20,cs),
(491,8,o),
(534,-5,o),
(563,2,cs)
);
},
{
closed = 1;
nodes = (
(488,0,o),
(571,41,o),
(571,102,cs),
(571,155,o),
(441,204,o),
(298,204,cs),
(149,204,o),
(23,161,o),
(23,102,cs),
(23,45,o),
(86,0,o),
(298,0,cs)
);
},
{
closed = 1;
nodes = (
(184,22,o),
(109,56,o),
(105,93,cs),
(98,144,o),
(154,183,o),
(299,184,cs),
(429,185,o),
(483,141,o),
(483,100,cs),
(483,59,o),
(447,22,o),
(288,22,cs)
);
}
);
width = 600;
},
{
layerId = m005;
shapes = (
{
closed = 1;
nodes = (
(625,66,o),
(599,160,o),
(506,273,cs),
(431,364,o),
(338,409,o),
(281,358,cs),
(231,313,o),
(238,226,o),
(321,136,cs),
(400,50,o),
(497,-42,o),
(573,22,cs)
);
},
{
closed = 1;
nodes = (
(546,2,o),
(593,60,o),
(593,366,cs),
(593,624,o),
(593,731,o),
(299,731,cs),
(50,731,o),
(4,650,o),
(4,366,cs),
(4,84,o),
(37,0,o),
(299,1,cs)
);
},
{
closed = 1;
nodes = (
(281,290,o),
(273,304,o),
(272,344,cs),
(273,386,o),
(281,423,o),
(300,423,cs),
(319,426,o),
(328,386,o),
(326,353,cs),
(325,320,o),
(318,290,o),
(297,290,cs)
);
},
{
closed = 1;
nodes = (
);
}
);
width = 600;
},
{
layerId = m006;
shapes = (
{
closed = 1;
nodes = (
(586,12,o),
(573,27,o),
(510,58,cs),
(470,77,o),
(437,91,o),
(404,79,cs),
(375,69,o),
(406,48,o),
(450,27,cs),
(488,10,o),
(530,-7,o),
(559,3,cs)
);
},
{
closed = 1;
nodes = (
(485,0,o),
(567,54,o),
(567,136,cs),
(567,206,o),
(439,272,o),
(298,272,c),
(151,272,o),
(27,215,o),
(27,136,cs),
(27,60,o),
(89,0,o),
(298,0,cs)
);
},
{
closed = 1;
nodes = (
(186,29,o),
(112,75,o),
(108,124,cs),
(101,192,o),
(156,244,o),
(299,245,cs),
(427,246,o),
(480,188,o),
(480,133,cs),
(480,79,o),
(444,29,o),
(288,29,cs)
);
}
);
width = 600;
}
);
unicode = 81;
},
{
glyphname = R;
lastChange = "2024-04-11 21:42:04 +0000";
layers = (
{
layerId = m01;
shapes = (
{
closed = 1;
nodes = (
(116,0,o),
(132,0,o),
(138,0,cs),
(148,0,o),
(218,0,o),
(275,0,cs),
(399,0,o),
(416,0,o),
(428,0,cs),
(439,0,o),
(494,0,o),
(526,0,cs),
(530,0,o),
(559,0,o),
(565,1,cs),
(568,2,o),
(577,4,o),
(580,5,cs),
(585,7,o),
(587,8,o),
(589,9,cs),
(593,11,o),
(600,16,o),
(600,31,cs),
(600,58,o),
(530,59,o),
(468,62,cs),
(403,64,o),
(375,65,o),
(262,65,cs),
(202,65,o),
(45,59,o),
(18,48,cs),
(-4,39,o),
(-8,19,o),
(18,7,cs),
(39,-3,o),
(50,0,o),
(82,0,cs)
);
},
{
closed = 1;
nodes = (
(59,9,o),
(18,7,o),
(18,29,cs),
(18,57,o),
(211,56,o),
(300,57,cs),
(497,59,o),
(587,44,o),
(586,29,cs),
(584,3,o),
(455,9,o),
(300,9,cs)
);
}
);
width = 600;
},
{
layerId = m002;
shapes = (
{
closed = 1;
nodes = (
(240,-1,o),
(257,19,o),
(277,49,cs),
(288,67,o),
(274,156,o),
(298,156,cs),
(309,156,o),
(334,63,o),
(351,44,cs),
(382,11,o),
(391,0,o),
(470,0,cs),
(544,0,o),
(538,52,o),
(511,103,cs),
(478,165,o),
(403,253,o),
(422,263,cs),
(437,271,o),
(457,238,o),
(511,273,cs),
(545,295,o),
(586,349,o),
(587,454,cs),
(588,560,o),
(523,619,o),
(463,646,cs),
(400,675,o),
(239,686,o),
(130,644,cs),
(72,621,o),
(47,596,o),
(34,561,cs),
(11,500,o),
(3,122,o),
(30,65,cs),
(54,12,o),
(127,-1,o),
(158,-1,cs)
);
},
{
closed = 1;
nodes = (
(409,328,o),
(390,353,o),
(389,419,cs),
(390,490,o),
(409,554,o),
(451,554,cs),
(493,557,o),
(513,490,o),
(510,433,cs),
(506,377,o),
(492,328,o),
(447,329,cs)
);
},
{
closed = 1;
nodes = (
);
}
);
width = 600;
},
{
layerId = m003;
shapes = (
{
closed = 1;
nodes = (
(201,0,o),
(243,12,o),
(243,56,cs),
(243,72,o),
(219,178,o),
(265,181,cs),
(367,188,o),
(385,112,o),
(396,94,cs),
(441,19,o),
(472,-13,o),
(516,6,cs),
(546,19,o),
(525,72,o),
(497,116,cs),
(467,163,o),
(422,192,o),
(443,208,cs),
(454,217,o),
(462,221,o),
(476,228,cs),
(507,243,o),
(539,292,o),
(540,380,cs),
(541,468,o),
(486,518,o),
(436,540,cs),
(383,564,o),
(248,574,o),
(157,538,cs),
(108,519,o),
(87,498,o),
(76,469,cs),
(57,418,o),
(51,102,o),
(73,55,cs),
(93,10,o),
(136,0,o),
(162,0,cs)
);
},
{
closed = 1;
nodes = (
(227,241,o),
(206,303,o),
(206,379,cs),
(206,454,o),
(268,514,o),
(345,516,cs),
(442,519,o),
(484,454,o),
(484,379,cs),
(484,289,o),
(422,241,o),
(345,241,cs)
);
}
);
width = 600;
},
{
layerId = m004;
shapes = (
{
closed = 1;
nodes = (
(143,0,o),
(147,11,o),
(147,27,cs),
(147,32,o),
(116,73,o),
(169,74,cs),
(287,77,o),
(378,78,o),
(443,41,cs),
(495,12,o),
(520,-3,o),
(549,0,cs),
(584,4,o),
(553,25,o),
(520,41,cs),
(486,58,o),
(441,68,o),
(465,74,cs),
(478,77,o),
(451,71,o),
(503,81,cs),
(536,88,o),
(576,104,o),
(577,135,cs),
(578,167,o),
(515,184,o),
(457,192,cs),
(396,200,o),
(240,204,o),
(135,191,cs),
(79,185,o),
(55,177,o),
(42,167,cs),
(20,149,o),
(14,41,o),
(38,19,cs),
(58,0,o),
(68,0,o),
(98,0,cs)
);
},
{
closed = 1;
nodes = (
(174,86,o),
(145,108,o),
(145,134,cs),
(145,161,o),
(231,182,o),
(340,183,cs),
(478,185,o),
(537,161,o),
(537,134,cs),
(537,103,o),
(449,86,o),
(340,86,cs)
);
}
);
width = 600;
},
{
layerId = m005;
shapes = (
{
closed = 1;
nodes = (
(238,-1,o),
(279,20,o),
(285,53,cs),
(289,75,o),
(293,84,o),
(307,84,cs),
(318,84,o),
(330,58,o),
(347,38,cs),
(380,2,o),
(439,0,o),
(521,0,cs),
(599,0,o),
(628,40,o),
(569,125,cs),
(524,189,o),
(509,225,o),
(512,235,cs),
(517,253,o),
(525,247,o),
(549,266,cs),
(584,294,o),
(599,380,o),
(599,495,cs),
(599,676,o),
(561,696,o),
(470,718,cs),
(401,735,o),
(205,736,o),
(116,711,cs),
(23,685,o),
(36,650,o),
(23,611,cs),
(-1,545,o),
(-9,133,o),
(19,71,cs),
(44,13,o),
(120,-1,o),
(152,-1,cs)
);
},
{
closed = 1;
nodes = (
(480,391,o),
(471,406,o),
(470,450,cs),
(471,496,o),
(480,536,o),
(499,536,cs),
(519,540,o),
(529,496,o),
(526,460,cs),
(525,424,o),
(518,391,o),
(496,391,cs)
);
}
);
width = 600;
},
{
layerId = m006;
shapes = (
{
closed = 1;
nodes = (
(186,0,o),
(234,6,o),
(234,27,cs),
(234,34,o),
(207,85,o),
(260,86,cs),
(378,90,o),
(398,53,o),
(411,45,cs),
(463,9,o),
(499,-6,o),
(549,3,cs),
(584,9,o),
(560,34,o),
(527,55,cs),
(493,78,o),
(441,91,o),
(465,99,cs),
(478,103,o),
(451,95,o),
(503,109,cs),
(536,118,o),
(576,139,o),
(577,181,cs),
(578,223,o),
(515,246,o),
(457,257,cs),
(396,268,o),
(240,273,o),
(135,256,cs),
(79,247,o),
(55,237,o),
(42,223,cs),
(20,199,o),
(13,49,o),
(38,26,cs),
(61,5,o),
(111,0,o),
(141,0,cs)
);
},
{
closed = 1;
nodes = (
(216,115,o),
(192,144,o),
(192,180,cs),
(192,216,o),
(263,244,o),
(352,245,cs),
(464,247,o),
(512,216,o),
(512,180,cs),
(512,138,o),
(441,115,o),
(352,115,cs)
);
}
);
width = 600;
}
);
unicode = 82;
},
{
glyphname = S;
lastChange = "2024-04-11 21:45:53 +0000";
layers = (
{
layerId = m01;
shapes = (
{
closed = 1;
nodes = (
(587,35,o),
(599,36,o),
(599,43,cs),
(599,53,o),
(466,66,o),
(306,65,cs),
(109,65,o),
(2,52,o),
(2,40,cs),
(2,27,o),
(181,32,o),
(276,30,cs),
(413,28,o),
(547,23,o),
(547,17,cs),
(547,13,o),
(387,7,o),
(299,7,cs),
(212,7,o),
(118,8,o),
(61,20,cs),
(41,24,o),
(43,29,o),
(26,28,cs),
(2,27,o),
(0,20,o),
(1,16,cs),
(6,0,o),
(129,0,o),
(299,0,cs),
(524,0,o),
(599,11,o),
(599,16,cs),
(599,25,o),
(478,33,o),
(306,35,cs),
(192,36,o),
(45,37,o),
(45,43,cs),
(45,49,o),
(214,58,o),
(301,58,cs),
(368,58,o),
(503,51,o),
(516,48,cs),
(546,42,o),
(563,35,o),
(572,35,cs)
);
}
);
width = 600;
},
{
layerId = m002;
shapes = (
{
closed = 1;
nodes = (
(548,431,o),
(591,445,o),
(578,533,cs),
(567,606,o),
(458,676,o),
(307,674,cs),
(121,672,o),
(24,583,o),
(24,461,cs),
(24,355,o),
(104,299,o),
(193,278,cs),
(366,238,o),
(368,236,o),
(367,217,cs),
(366,205,o),
(342,199,o),
(302,199,cs),
(271,199,o),
(230,204,o),
(215,226,cs),
(195,256,o),
(149,266,o),
(104,266,cs),
(59,266,o),
(17,226,o),
(18,170,cs),
(19,104,o),
(104,3,o),
(300,0,cs),
(513,-3,o),
(566,117,o),
(568,212,cs),
(570,304,o),
(485,401,o),
(323,419,cs),
(260,426,o),
(223,421,o),
(223,455,cs),
(223,476,o),
(268,482,o),
(314,482,cs),
(351,482,o),
(368,479,o),
(390,461,cs),
(415,440,o),
(461,409,o),
(512,422,cs)
);
}
);
width = 600;
},
{
layerId = m003;
shapes = (
{
closed = 1;
nodes = (
(527,375,o),
(544,380,o),
(545,431,cs),
(546,503,o),
(436,557,o),
(306,555,cs),
(146,554,o),
(62,501,o),
(62,401,cs),
(62,314,o),
(204,269,o),
(281,255,cs),
(393,234,o),
(420,199,o),
(420,152,cs),
(420,111,o),
(372,76,o),
(300,76,cs),
(229,76,o),
(199,115,o),
(169,161,cs),
(153,186,o),
(124,217,o),
(88,199,cs),
(54,182,o),
(56,170,o),
(57,140,cs),
(59,86,o),
(162,0,o),
(300,0,cs),
(484,0,o),
(531,107,o),
(530,152,cs),
(529,218,o),
(446,295,o),
(306,312,cs),
(213,322,o),
(169,353,o),
(169,401,cs),
(169,450,o),
(231,479,o),
(302,479,cs),
(357,479,o),
(410,443,o),
(421,415,cs),
(429,394,o),
(460,366,o),
(496,371,cs)
);
}
);
width = 600;
},
{
layerId = m004;
shapes = (
{
closed = 1;
nodes = (
(562,139,o),
(582,141,o),
(583,160,cs),
(585,187,o),
(457,207,o),
(306,206,cs),
(120,206,o),
(23,190,o),
(23,153,cs),
(23,112,o),
(188,102,o),
(277,97,cs),
(407,89,o),
(472,74,o),
(472,56,cs),
(472,42,o),
(383,23,o),
(299,23,cs),
(217,23,o),
(182,43,o),
(147,60,cs),
(128,69,o),
(96,82,o),
(53,74,cs),
(27,70,o),
(16,63,o),
(17,52,cs),
(19,32,o),
(139,0,o),
(299,0,cs),
(513,0,o),
(567,40,o),
(566,56,cs),
(565,81,o),
(468,105,o),
(306,111,cs),
(198,114,o),
(117,131,o),
(117,149,cs),
(117,167,o),
(219,183,o),
(301,183,cs),
(365,183,o),
(427,165,o),
(439,154,cs),
(449,146,o),
(485,136,o),
(526,138,cs)
);
}
);
width = 600;
},
{
layerId = m005;
shapes = (
{
closed = 1;
nodes = (
(550,460,o),
(602,481,o),
(597,577,cs),
(593,661,o),
(556,732,o),
(309,730,cs),
(111,728,o),
(7,700,o),
(7,499,cs),
(7,344,o),
(124,301,o),
(219,276,cs),
(303,254,o),
(337,252,o),
(337,238,cs),
(337,223,o),
(318,217,o),
(301,217,cs),
(268,217,o),
(235,228,o),
(219,245,cs),
(192,274,o),
(139,292,o),
(93,288,cs),
(37,283,o),
(2,245,o),
(1,184,cs),
(0,70,o),
(32,2,o),
(301,0,cs),
(583,-2,o),
(586,98,o),
(586,238,cs),
(586,337,o),
(504,446,o),
(332,465,cs),
(265,473,o),
(250,484,o),
(250,499,cs),
(250,510,o),
(265,516,o),
(303,516,cs),
(343,516,o),
(353,505,o),
(371,491,cs),
(399,469,o),
(445,452,o),
(512,457,cs)
);
}
);
width = 600;
},
{
layerId = m006;
shapes = (
{
closed = 1;
nodes = (
(562,188,o),
(582,190,o),
(583,216,cs),
(585,252,o),
(457,279,o),
(306,278,cs),
(120,277,o),
(23,256,o),
(23,206,cs),
(23,151,o),
(188,135,o),
(277,128,cs),
(407,117,o),
(438,100,o),
(438,76,cs),
(438,56,o),
(383,38,o),
(299,38,cs),
(217,38,o),
(182,58,o),
(147,81,cs),
(128,93,o),
(96,110,o),
(53,100,cs),
(27,94,o),
(16,85,o),
(17,70,cs),
(19,43,o),
(139,0,o),
(299,0,cs),
(513,0,o),
(567,54,o),
(566,76,cs),
(565,109,o),
(468,148,o),
(306,156,cs),
(198,161,o),
(147,177,o),
(147,201,cs),
(147,225,o),
(219,240,o),
(301,240,cs),
(365,240,o),
(427,222,o),
(439,208,cs),
(449,197,o),
(485,183,o),
(526,186,cs)
);
}
);
width = 600;
}
);
unicode = 83;
},
{
glyphname = T;
lastChange = "2024-04-11 23:30:37 +0000";
layers = (
{
layerId = m01;
shapes = (
{
closed = 1;
nodes = (
(539,59,o),
(587,48,o),
(579,44,cs),
(576,42,o),
(565,42,o),
(520,48,cs),
(476,54,o),
(437,56,o),
(391,56,cs),
(331,56,o),
(316,58,o),
(316,31,cs),
(316,9,o),
(343,4,o),
(345,4,cs),
(349,4,o),
(357,3,o),
(358,2,cs),
(359,1,o),
(358,0,o),
(351,0,cs),
(340,0,o),
(277,0,o),
(264,0,cs),
(257,0,o),
(255,1,o),
(256,2,cs),
(257,3,o),
(266,5,o),
(273,5,cs),
(279,5,o),
(302,9,o),
(302,31,cs),
(302,58,o),
(290,56,o),
(227,56,cs),
(182,56,o),
(134,57,o),
(78,48,cs),
(35,41,o),
(25,43,o),
(22,44,cs),
(13,48,o),
(38,59,o),
(78,61,cs),
(176,65,o),
(426,65,o),
(520,60,c)
);
}
);
width = 600;
},
{
layerId = m002;
shapes = (
{
closed = 1;
nodes = (
(547,617,o),
(583,616,o),
(583,512,cs),
(583,410,o),
(571,397,o),
(528,387,cs),
(513,382,o),
(496,383,o),
(482,386,cs),
(448,391,o),
(432,371,o),
(432,342,cs),
(432,331,o),
(432,203,o),
(432,190,cs),
(432,170,o),
(432,141,o),
(432,126,cs),
(432,79,o),
(414,42,o),
(386,22,cs),
(341,-10,o),
(262,-5,o),
(224,22,cs),
(199,40,o),
(179,88,o),
(179,126,cs),
(179,143,o),
(179,152,o),
(179,175,cs),
(179,209,o),
(179,327,o),
(179,342,cs),
(179,373,o),
(160,388,o),
(139,388,cs),
(119,388,o),
(98,375,o),
(72,387,cs),
(18,407,o),
(18,476,o),
(18,512,cs),
(18,579,o),
(35,618,o),
(72,633,cs),
(164,672,o),
(440,673,o),
(529,628,c)
);
}
);
width = 600;
},
{
layerId = m003;
shapes = (
{
closed = 1;
nodes = (
(515,519,o),
(547,505,o),
(547,474,cs),
(547,435,o),
(536,422,o),
(499,418,cs),
(463,414,o),
(420,440,o),
(382,440,cs),
(351,440,o),
(335,405,o),
(335,291,cs),
(335,282,o),
(341,175,o),
(341,164,cs),
(341,148,o),
(343,123,o),
(343,111,cs),
(343,80,o),
(349,37,o),
(337,12,cs),
(330,-2,o),
(286,-3,o),
(277,12,cs),
(263,35,o),
(268,80,o),
(268,111,cs),
(268,123,o),
(270,145,o),
(270,164,cs),
(270,175,o),
(276,278,o),
(276,291,cs),
(276,406,o),
(263,440,o),
(238,440,cs),
(201,440,o),
(148,418,o),
(102,418,cs),
(67,418,o),
(55,435,o),
(55,474,cs),
(55,513,o),
(69,520,o),
(102,532,cs),
(182,565,o),
(422,566,o),
(499,528,c)
);
}
);
width = 600;
},
{
layerId = m004;
shapes = (
{
closed = 1;
nodes = (
(539,197,o),
(579,192,o),
(579,181,cs),
(579,166,o),
(565,165,o),
(520,165,cs),
(476,165,o),
(437,191,o),
(391,191,cs),
(353,191,o),
(325,166,o),
(325,146,cs),
(325,84,o),
(329,45,o),
(330,41,cs),
(331,35,o),
(333,24,o),
(333,21,cs),
(333,19,o),
(333,9,o),
(326,5,cs),
(315,-2,o),
(302,-2,o),
(290,5,cs),
(283,9,o),
(282,19,o),
(282,21,cs),
(282,23,o),
(283,35,o),
(285,41,cs),
(286,45,o),
(291,84,o),
(291,146,cs),
(291,166,o),
(258,191,o),
(227,191,cs),
(182,191,o),
(134,165,o),
(78,165,cs),
(35,165,o),
(22,166,o),
(22,181,cs),
(22,195,o),
(38,197,o),
(78,202,cs),
(176,216,o),
(426,216,o),
(520,200,c)
);
}
);
width = 600;
},
{
layerId = m005;
shapes = (
{
closed = 1;
nodes = (
(559,687,o),
(597,686,o),
(597,571,cs),
(597,457,o),
(578,431,o),
(539,415,cs),
(523,409,o),
(518,419,o),
(503,419,cs),
(477,419,o),
(473,400,o),
(473,372,cs),
(473,359,o),
(473,226,o),
(473,212,cs),
(473,190,o),
(473,122,o),
(473,105,cs),
(473,55,o),
(419,25,o),
(390,15,cs),
(333,-5,o),
(267,-5,o),
(220,15,cs),
(194,26,o),
(138,48,o),
(138,105,cs),
(138,126,o),
(138,170,o),
(138,196,cs),
(138,234,o),
(138,355,o),
(138,372,cs),
(138,402,o),
(123,419,o),
(106,419,cs),
(85,419,o),
(88,404,o),
(61,418,cs),
(4,439,o),
(4,530,o),
(4,571,cs),
(4,645,o),
(22,688,o),
(61,704,cs),
(158,749,o),
(447,750,o),
(540,699,c)
);
}
);
width = 600;
},
{
layerId = m006;
shapes = (
{
closed = 1;
nodes = (
(528,254,o),
(566,247,o),
(566,232,cs),
(566,213,o),
(553,206,o),
(510,204,cs),
(468,202,o),
(416,231,o),
(372,231,cs),
(336,231,o),
(328,209,o),
(328,193,cs),
(328,113,o),
(335,58,o),
(336,53,cs),
(337,45,o),
(340,31,o),
(340,27,cs),
(340,24,o),
(339,13,o),
(332,7,cs),
(322,-2,o),
(291,-3,o),
(280,7,cs),
(273,13,o),
(272,24,o),
(272,27,cs),
(272,30,o),
(273,44,o),
(275,53,cs),
(276,58,o),
(284,113,o),
(284,193,cs),
(284,209,o),
(268,231,o),
(239,231,cs),
(196,231,o),
(141,204,o),
(88,204,cs),
(47,204,o),
(34,213,o),
(34,232,cs),
(34,251,o),
(50,254,o),
(88,260,cs),
(181,277,o),
(420,277,o),
(510,258,c)
);
}
);
width = 600;
}
);
unicode = 84;
},
{
glyphname = U;
lastChange = "2024-04-12 01:38:50 +0000";
layers = (
{
layerId = m01;
shapes = (
{
closed = 1;
nodes = (
(29,59,o),
(62,65,o),
(98,65,cs),
(212,65,o),
(191,58,o),
(176,58,cs),
(154,58,o),
(31,55,o),
(31,36,cs),
(31,15,o),
(120,5,o),
(302,6,cs),
(508,6,o),
(567,19,o),
(567,39,cs),
(567,58,o),
(441,57,o),
(421,57,cs),
(405,57,o),
(389,66,o),
(506,66,cs),
(532,66,o),
(574,60,o),
(584,55,cs),
(617,40,o),
(597,21,o),
(556,12,cs),
(497,1,o),
(356,0,o),
(302,0,cs),
(253,0,o),
(114,1,o),
(44,12,cs),
(-15,22,o),
(-3,44,o),
(16,53,cs)
);
}
);
width = 600;
},
{
layerId = m002;
shapes = (
{
closed = 1;
nodes = (
(44,595,o),
(69,645,o),
(138,642,cs),
(172,641,o),
(232,616,o),
(232,559,cs),
(232,531,o),
(234,480,o),
(234,453,cs),
(234,423,o),
(232,320,o),
(302,320,cs),
(372,320,o),
(372,423,o),
(372,456,cs),
(372,480,o),
(372,531,o),
(372,562,cs),
(372,611,o),
(422,645,o),
(458,648,cs),
(532,654,o),
(555,616,o),
(565,578,cs),
(609,409,o),
(589,208,o),
(548,126,cs),
(478,-16,o),
(355,0,o),
(302,0,cs),
(254,0,o),
(138,-18,o),
(52,126,cs),
(-6,221,o),
(3,409,o),
(38,569,cs)
);
}
);
width = 600;
},
{
layerId = m003;
shapes = (
{
closed = 1;
nodes = (
(96,509,o),
(116,550,o),
(157,549,cs),
(184,548,o),
(224,527,o),
(224,478,cs),
(224,428,o),
(140,438,o),
(140,277,cs),
(140,221,o),
(162,71,o),
(302,74,cs),
(461,77,o),
(460,205,o),
(460,279,cs),
(460,438,o),
(379,428,o),
(379,480,cs),
(379,523,o),
(413,554,o),
(442,554,cs),
(481,554,o),
(503,527,o),
(511,493,cs),
(547,349,o),
(530,177,o),
(498,107,cs),
(453,9,o),
(344,0,o),
(302,0,cs),
(264,0,o),
(157,9,o),
(103,107,cs),
(58,188,o),
(64,349,o),
(92,486,cs)
);
}
);
width = 600;
},
{
layerId = m004;
shapes = (
{
closed = 1;
nodes = (
(61,192,o),
(70,208,o),
(118,207,cs),
(149,207,o),
(155,194,o),
(144,181,cs),
(132,166,o),
(93,166,o),
(93,105,cs),
(93,83,o),
(138,15,o),
(302,16,cs),
(488,17,o),
(507,77,o),
(507,106,cs),
(507,166,o),
(479,168,o),
(461,181,cs),
(446,192,o),
(453,209,o),
(486,209,cs),
(532,209,o),
(537,199,o),
(546,187,cs),
(588,132,o),
(568,67,o),
(531,40,cs),
(478,4,o),
(351,0,o),
(302,0,cs),
(258,0,o),
(133,4,o),
(70,40,cs),
(17,71,o),
(24,132,o),
(57,184,cs)
);
}
);
width = 600;
},
{
layerId = m005;
shapes = (
{
closed = 1;
nodes = (
(37,681,o),
(69,734,o),
(158,734,cs),
(209,734,o),
(268,704,o),
(268,639,cs),
(268,627,o),
(268,618,o),
(268,607,cs),
(268,594,o),
(267,556,o),
(300,556,cs),
(341,556,o),
(338,594,o),
(338,604,cs),
(338,618,o),
(338,627,o),
(338,642,cs),
(338,699,o),
(376,742,o),
(450,742,cs),
(516,742,o),
(561,704,o),
(571,661,cs),
(617,467,o),
(603,195,o),
(561,100,cs),
(513,-8,o),
(356,-1,o),
(302,-1,cs),
(252,-1,o),
(104,-8,o),
(46,100,cs),
(-13,211,o),
(-6,467,o),
(32,650,cs)
);
}
);
width = 600;
},
{
layerId = m006;
shapes = (
{
closed = 1;
nodes = (
(61,256,o),
(85,277,o),
(133,276,cs),
(164,276,o),
(211,265,o),
(211,241,cs),
(211,216,o),
(113,221,o),
(113,140,cs),
(113,111,o),
(138,40,o),
(302,42,cs),
(488,43,o),
(486,103,o),
(486,141,cs),
(486,221,o),
(392,216,o),
(392,242,cs),
(392,263,o),
(432,279,o),
(465,279,cs),
(511,279,o),
(537,265,o),
(546,249,cs),
(588,176,o),
(568,89,o),
(531,54,cs),
(478,5,o),
(351,0,o),
(302,0,cs),
(258,0,o),
(133,5,o),
(70,54,cs),
(17,95,o),
(24,176,o),
(57,245,cs)
);
}
);
width = 600;
}
);
unicode = 85;
},
{
glyphname = V;
lastChange = "2024-04-12 01:42:49 +0000";
layers = (
{
layerId = m01;
shapes = (
{
closed = 1;
nodes = (
(-2,63,o),
(24,65,o),
(81,65,cs),
(118,65,o),
(135,63,o),
(114,58,cs),
(100,55,o),
(78,53,o),
(81,48,cs),
(103,18,o),
(219,5,o),
(301,5,cs),
(406,5,o),
(504,18,o),
(523,48,cs),
(525,52,o),
(486,56,o),
(480,58,cs),
(467,63,o),
(492,66,o),
(530,66,cs),
(583,66,o),
(605,62,o),
(597,59,cs),
(566,41,o),
(541,33,o),
(499,22,cs),
(436,6,o),
(356,0,o),
(301,0,cs),
(251,0,o),
(176,5,o),
(100,22,cs),
(51,34,o),
(22,42,o),
(3,58,cs)
);
}
);
width = 600;
},
{
layerId = m002;
shapes = (
{
closed = 1;
nodes = (
(17,595,o),
(49,645,o),
(118,642,cs),
(152,641,o),
(201,616,o),
(212,559,cs),
(217,531,o),
(225,480,o),
(233,453,cs),
(242,424,o),
(267,320,o),
(301,320,cs),
(330,320,o),
(351,423,o),
(362,456,cs),
(370,480,o),
(382,531,o),
(390,562,cs),
(402,611,o),
(440,645,o),
(476,648,cs),
(550,654,o),
(586,617,o),
(583,578,cs),
(570,409,o),
(530,285,o),
(493,194,cs),
(430,39,o),
(354,0,o),
(301,0,cs),
(253,0,o),
(187,38,o),
(107,191,cs),
(59,283,o),
(21,414,o),
(18,569,cs)
);
}
);
width = 600;
},
{
layerId = m003;
shapes = (
{
closed = 1;
nodes = (
(57,517,o),
(74,558,o),
(121,558,cs),
(151,558,o),
(179,557,o),
(161,517,cs),
(150,492,o),
(137,480,o),
(146,433,cs),
(193,186,o),
(234,74,o),
(301,74,cs),
(388,74,o),
(404,180,o),
(452,433,cs),
(461,480,o),
(447,489,o),
(440,518,cs),
(430,561,o),
(458,563,o),
(489,563,cs),
(533,563,o),
(547,537,o),
(544,502,cs),
(533,355,o),
(498,247,o),
(466,168,cs),
(412,33,o),
(347,0,o),
(301,0,cs),
(260,0,o),
(203,32,o),
(134,165,cs),
(93,245,o),
(60,360,o),
(57,495,cs)
);
}
);
width = 600;
},
{
layerId = m004;
shapes = (
{
closed = 1;
nodes = (
(16,201,o),
(40,208,o),
(94,208,cs),
(129,208,o),
(145,201,o),
(125,186,cs),
(112,176,o),
(97,168,o),
(100,154,cs),
(120,59,o),
(224,16,o),
(301,16,cs),
(400,16,o),
(474,59,o),
(491,154,cs),
(493,165,o),
(476,178,o),
(470,186,cs),
(458,202,o),
(481,209,o),
(517,209,cs),
(567,209,o),
(587,199,o),
(580,187,cs),
(551,132,o),
(527,107,o),
(488,72,cs),
(429,19,o),
(353,0,o),
(301,0,cs),
(254,0,o),
(183,16,o),
(112,72,cs),
(65,109,o),
(38,133,o),
(21,184,cs)
);
}
);
width = 600;
},
{
layerId = m005;
shapes = (
{
closed = 1;
nodes = (
(1,700,o),
(34,734,o),
(107,734,cs),
(191,734,o),
(233,717,o),
(245,690,cs),
(248,682,o),
(251,647,o),
(254,638,cs),
(257,628,o),
(278,557,o),
(303,557,cs),
(327,557,o),
(342,627,o),
(348,642,cs),
(352,652,o),
(352,677,o),
(359,690,cs),
(374,717,o),
(410,741,o),
(486,741,cs),
(587,741,o),
(602,706,o),
(599,661,cs),
(585,468,o),
(546,326,o),
(507,222,cs),
(440,45,o),
(374,0,o),
(300,0,cs),
(213,0,o),
(159,43,o),
(92,218,cs),
(50,328,o),
(1,473,o),
(1,651,cs)
);
}
);
width = 600;
},
{
layerId = m006;
shapes = (
{
closed = 1;
nodes = (
(15,268,o),
(40,277,o),
(94,277,cs),
(129,277,o),
(145,268,o),
(125,248,cs),
(112,235,o),
(106,226,o),
(112,215,cs),
(173,111,o),
(224,42,o),
(301,42,c),
(401,42,o),
(418,111,o),
(481,215,cs),
(486,224,o),
(477,238,o),
(471,248,cs),
(457,270,o),
(481,279,o),
(517,279,cs),
(567,279,o),
(586,266,o),
(580,249,cs),
(552,176,o),
(527,143,o),
(488,96,cs),
(429,26,o),
(354,0,o),
(301,0,cs),
(254,0,o),
(183,21,o),
(112,96,cs),
(65,146,o),
(39,178,o),
(21,245,cs)
);
}
);
width = 600;
}
);
unicode = 86;
},
{
glyphname = W;
lastChange = "2024-04-12 14:05:10 +0000";
layers = (
{
layerId = m01;
shapes = (
{
closed = 1;
nodes = (
(205,42,o),
(111,51,o),
(82,51,cs),
(67,51,o),
(30,42,o),
(30,29,cs),
(30,17,o),
(50,-2,o),
(180,-2,cs),
(303,-2,o),
(297,22,o),
(345,22,cs),
(395,22,o),
(386,-4,o),
(518,-4,cs),
(674,-4,o),
(693,22,o),
(657,42,cs),
(629,57,o),
(478,41,o),
(478,56,cs),
(478,83,o),
(653,63,o),
(669,55,cs),
(706,36,o),
(710,18,o),
(646,1,cs),
(616,-7,o),
(563,-10,o),
(528,-10,cs),
(486,-10,o),
(425,-9,o),
(404,-4,cs),
(397,-4,o),
(384,0,o),
(376,3,cs),
(368,4,o),
(366,8,o),
(345,8,cs),
(322,8,o),
(321,4,o),
(315,1,cs),
(305,-1,o),
(285,-4,o),
(273,-4,cs),
(219,-10,o),
(154,-10,o),
(107,-6,cs),
(67,-4,o),
(43,1,o),
(21,10,cs),
(-4,20,o),
(-2,44,o),
(38,60,cs),
(54,66,o),
(205,80,o),
(205,58,cs)
);
}
);
width = 700;
},
{
layerId = m002;
shapes = (
{
closed = 1;
nodes = (
(225,662,o),
(256,637,o),
(261,612,cs),
(266,588,o),
(271,543,o),
(255,492,cs),
(240,437,o),
(224,308,o),
(255,304,cs),
(303,298,o),
(296,383,o),
(345,385,cs),
(403,387,o),
(386,293,o),
(443,302,cs),
(461,305,o),
(456,442,o),
(449,529,cs),
(443,597,o),
(426,666,o),
(562,668,cs),
(630,669,o),
(659,629,o),
(678,572,cs),
(698,512,o),
(687,175,o),
(655,103,cs),
(625,35,o),
(571,4,o),
(537,4,cs),
(494,4,o),
(441,14,o),
(420,50,cs),
(408,69,o),
(402,78,o),
(394,99,cs),
(386,120,o),
(380,135,o),
(349,135,cs),
(323,135,o),
(316,117,o),
(306,99,cs),
(294,75,o),
(277,60,o),
(265,50,cs),
(211,-1,o),
(140,5,o),
(92,35,cs),
(52,60,o),
(38,98,o),
(21,170,cs),
(3,244,o),
(18,562,o),
(35,613,cs),
(52,665,o),
(113,668,o),
(152,666,cs)
);
}
);
width = 700;
},
{
layerId = m003;
shapes = (
{
closed = 1;
nodes = (
(191,556,o),
(176,468,o),
(169,448,cs),
(156,409,o),
(137,361,o),
(125,293,cs),
(110,209,o),
(106,82,o),
(196,82,cs),
(310,82,o),
(301,193,o),
(345,193,cs),
(400,193,o),
(381,91,o),
(504,86,cs),
(598,82,o),
(607,224,o),
(571,353,cs),
(542,457,o),
(476,547,o),
(538,567,cs),
(586,582,o),
(630,532,o),
(645,467,cs),
(679,321,o),
(683,200,o),
(624,74,cs),
(596,15,o),
(536,3,o),
(504,3,cs),
(465,3,o),
(419,16,o),
(400,36,cs),
(393,44,o),
(381,65,o),
(374,83,cs),
(367,101,o),
(365,121,o),
(345,121,cs),
(325,121,o),
(327,98,o),
(318,82,cs),
(307,62,o),
(290,45,o),
(279,36,cs),
(229,-8,o),
(169,-3,o),
(125,24,cs),
(88,45,o),
(67,79,o),
(46,144,cs),
(23,217,o),
(25,388,o),
(62,500,cs),
(77,545,o),
(119,581,o),
(154,569,cs)
);
}
);
width = 700;
},
{
layerId = m004;
shapes = (
{
closed = 1;
nodes = (
(147,190,o),
(129,178,o),
(103,163,cs),
(88,154,o),
(67,129,o),
(67,95,cs),
(67,59,o),
(73,11,o),
(193,11,cs),
(307,11,o),
(301,85,o),
(345,85,cs),
(392,85,o),
(383,9,o),
(506,9,cs),
(650,9,o),
(650,78,o),
(620,129,cs),
(594,173,o),
(526,173,o),
(542,196,cs),
(561,223,o),
(630,191,o),
(645,166,cs),
(679,111,o),
(683,64,o),
(624,17,cs),
(596,-6,o),
(547,-13,o),
(515,-13,cs),
(476,-13,o),
(419,-8,o),
(400,3,cs),
(394,6,o),
(381,14,o),
(374,20,cs),
(367,27,o),
(365,34,o),
(345,34,cs),
(325,34,o),
(328,28,o),
(318,19,cs),
(307,10,o),
(290,6,o),
(279,3,cs),
(229,-15,o),
(169,-13,o),
(125,-3,cs),
(88,6,o),
(67,19,o),
(46,43,cs),
(23,72,o),
(25,137,o),
(62,179,cs),
(77,196,o),
(121,217,o),
(138,199,cs)
);
}
);
width = 700;
},
{
layerId = m005;
shapes = (
{
closed = 1;
nodes = (
(222,741,o),
(279,723,o),
(284,695,cs),
(289,668,o),
(285,664,o),
(282,650,cs),
(279,638,o),
(280,623,o),
(296,621,cs),
(326,618,o),
(315,644,o),
(352,645,cs),
(399,646,o),
(380,615,o),
(415,621,cs),
(434,624,o),
(430,640,o),
(429,647,cs),
(426,666,o),
(394,748,o),
(566,748,cs),
(635,748,o),
(664,704,o),
(684,640,cs),
(704,573,o),
(693,196,o),
(660,115,cs),
(630,39,o),
(575,5,o),
(540,5,cs),
(496,5,o),
(445,18,o),
(421,56,cs),
(416,64,o),
(411,70,o),
(404,79,cs),
(390,97,o),
(380,118,o),
(348,118,cs),
(322,118,o),
(308,98,o),
(292,82,cs),
(283,73,o),
(269,62,o),
(263,56,cs),
(207,0,o),
(135,6,o),
(86,39,cs),
(46,67,o),
(33,106,o),
(15,190,cs),
(-3,272,o),
(6,622,o),
(32,685,cs),
(55,741,o),
(108,748,o),
(148,746,cs)
);
}
);
width = 700;
},
{
layerId = m006;
shapes = (
{
closed = 1;
nodes = (
(191,268,o),
(160,224,o),
(153,215,cs),
(140,196,o),
(119,172,o),
(107,139,cs),
(92,97,o),
(73,28,o),
(193,28,cs),
(307,28,o),
(301,111,o),
(345,111,cs),
(392,111,o),
(381,28,o),
(504,28,cs),
(648,28,o),
(612,110,o),
(593,171,cs),
(578,218,o),
(499,263,o),
(538,273,cs),
(584,287,o),
(630,256,o),
(645,224,cs),
(679,153,o),
(683,93,o),
(624,32,cs),
(596,2,o),
(547,-7,o),
(515,-7,cs),
(476,-7,o),
(419,-1,o),
(400,13,cs),
(394,17,o),
(381,27,o),
(374,36,cs),
(367,45,o),
(365,55,o),
(345,55,cs),
(331,55,o),
(321,42,o),
(315,36,cs),
(305,25,o),
(290,17,o),
(279,13,cs),
(229,-9,o),
(169,-7,o),
(125,6,cs),
(88,17,o),
(67,34,o),
(46,65,cs),
(23,102,o),
(25,186,o),
(62,241,cs),
(77,263,o),
(119,280,o),
(154,275,cs)
);
}
);
width = 700;
}
);
unicode = 87;
},
{
glyphname = X;
lastChange = "2024-04-12 03:28:46 +0000";
layers = (
{
layerId = m01;
shapes = (
{
closed = 1;
nodes = (
(-4,53,o),
(-8,58,o),
(33,61,cs),
(59,62,o),
(84,59,o),
(120,54,cs),
(167,48,o),
(219,40,o),
(235,38,cs),
(272,35,o),
(318,30,o),
(373,40,cs),
(390,42,o),
(427,49,o),
(469,54,cs),
(499,58,o),
(531,66,o),
(578,63,cs),
(610,61,o),
(598,57,o),
(568,54,cs),
(530,49,o),
(432,38,o),
(380,33,cs),
(363,32,o),
(364,30,o),
(377,29,cs),
(404,25,o),
(523,15,o),
(554,12,cs),
(597,8,o),
(618,0,o),
(578,0,cs),
(548,0,o),
(508,2,o),
(477,6,cs),
(447,10,o),
(395,16,o),
(367,20,cs),
(323,28,o),
(284,28,o),
(240,20,cs),
(212,16,o),
(175,11,o),
(138,6,cs),
(115,3,o),
(49,0,o),
(10,0,cs),
(-4,0,o),
(-4,5,o),
(33,9,cs),
(68,13,o),
(202,25,o),
(232,29,cs),
(243,30,o),
(242,33,o),
(232,34,cs),
(183,38,o),
(72,46,o),
(13,52,cs)
);
}
);
width = 600;
},
{
layerId = m002;
shapes = (
{
closed = 1;
nodes = (
(5,555,o),
(14,617,o),
(62,649,cs),
(94,670,o),
(153,683,o),
(185,650,cs),
(225,608,o),
(244,584,o),
(277,530,cs),
(296,499,o),
(304,506,o),
(319,530,cs),
(349,578,o),
(371,606,o),
(405,644,cs),
(434,677,o),
(491,686,o),
(538,660,cs),
(587,633,o),
(598,583,o),
(584,540,cs),
(568,490,o),
(500,394,o),
(477,370,cs),
(445,336,o),
(447,328,o),
(475,289,cs),
(497,259,o),
(537,200,o),
(558,165,cs),
(585,120,o),
(598,61,o),
(539,20,cs),
(481,-21,o),
(435,8,o),
(394,41,cs),
(363,66,o),
(340,90,o),
(314,129,cs),
(302,147,o),
(289,138,o),
(283,129,cs),
(258,91,o),
(238,71,o),
(207,41,cs),
(182,17,o),
(109,-28,o),
(50,24,cs),
(3,65,o),
(6,112,o),
(29,155,cs),
(53,200,o),
(95,252,o),
(122,289,cs),
(150,326,o),
(150,338,o),
(120,370,cs),
(84,408,o),
(41,458,o),
(15,528,cs)
);
}
);
width = 600;
},
{
layerId = m003;
shapes = (
{
closed = 1;
nodes = (
(72,494,o),
(59,526,o),
(99,553,cs),
(126,572,o),
(144,555,o),
(171,526,cs),
(204,491,o),
(238,434,o),
(253,384,cs),
(281,288,o),
(306,289,o),
(339,384,cs),
(355,430,o),
(382,480,o),
(411,512,cs),
(435,539,o),
(461,586,o),
(501,563,cs),
(542,540,o),
(536,506,o),
(515,475,cs),
(487,433,o),
(398,337,o),
(379,316,cs),
(352,288,o),
(353,280,o),
(376,248,cs),
(395,222,o),
(458,160,o),
(480,133,cs),
(511,95,o),
(533,37,o),
(502,18,cs),
(448,-15,o),
(420,22,o),
(398,57,cs),
(376,92,o),
(352,141,o),
(336,178,cs),
(305,248,o),
(278,248,o),
(247,178,cs),
(231,143,o),
(219,89,o),
(193,53,cs),
(175,28,o),
(125,-15,o),
(89,21,cs),
(60,50,o),
(73,80,o),
(99,116,cs),
(125,152,o),
(189,216,o),
(212,248,cs),
(236,279,o),
(236,289,o),
(210,316,cs),
(179,349,o),
(116,412,o),
(84,471,cs)
);
}
);
width = 600;
},
{
layerId = m004;
shapes = (
{
closed = 1;
nodes = (
(23,186,o),
(19,203,o),
(56,212,cs),
(80,218,o),
(103,206,o),
(136,189,cs),
(179,168,o),
(227,142,o),
(241,136,cs),
(274,123,o),
(317,108,o),
(367,141,cs),
(383,151,o),
(416,170,o),
(454,189,cs),
(482,203,o),
(511,228,o),
(554,220,cs),
(584,214,o),
(572,200,o),
(545,187,cs),
(510,171,o),
(421,134,o),
(373,117,cs),
(358,112,o),
(359,108,o),
(370,102,cs),
(395,88,o),
(504,57,o),
(532,47,cs),
(571,32,o),
(590,8,o),
(554,1,cs),
(527,-4,o),
(490,11,o),
(462,23,cs),
(434,38,o),
(387,60,o),
(362,75,cs),
(321,100,o),
(286,100,o),
(246,75,cs),
(220,59,o),
(186,41,o),
(152,23,cs),
(131,12,o),
(79,-8,o),
(43,4,cs),
(31,8,o),
(31,21,o),
(64,35,cs),
(97,49,o),
(210,89,o),
(238,102,cs),
(249,107,o),
(248,117,o),
(238,120,cs),
(193,134,o),
(92,160,o),
(38,180,cs)
);
}
);
width = 600;
},
{
layerId = m005;
shapes = (
{
closed = 1;
nodes = (
(-4,599,o),
(-10,711,o),
(62,739,cs),
(101,755,o),
(148,743,o),
(187,715,cs),
(199,706,o),
(214,692,o),
(247,664,cs),
(286,629,o),
(304,635,o),
(343,664,cs),
(372,684,o),
(381,692,o),
(399,708,cs),
(437,739,o),
(468,758,o),
(533,741,cs),
(616,719,o),
(600,609,o),
(591,562,cs),
(581,505,o),
(557,448,o),
(530,414,cs),
(513,393,o),
(509,357,o),
(527,327,cs),
(541,305,o),
(551,275,o),
(566,237,cs),
(586,186,o),
(617,44,o),
(546,14,cs),
(464,-21,o),
(421,18,o),
(380,52,cs),
(362,67,o),
(338,85,o),
(317,97,cs),
(305,104,o),
(294,102,o),
(286,97,cs),
(263,83,o),
(243,62,o),
(230,47,cs),
(197,11,o),
(112,-16,o),
(50,14,cs),
(-21,47,o),
(10,176,o),
(28,226,cs),
(46,275,o),
(56,295,o),
(74,327,cs),
(93,359,o),
(82,395,o),
(72,414,cs),
(56,448,o),
(40,474,o),
(13,549,cs)
);
}
);
width = 600;
},
{
layerId = m006;
shapes = (
{
closed = 1;
nodes = (
(30,250,o),
(15,267,o),
(62,281,cs),
(94,291,o),
(110,277,o),
(142,262,cs),
(181,244,o),
(233,202,o),
(244,188,cs),
(279,145,o),
(300,145,o),
(346,188,cs),
(361,202,o),
(393,224,o),
(427,251,cs),
(451,270,o),
(490,297,o),
(538,285,cs),
(586,274,o),
(579,257,o),
(554,240,cs),
(521,219,o),
(392,170,o),
(369,160,cs),
(337,145,o),
(339,141,o),
(366,124,cs),
(388,111,o),
(487,79,o),
(513,66,cs),
(549,46,o),
(575,16,o),
(539,7,cs),
(475,-10,o),
(449,13,o),
(423,30,cs),
(397,49,o),
(361,82,o),
(342,102,cs),
(306,137,o),
(274,137,o),
(237,102,cs),
(218,83,o),
(188,48,o),
(157,30,cs),
(136,17,o),
(93,-10,o),
(50,9,cs),
(16,23,o),
(32,38,o),
(62,57,cs),
(93,76,o),
(186,108,o),
(213,124,cs),
(241,140,o),
(241,145,o),
(211,160,cs),
(174,176,o),
(82,208,o),
(45,239,cs)
);
}
);
width = 600;
}
);
unicode = 88;
},
{
glyphname = Y;
lastChange = "2024-04-12 13:37:32 +0000";
layers = (
{
layerId = m01;
shapes = (
{
closed = 1;
nodes = (
(235,33,o),
(280,29,o),
(280,18,cs),
(280,5,o),
(211,7,o),
(211,3,cs),
(211,-1,o),
(258,0,o),
(286,0,cs),
(314,0,o),
(355,-1,o),
(355,3,cs),
(355,7,o),
(294,5,o),
(294,18,cs),
(294,29,o),
(336,33,o),
(418,39,cs),
(459,42,o),
(516,48,o),
(560,52,cs),
(594,55,o),
(623,58,o),
(570,62,cs),
(533,64,o),
(491,59,o),
(464,56,cs),
(413,48,o),
(352,37,o),
(330,34,cs),
(291,27,o),
(267,31,o),
(248,34,cs),
(223,37,o),
(155,50,o),
(122,56,cs),
(99,58,o),
(68,64,o),
(37,63,cs),
(-26,59,o),
(7,54,o),
(33,52,cs),
(79,47,o),
(119,42,o),
(158,39,cs)
);
}
);
width = 600;
},
{
layerId = m002;
shapes = (
{
closed = 1;
nodes = (
(190,270,o),
(183,236,o),
(183,202,cs),
(183,142,o),
(183,114,o),
(183,80,cs),
(183,37,o),
(234,0,o),
(299,0,cs),
(364,0,o),
(399,37,o),
(399,76,cs),
(399,120,o),
(401,142,o),
(401,208,cs),
(401,236,o),
(392,266,o),
(415,290,cs),
(449,325,o),
(524,424,o),
(555,477,cs),
(584,528,o),
(605,588,o),
(546,648,cs),
(525,669,o),
(475,677,o),
(444,648,cs),
(399,604,o),
(373,569,o),
(348,531,cs),
(321,489,o),
(269,495,o),
(251,530,cs),
(229,572,o),
(194,617,o),
(164,647,cs),
(134,676,o),
(97,670,o),
(70,656,cs),
(-4,619,o),
(17,532,o),
(37,491,cs),
(66,430,o),
(139,324,o),
(172,290,cs)
);
}
);
width = 600;
},
{
layerId = m003;
shapes = (
{
closed = 1;
nodes = (
(254,254,o),
(258,241,o),
(258,194,cs),
(258,144,o),
(246,80,o),
(246,52,cs),
(246,22,o),
(261,0,o),
(300,0,cs),
(324,0,o),
(341,22,o),
(341,48,cs),
(341,85,o),
(330,144,o),
(330,198,cs),
(330,241,o),
(331,254,o),
(393,309,cs),
(424,336,o),
(473,394,o),
(501,435,cs),
(527,473,o),
(548,521,o),
(509,546,cs),
(480,565,o),
(446,536,o),
(424,509,cs),
(386,462,o),
(343,377,o),
(326,343,cs),
(297,284,o),
(279,313,o),
(264,341,cs),
(245,377,o),
(201,475,o),
(176,520,cs),
(159,550,o),
(128,564,o),
(105,553,cs),
(56,527,o),
(84,480,o),
(101,444,cs),
(126,392,o),
(167,337,o),
(196,309,cs)
);
}
);
width = 600;
},
{
layerId = m004;
shapes = (
{
closed = 1;
nodes = (
(246,109,o),
(264,99,o),
(264,81,cs),
(264,61,o),
(250,32,o),
(250,20,cs),
(250,8,o),
(267,0,o),
(292,0,cs),
(317,0,o),
(327,8,o),
(327,19,cs),
(327,33,o),
(314,61,o),
(314,82,cs),
(314,99,o),
(336,109,o),
(408,131,cs),
(444,141,o),
(494,158,o),
(533,171,cs),
(563,181,o),
(588,205,o),
(542,215,cs),
(509,222,o),
(472,207,o),
(449,194,cs),
(404,168,o),
(350,129,o),
(330,116,cs),
(296,93,o),
(275,104,o),
(258,115,cs),
(236,129,o),
(176,176,o),
(147,194,cs),
(127,206,o),
(100,222,o),
(73,218,cs),
(17,207,o),
(46,183,o),
(69,174,cs),
(109,158,o),
(145,141,o),
(179,131,cs)
);
}
);
width = 600;
},
{
layerId = m005;
shapes = (
{
closed = 1;
nodes = (
(162,245,o),
(155,206,o),
(155,181,cs),
(155,162,o),
(155,128,o),
(155,89,cs),
(155,19,o),
(220,0,o),
(291,0,cs),
(369,0,o),
(430,19,o),
(430,85,cs),
(430,134,o),
(432,162,o),
(432,187,cs),
(432,206,o),
(424,239,o),
(445,266,cs),
(478,305,o),
(530,389,o),
(560,448,cs),
(587,505,o),
(633,698,o),
(541,740,cs),
(495,761,o),
(437,745,o),
(414,723,cs),
(384,695,o),
(358,661,o),
(343,638,cs),
(329,617,o),
(281,618,o),
(269,638,cs),
(254,662,o),
(242,693,o),
(211,723,cs),
(183,751,o),
(110,761,o),
(63,740,cs),
(-26,700,o),
(6,518,o),
(25,471,cs),
(53,403,o),
(113,304,o),
(144,266,cs)
);
}
);
width = 600;
},
{
layerId = m006;
shapes = (
{
closed = 1;
nodes = (
(246,134,o),
(253,129,o),
(253,105,cs),
(253,79,o),
(239,42,o),
(239,27,cs),
(239,11,o),
(272,0,o),
(300,0,cs),
(322,0,o),
(345,11,o),
(345,25,cs),
(345,44,o),
(332,79,o),
(332,107,cs),
(332,129,o),
(336,134,o),
(408,164,cs),
(444,177,o),
(500,203,o),
(533,224,cs),
(563,244,o),
(588,268,o),
(542,281,cs),
(509,291,o),
(469,276,o),
(444,262,cs),
(399,238,o),
(350,194,o),
(330,176,cs),
(296,146,o),
(275,161,o),
(258,175,cs),
(236,194,o),
(185,245,o),
(156,268,cs),
(136,283,o),
(100,291,o),
(73,284,cs),
(17,271,o),
(49,247,o),
(69,228,cs),
(98,202,o),
(145,177,o),
(179,164,cs)
);
}
);
width = 600;
}
);
unicode = 89;
},
{
glyphname = Z;
lastChange = "2024-04-12 13:38:02 +0000";
layers = (
{
layerId = m01;
shapes = (
{
closed = 1;
nodes = (
(596,20,o),
(585,5,o),
(548,2,cs),
(486,-1,o),
(140,0,o),
(76,1,cs),
(22,2,o),
(12,9,o),
(5,22,cs),
(2,28,o),
(8,37,o),
(26,29,cs),
(80,6,o),
(286,30,o),
(320,32,cs),
(437,40,o),
(547,42,o),
(546,51,cs),
(545,59,o),
(286,60,o),
(199,58,cs),
(164,58,o),
(106,50,o),
(79,48,cs),
(58,47,o),
(13,31,o),
(3,36,cs),
(-4,39,o),
(9,58,o),
(74,60,cs),
(223,65,o),
(469,63,o),
(521,61,cs),
(560,60,o),
(596,54,o),
(596,48,cs),
(596,36,o),
(571,37,o),
(531,33,cs),
(504,31,o),
(408,32,o),
(383,30,cs),
(341,27,o),
(105,17,o),
(93,11,cs),
(74,3,o),
(349,3,o),
(441,5,cs),
(481,7,o),
(521,11,o),
(560,17,cs),
(587,21,o),
(596,40,o),
(596,24,cs)
);
},
{
closed = 1;
nodes = (
(138,32,o),
(146,33,o),
(164,34,cs),
(180,34,o),
(426,34,o),
(435,34,cs),
(457,34,o),
(461,32,o),
(461,30,cs),
(461,28,o),
(447,27,o),
(428,27,cs),
(410,26,o),
(180,27,o),
(165,27,cs),
(158,27,o),
(138,28,o),
(138,30,cs)
);
}
);
width = 600;
},
{
layerId = m002;
shapes = (
{
closed = 1;
nodes = (
(584,86,o),
(573,54,o),
(537,30,cs),
(477,-10,o),
(143,-7,o),
(82,18,cs),
(42,33,o),
(27,48,o),
(27,117,cs),
(27,164,o),
(29,204,o),
(48,229,cs),
(66,254,o),
(163,311,o),
(195,341,cs),
(212,357,o),
(281,427,o),
(281,460,cs),
(281,479,o),
(196,473,o),
(183,473,cs),
(173,473,o),
(88,473,o),
(82,473,cs),
(41,473,o),
(17,494,o),
(17,549,cs),
(17,593,o),
(17,634,o),
(78,653,cs),
(225,700,o),
(461,682,o),
(512,666,cs),
(548,655,o),
(585,647,o),
(584,572,cs),
(582,498,o),
(555,487,o),
(521,442,cs),
(499,414,o),
(466,379,o),
(448,354,cs),
(426,324,o),
(364,240,o),
(364,229,cs),
(364,205,o),
(445,212,o),
(458,212,cs),
(497,212,o),
(513,216,o),
(548,207,cs),
(577,200,o),
(582,174,o),
(584,135,cs)
);
},
{
closed = 1;
nodes = (
(115,382,o),
(130,406,o),
(152,416,cs),
(174,425,o),
(503,418,o),
(514,417,cs),
(543,414,o),
(551,390,o),
(551,354,cs),
(551,312,o),
(529,294,o),
(505,288,cs),
(482,282,o),
(172,288,o),
(154,290,cs),
(141,291,o),
(115,298,o),
(115,348,cs)
);
}
);
width = 600;
},
{
layerId = m003;
shapes = (
{
closed = 1;
nodes = (
(541,47,o),
(532,44,o),
(502,25,cs),
(451,-7,o),
(169,-5,o),
(117,16,cs),
(83,27,o),
(71,44,o),
(71,83,cs),
(71,107,o),
(84,125,o),
(100,145,cs),
(115,165,o),
(287,268,o),
(316,288,cs),
(412,357,o),
(460,405,o),
(451,463,cs),
(445,500,o),
(287,500,o),
(217,482,cs),
(189,475,o),
(139,451,o),
(117,444,cs),
(82,434,o),
(70,448,o),
(62,468,cs),
(53,490,o),
(62,515,o),
(114,531,cs),
(237,570,o),
(437,555,o),
(480,542,cs),
(511,533,o),
(541,527,o),
(541,465,cs),
(541,431,o),
(521,417,o),
(488,385,cs),
(465,363,o),
(388,299,o),
(368,284,cs),
(332,259,o),
(171,154,o),
(162,107,cs),
(147,28,o),
(343,61,o),
(419,89,cs),
(451,101,o),
(481,133,o),
(511,126,cs),
(535,120,o),
(541,102,o),
(541,87,cs)
);
},
{
closed = 1;
nodes = (
(148,282,o),
(155,296,o),
(175,300,cs),
(190,303,o),
(436,301,o),
(445,300,cs),
(467,299,o),
(472,287,o),
(472,268,cs),
(472,247,o),
(456,242,o),
(438,239,cs),
(421,236,o),
(190,239,o),
(176,240,cs),
(167,240,o),
(148,249,o),
(148,265,cs)
);
}
);
width = 600;
},
{
layerId = m004;
shapes = (
{
closed = 1;
nodes = (
(574,19,o),
(563,16,o),
(529,8,cs),
(472,-3,o),
(152,-1,o),
(92,5,cs),
(49,9,o),
(36,16,o),
(36,30,cs),
(36,38,o),
(51,45,o),
(68,52,cs),
(86,59,o),
(286,97,o),
(318,104,cs),
(427,129,o),
(514,154,o),
(504,175,cs),
(497,189,o),
(286,193,o),
(206,186,cs),
(174,184,o),
(120,161,o),
(95,154,cs),
(76,149,o),
(39,154,o),
(30,169,cs),
(24,179,o),
(30,186,o),
(90,192,cs),
(229,206,o),
(456,201,o),
(504,196,cs),
(540,193,o),
(574,190,o),
(574,168,cs),
(574,156,o),
(551,151,o),
(513,139,cs),
(488,131,o),
(400,108,o),
(377,103,cs),
(337,94,o),
(119,55,o),
(108,38,cs),
(90,10,o),
(345,10,o),
(430,19,cs),
(467,24,o),
(504,46,o),
(540,49,cs),
(566,51,o),
(574,37,o),
(574,31,cs)
);
},
{
closed = 1;
nodes = (
(150,102,o),
(157,107,o),
(174,108,cs),
(188,109,o),
(416,109,o),
(425,108,cs),
(445,108,o),
(449,103,o),
(449,97,cs),
(449,89,o),
(435,87,o),
(418,86,cs),
(402,85,o),
(188,86,o),
(175,86,cs),
(168,86,o),
(150,90,o),
(150,96,cs)
);
}
);
width = 600;
},
{
layerId = m005;
shapes = (
{
closed = 1;
nodes = (
(583,96,o),
(572,61,o),
(536,34,cs),
(476,-10,o),
(118,3,o),
(56,30,cs),
(16,47,o),
(1,63,o),
(1,139,cs),
(1,191,o),
(3,236,o),
(22,264,cs),
(40,291,o),
(72,352,o),
(96,398,cs),
(108,420,o),
(132,449,o),
(132,484,cs),
(132,506,o),
(114,500,o),
(101,500,cs),
(91,500,o),
(72,500,o),
(66,500,cs),
(25,500,o),
(1,546,o),
(1,606,cs),
(1,655,o),
(1,699,o),
(62,721,cs),
(209,773,o),
(460,752,o),
(511,736,cs),
(547,723,o),
(598,715,o),
(597,631,cs),
(595,550,o),
(591,496,o),
(568,446,cs),
(553,413,o),
(545,396,o),
(530,367,cs),
(512,332,o),
(486,276,o),
(486,265,cs),
(486,238,o),
(497,246,o),
(510,246,cs),
(520,246,o),
(528,246,o),
(547,241,cs),
(576,233,o),
(581,193,o),
(583,150,cs)
);
},
{
closed = 1;
nodes = (
(1,422,o),
(21,456,o),
(52,466,cs),
(81,476,o),
(532,468,o),
(548,467,cs),
(600,463,o),
(598,415,o),
(599,376,cs),
(600,300,o),
(568,290,o),
(535,283,cs),
(504,277,o),
(79,278,o),
(54,281,cs),
(37,282,o),
(1,314,o),
(1,369,cs)
);
}
);
width = 600;
},
{
layerId = m006;
shapes = (
{
closed = 1;
nodes = (
(574,23,o),
(563,22,o),
(529,12,cs),
(472,-3,o),
(152,-2,o),
(92,8,cs),
(54,13,o),
(41,22,o),
(41,41,cs),
(41,52,o),
(56,61,o),
(73,70,cs),
(91,80,o),
(286,130,o),
(318,140,cs),
(427,173,o),
(482,196,o),
(472,224,cs),
(465,242,o),
(286,242,o),
(206,233,cs),
(174,230,o),
(117,218,o),
(92,215,cs),
(52,210,o),
(39,217,o),
(30,227,cs),
(21,237,o),
(30,249,o),
(90,257,cs),
(229,276,o),
(456,269,o),
(504,262,cs),
(540,258,o),
(574,255,o),
(574,225,cs),
(574,209,o),
(551,202,o),
(513,187,cs),
(488,176,o),
(400,145,o),
(377,138,cs),
(337,126,o),
(155,75,o),
(144,52,cs),
(126,14,o),
(350,30,o),
(435,43,cs),
(472,49,o),
(505,65,o),
(540,61,cs),
(566,58,o),
(574,50,o),
(574,42,cs)
);
},
{
closed = 1;
nodes = (
(128,137,o),
(136,144,o),
(158,145,cs),
(175,147,o),
(455,146,o),
(465,145,cs),
(490,145,o),
(495,139,o),
(495,130,cs),
(495,120,o),
(478,117,o),
(457,116,cs),
(437,114,o),
(175,116,o),
(159,116,cs),
(150,116,o),
(128,121,o),
(128,129,cs)
);
}
);
width = 600;
}
);
unicode = 90;
},
{
glyphname = zero;
lastChange = "2024-04-12 04:45:05 +0000";
layers = (
{
layerId = m01;
shapes = (
{
closed = 1;
nodes = (
(508,0,o),
(600,1,o),
(600,32,cs),
(600,64,o),
(457,66,o),
(300,66,cs),
(137,66,o),
(0,67,o),
(0,32,cs),
(0,2,o),
(68,0,o),
(300,0,cs)
);
},
{
closed = 1;
nodes = (
(119,12,o),
(24,15,o),
(24,33,cs),
(24,51,o),
(117,56,o),
(301,56,cs),
(485,56,o),
(574,48,o),
(574,32,cs),
(574,15,o),
(428,12,o),
(278,12,cs)
);
}
);
width = 600;
},
{
layerId = m002;
shapes = (
{
closed = 1;
nodes = (
(491,0,o),
(574,103,o),
(574,336,cs),
(574,542,o),
(498,672,o),
(300,672,cs),
(88,672,o),
(26,546,o),
(26,336,cs),
(26,125,o),
(88,0,o),
(300,0,cs)
);
},
{
closed = 1;
nodes = (
(277,248,o),
(254,269,o),
(253,319,cs),
(253,375,o),
(268,426,o),
(302,426,cs),
(336,427,o),
(355,377,o),
(349,330,cs),
(343,286,o),
(322,248,o),
(298,246,cs)
);
}
);
width = 600;
},
{
layerId = m003;
shapes = (
{
closed = 1;
nodes = (
(471,0,o),
(545,112,o),
(545,280,cs),
(545,425,o),
(429,561,o),
(301,561,cs),
(168,561,o),
(55,444,o),
(55,280,cs),
(55,125,o),
(111,0,o),
(301,0,cs)
);
},
{
closed = 1;
nodes = (
(180,84,o),
(130,154,o),
(126,265,cs),
(126,389,o),
(178,473,o),
(299,473,cs),
(420,475,o),
(468,366,o),
(468,263,cs),
(468,167,o),
(383,74,o),
(284,79,cs)
);
}
);
width = 600;
},
{
layerId = m004;
shapes = (
{
closed = 1;
nodes = (
(498,0,o),
(585,42,o),
(585,104,cs),
(585,158,o),
(449,209,o),
(300,209,cs),
(145,209,o),
(14,166,o),
(14,104,cs),
(14,46,o),
(79,0,o),
(300,0,cs)
);
},
{
closed = 1;
nodes = (
(128,41,o),
(57,66,o),
(50,105,cs),
(50,149,o),
(126,178,o),
(301,178,cs),
(476,179,o),
(546,140,o),
(546,104,cs),
(546,70,o),
(422,38,o),
(279,39,cs)
);
}
);
width = 600;
},
{
layerId = m005;
shapes = (
{
closed = 1;
nodes = (
(550,0,o),
(580,34,o),
(580,368,cs),
(580,681,o),
(557,736,o),
(301,736,cs),
(37,736,o),
(21,681,o),
(21,368,cs),
(21,51,o),
(36,0,o),
(301,0,cs)
);
},
{
closed = 1;
nodes = (
(286,309,o),
(273,323,o),
(272,351,cs),
(272,385,o),
(281,414,o),
(304,414,cs),
(326,416,o),
(339,387,o),
(335,359,cs),
(331,333,o),
(317,309,o),
(301,308,cs)
);
}
);
width = 600;
},
{
layerId = m006;
shapes = (
{
closed = 1;
nodes = (
(499,0,o),
(586,56,o),
(586,139,cs),
(586,211,o),
(450,279,o),
(301,279,cs),
(146,279,o),
(15,221,o),
(15,139,cs),
(15,62,o),
(80,0,o),
(301,0,cs)
);
},
{
closed = 1;
nodes = (
(160,42,o),
(102,77,o),
(97,132,cs),
(97,193,o),
(158,235,o),
(299,235,cs),
(440,236,o),
(496,182,o),
(496,131,cs),
(496,83,o),
(397,37,o),
(281,39,cs)
);
}
);
width = 600;
}
);
unicode = 48;
},
{
glyphname = one;
lastChange = "2024-04-12 06:45:39 +0000";
layers = (
{
layerId = m01;
shapes = (
{
closed = 1;
nodes = (
(80,52,o),
(146,58,o),
(179,61,cs),
(197,63,o),
(301,66,o),
(326,66,cs),
(343,66,o),
(575,71,o),
(574,34,cs),
(573,-3,o),
(348,13,o),
(348,5,cs),
(348,0,o),
(403,0,o),
(451,0,cs),
(487,0,o),
(529,4,o),
(541,6,cs),
(572,11,o),
(594,15,o),
(594,36,cs),
(594,46,o),
(578,59,o),
(521,66,cs),
(434,76,o),
(303,75,o),
(183,69,cs),
(146,67,o),
(112,63,o),
(92,58,cs),
(66,52,o),
(53,47,o),
(28,37,cs),
(4,27,o),
(8,13,o),
(47,34,cs)
);
}
);
width = 600;
},
{
layerId = m002;
shapes = (
{
closed = 1;
nodes = (
(172,382,o),
(218,396,o),
(249,427,cs),
(252,430,o),
(257,435,o),
(268,448,cs),
(273,454,o),
(285,458,o),
(285,444,cs),
(285,395,o),
(278,114,o),
(278,76,cs),
(278,17,o),
(349,0,o),
(380,0,cs),
(411,0,o),
(488,13,o),
(488,81,cs),
(488,149,o),
(489,548,o),
(489,578,cs),
(489,632,o),
(436,662,o),
(404,667,cs),
(374,672,o),
(293,670,o),
(268,665,cs),
(226,656,o),
(208,641,o),
(171,601,cs),
(158,587,o),
(127,560,o),
(108,523,cs),
(95,497,o),
(86,444,o),
(136,408,cs)
);
}
);
width = 600;
},
{
layerId = m003;
shapes = (
{
closed = 1;
nodes = (
(214,348,o),
(244,352,o),
(265,373,cs),
(272,380,o),
(305,426,o),
(316,437,cs),
(321,442,o),
(335,459,o),
(363,446,cs),
(412,423,o),
(324,95,o),
(324,63,cs),
(324,14,o),
(340,0,o),
(371,0,cs),
(402,0,o),
(426,10,o),
(426,67,cs),
(426,124,o),
(425,457,o),
(427,482,cs),
(429,502,o),
(422,540,o),
(402,551,cs),
(372,568,o),
(307,568,o),
(267,537,cs),
(254,527,o),
(215,493,o),
(200,474,cs),
(187,458,o),
(181,452,o),
(172,437,cs),
(163,423,o),
(161,388,o),
(187,368,cs)
);
}
);
width = 600;
},
{
layerId = m004;
shapes = (
{
closed = 1;
nodes = (
(197,144,o),
(247,150,o),
(268,160,cs),
(281,167,o),
(299,175,o),
(316,182,cs),
(327,187,o),
(356,193,o),
(410,188,cs),
(503,179,o),
(330,34,o),
(330,22,cs),
(330,4,o),
(387,0,o),
(418,0,cs),
(478,0,o),
(488,7,o),
(488,24,cs),
(488,45,o),
(486,168,o),
(490,177,cs),
(494,184,o),
(480,199,o),
(443,202,cs),
(386,209,o),
(301,204,o),
(223,197,cs),
(211,196,o),
(176,190,o),
(163,188,cs),
(153,186,o),
(136,183,o),
(120,177,cs),
(103,172,o),
(107,156,o),
(145,151,cs)
);
}
);
width = 600;
},
{
layerId = m005;
shapes = (
{
closed = 1;
nodes = (
(165,390,o),
(188,394,o),
(222,428,cs),
(225,431,o),
(225,432,o),
(231,432,cs),
(237,432,o),
(236,413,o),
(236,398,cs),
(236,343,o),
(229,126,o),
(229,84,cs),
(229,0,o),
(363,0,o),
(397,0,cs),
(431,0,o),
(515,0,o),
(515,90,cs),
(515,166,o),
(516,607,o),
(516,641,cs),
(516,700,o),
(488,734,o),
(423,740,cs),
(390,743,o),
(302,741,o),
(275,737,cs),
(232,730,o),
(201,732,o),
(160,687,cs),
(146,672,o),
(119,633,o),
(93,593,cs),
(56,536,o),
(43,483,o),
(108,433,cs)
);
}
);
width = 600;
},
{
layerId = m006;
shapes = (
{
closed = 1;
nodes = (
(177,170,o),
(221,172,o),
(252,183,cs),
(263,186,o),
(313,209,o),
(329,214,cs),
(337,217,o),
(358,225,o),
(400,219,cs),
(473,207,o),
(341,46,o),
(341,30,cs),
(341,6,o),
(386,0,o),
(411,0,cs),
(458,0,o),
(494,10,o),
(494,32,cs),
(494,60,o),
(493,224,o),
(495,236,cs),
(498,246,o),
(488,265,o),
(458,270,cs),
(413,279,o),
(315,279,o),
(256,263,cs),
(236,258,o),
(178,242,o),
(156,232,cs),
(136,224,o),
(127,222,o),
(114,214,cs),
(100,207,o),
(98,190,o),
(136,180,cs)
);
}
);
width = 600;
}
);
unicode = 49;
},
{
glyphname = two;
lastChange = "2024-04-12 06:52:08 +0000";
layers = (
{
layerId = m01;
shapes = (
{
closed = 1;
nodes = (
(81,41,o),
(107,51,o),
(121,53,cs),
(144,55,o),
(185,62,o),
(320,62,cs),
(408,62,o),
(531,58,o),
(531,50,cs),
(531,40,o),
(202,30,o),
(85,30,cs),
(32,30,o),
(2,25,o),
(2,17,cs),
(2,7,o),
(16,4,o),
(39,2,cs),
(59,0,o),
(104,0,o),
(159,0,cs),
(198,0,o),
(484,-2,o),
(523,2,cs),
(563,6,o),
(602,13,o),
(598,22,cs),
(592,34,o),
(568,22,o),
(523,17,cs),
(492,14,o),
(399,11,o),
(358,10,cs),
(293,9,o),
(25,7,o),
(26,17,cs),
(27,29,o),
(296,27,o),
(358,30,cs),
(429,34,o),
(600,37,o),
(600,48,cs),
(600,58,o),
(471,66,o),
(329,66,cs),
(138,66,o),
(35,57,o),
(13,53,cs),
(-12,48,o),
(2,41,o),
(51,41,cs)
);
}
);
width = 600;
},
{
layerId = m002;
shapes = (
{
closed = 1;
nodes = (
(196,422,o),
(243,440,o),
(251,475,cs),
(257,500,o),
(275,503,o),
(289,503,cs),
(322,503,o),
(330,480,o),
(330,463,cs),
(330,419,o),
(210,357,o),
(163,303,cs),
(108,240,o),
(97,122,o),
(105,80,cs),
(108,66,o),
(110,46,o),
(127,24,cs),
(142,4,o),
(174,1,o),
(203,1,cs),
(232,1,o),
(440,-2,o),
(468,6,cs),
(495,14,o),
(521,38,o),
(523,84,cs),
(527,158,o),
(504,202,o),
(468,202,cs),
(446,202,o),
(431,203,o),
(401,203,cs),
(371,203,o),
(352,208,o),
(362,227,cs),
(382,264,o),
(395,267,o),
(440,298,cs),
(491,333,o),
(518,403,o),
(516,475,cs),
(512,602,o),
(445,681,o),
(328,681,cs),
(156,681,o),
(101,593,o),
(84,547,cs),
(67,501,o),
(86,432,o),
(141,427,cs)
);
}
);
width = 600;
},
{
layerId = m003;
shapes = (
{
closed = 1;
nodes = (
(179,351,o),
(176,383,o),
(185,412,cs),
(192,432,o),
(211,508,o),
(316,508,cs),
(385,508,o),
(432,467,o),
(432,405,cs),
(432,314,o),
(194,231,o),
(146,194,cs),
(105,162,o),
(87,131,o),
(87,67,cs),
(87,55,o),
(92,38,o),
(110,20,cs),
(126,3,o),
(160,1,o),
(191,1,cs),
(222,1,o),
(443,0,o),
(474,5,cs),
(502,12,o),
(528,12,o),
(532,50,cs),
(536,93,o),
(512,96,o),
(474,96,cs),
(450,96,o),
(378,91,o),
(346,87,cs),
(295,81,o),
(191,67,o),
(189,113,cs),
(187,148,o),
(298,233,o),
(346,258,cs),
(401,287,o),
(527,330,o),
(524,412,cs),
(521,484,o),
(434,561,o),
(324,561,cs),
(175,561,o),
(95,487,o),
(78,450,cs),
(59,412,o),
(65,351,o),
(125,351,cs)
);
}
);
width = 600;
},
{
layerId = m004;
shapes = (
{
closed = 1;
nodes = (
(97,131,o),
(121,163,o),
(135,168,cs),
(156,175,o),
(193,196,o),
(319,196,cs),
(401,196,o),
(503,183,o),
(503,160,cs),
(503,127,o),
(159,86,o),
(101,72,cs),
(52,61,o),
(31,56,o),
(31,32,cs),
(31,21,o),
(37,12,o),
(58,6,cs),
(77,-1,o),
(118,0,o),
(169,0,cs),
(206,0,o),
(471,0,o),
(508,2,cs),
(541,5,o),
(572,5,o),
(577,19,cs),
(582,35,o),
(553,36,o),
(508,36,cs),
(479,36,o),
(393,34,o),
(355,32,cs),
(294,30,o),
(99,25,o),
(97,42,cs),
(93,77,o),
(297,87,o),
(355,96,cs),
(420,107,o),
(571,122,o),
(568,153,cs),
(564,180,o),
(460,208,o),
(328,208,cs),
(150,208,o),
(54,180,o),
(34,167,cs),
(11,153,o),
(24,131,o),
(69,131,cs)
);
}
);
width = 600;
},
{
layerId = m005;
shapes = (
{
closed = 1;
nodes = (
(275,417,o),
(247,472,o),
(258,512,cs),
(262,526,o),
(275,528,o),
(285,528,cs),
(300,528,o),
(310,523,o),
(310,508,cs),
(310,459,o),
(190,410,o),
(139,350,cs),
(80,281,o),
(64,272,o),
(73,88,cs),
(74,71,o),
(78,50,o),
(96,25,cs),
(113,3,o),
(161,0,o),
(193,0,cs),
(224,0,o),
(448,-3,o),
(479,6,cs),
(508,14,o),
(536,41,o),
(538,92,cs),
(542,173,o),
(517,239,o),
(479,241,cs),
(459,242,o),
(457,242,o),
(446,242,cs),
(439,242,o),
(417,243,o),
(430,264,cs),
(450,296,o),
(470,301,o),
(489,323,cs),
(512,350,o),
(526,365,o),
(530,521,cs),
(535,715,o),
(483,744,o),
(327,747,cs),
(88,752,o),
(63,680,o),
(63,594,cs),
(63,540,o),
(52,417,o),
(149,417,cs)
);
}
);
width = 600;
},
{
layerId = m006;
shapes = (
{
closed = 1;
nodes = (
(155,174,o),
(151,189,o),
(162,204,cs),
(170,213,o),
(193,251,o),
(319,251,cs),
(401,251,o),
(458,230,o),
(458,200,cs),
(458,155,o),
(159,114,o),
(101,95,cs),
(52,80,o),
(31,74,o),
(31,43,cs),
(31,27,o),
(37,16,o),
(58,7,cs),
(77,-2,o),
(118,0,o),
(169,0,cs),
(206,0,o),
(471,0,o),
(508,2,cs),
(541,6,o),
(572,6,o),
(577,25,cs),
(582,46,o),
(553,48,o),
(508,48,cs),
(479,48,o),
(393,45,o),
(355,43,cs),
(294,40,o),
(169,33,o),
(167,56,cs),
(164,73,o),
(297,115,o),
(355,127,cs),
(420,142,o),
(571,163,o),
(568,204,cs),
(564,239,o),
(460,277,o),
(328,277,cs),
(150,277,o),
(54,240,o),
(34,222,cs),
(11,204,o),
(18,174,o),
(90,174,cs)
);
}
);
width = 600;
}
);
unicode = 50;
},
{
glyphname = three;
lastChange = "2024-04-12 07:27:42 +0000";
layers = (
{
layerId = m01;
shapes = (
{
closed = 1;
nodes = (
(526,10,o),
(400,4,o),
(325,4,cs),
(232,4,o),
(131,9,o),
(119,16,cs),
(113,20,o),
(135,24,o),
(89,24,cs),
(36,24,o),
(11,19,o),
(32,12,cs),
(53,6,o),
(148,0,o),
(319,0,cs),
(473,0,o),
(582,8,o),
(582,17,cs),
(582,33,o),
(461,32,o),
(433,32,cs),
(421,32,o),
(421,33,o),
(433,33,cs),
(455,33,o),
(582,30,o),
(582,48,cs),
(582,58,o),
(468,66,o),
(320,66,cs),
(148,66,o),
(55,57,o),
(32,53,cs),
(11,48,o),
(13,42,o),
(83,41,cs),
(153,41,o),
(109,46,o),
(119,50,cs),
(141,59,o),
(232,61,o),
(321,61,cs),
(447,61,o),
(526,53,o),
(526,46,cs),
(526,33,o),
(452,37,o),
(421,36,cs),
(398,35,o),
(386,34,o),
(386,32,cs),
(386,30,o),
(402,30,o),
(421,29,cs),
(441,28,o),
(526,30,o),
(526,17,cs)
);
}
);
width = 600;
},
{
layerId = m002;
shapes = (
{
closed = 1;
nodes = (
(333,202,o),
(325,178,o),
(292,178,cs),
(278,178,o),
(260,181,o),
(254,206,cs),
(246,241,o),
(199,259,o),
(144,254,cs),
(89,249,o),
(70,180,o),
(87,134,cs),
(104,88,o),
(159,0,o),
(331,0,cs),
(448,0,o),
(513,79,o),
(519,206,cs),
(522,275,o),
(487,305,o),
(466,318,cs),
(446,331,o),
(445,343,o),
(471,354,cs),
(488,361,o),
(521,385,o),
(519,475,cs),
(516,602,o),
(448,681,o),
(331,681,cs),
(159,681,o),
(104,593,o),
(87,547,cs),
(70,501,o),
(89,432,o),
(144,427,cs),
(199,422,o),
(246,440,o),
(254,475,cs),
(260,500,o),
(278,503,o),
(292,503,cs),
(325,503,o),
(333,480,o),
(333,463,cs),
(333,446,o),
(330,412,o),
(305,398,cs),
(278,383,o),
(267,364,o),
(267,343,cs),
(267,312,o),
(290,300,o),
(305,286,cs),
(318,274,o),
(333,256,o),
(333,218,cs)
);
}
);
width = 600;
},
{
layerId = m003;
shapes = (
{
closed = 1;
nodes = (
(453,89,o),
(382,55,o),
(320,55,cs),
(243,55,o),
(180,80,o),
(170,144,cs),
(165,174,o),
(163,210,o),
(125,210,cs),
(82,210,o),
(61,165,o),
(78,111,cs),
(96,58,o),
(174,1,o),
(315,1,cs),
(442,1,o),
(532,74,o),
(532,150,cs),
(532,287,o),
(432,278,o),
(409,278,cs),
(399,278,o),
(399,287,o),
(409,287,cs),
(427,287,o),
(532,263,o),
(532,418,cs),
(532,494,o),
(438,562,o),
(316,562,cs),
(174,562,o),
(97,490,o),
(78,452,cs),
(61,414,o),
(63,357,o),
(120,353,cs),
(178,349,o),
(162,400,o),
(170,430,cs),
(188,502,o),
(243,508,o),
(317,508,cs),
(421,508,o),
(453,454,o),
(453,399,cs),
(453,285,o),
(319,319,o),
(294,309,cs),
(275,301,o),
(265,295,o),
(265,280,cs),
(265,265,o),
(278,258,o),
(294,252,cs),
(310,246,o),
(453,256,o),
(453,150,cs)
);
}
);
width = 600;
},
{
layerId = m004;
shapes = (
{
closed = 1;
nodes = (
(526,33,o),
(400,14,o),
(325,14,cs),
(232,14,o),
(131,29,o),
(119,53,cs),
(113,64,o),
(135,78,o),
(89,78,cs),
(36,78,o),
(11,61,o),
(32,41,cs),
(53,21,o),
(148,0,o),
(319,0,cs),
(473,0,o),
(582,27,o),
(582,55,cs),
(582,106,o),
(461,103,o),
(433,103,cs),
(421,103,o),
(421,106,o),
(433,106,cs),
(455,106,o),
(582,97,o),
(582,155,cs),
(582,184,o),
(468,209,o),
(320,209,cs),
(148,209,o),
(55,182,o),
(32,168,cs),
(11,154,o),
(13,133,o),
(83,131,cs),
(153,130,o),
(109,148,o),
(119,160,cs),
(141,187,o),
(232,195,o),
(321,195,cs),
(447,195,o),
(526,169,o),
(526,148,cs),
(526,106,o),
(324,118,o),
(293,115,cs),
(270,112,o),
(258,109,o),
(258,104,cs),
(258,98,o),
(274,96,o),
(293,94,cs),
(313,91,o),
(526,95,o),
(526,55,cs)
);
}
);
width = 600;
},
{
layerId = m005;
shapes = (
{
closed = 1;
nodes = (
(329,263,o),
(318,253,o),
(301,253,cs),
(285,253,o),
(275,261,o),
(275,274,cs),
(275,315,o),
(265,331,o),
(168,331,cs),
(57,331,o),
(49,219,o),
(57,147,cs),
(73,20,o),
(139,0,o),
(333,0,cs),
(465,0,o),
(539,33,o),
(546,227,cs),
(549,303,o),
(510,336,o),
(486,350,cs),
(463,365,o),
(462,378,o),
(492,390,cs),
(511,398,o),
(548,425,o),
(546,524,cs),
(543,664,o),
(518,752,o),
(333,752,cs),
(139,752,o),
(73,715,o),
(57,604,cs),
(49,532,o),
(64,417,o),
(168,417,cs),
(266,417,o),
(275,464,o),
(277,489,cs),
(278,500,o),
(285,511,o),
(301,511,cs),
(330,511,o),
(330,503,o),
(330,485,cs),
(330,473,o),
(313,468,o),
(294,447,cs),
(272,423,o),
(261,409,o),
(261,386,cs),
(261,352,o),
(287,331,o),
(303,316,cs),
(318,302,o),
(329,304,o),
(329,273,cs)
);
}
);
width = 600;
},
{
layerId = m006;
shapes = (
{
closed = 1;
nodes = (
(486,44,o),
(400,27,o),
(325,27,cs),
(232,27,o),
(155,39,o),
(143,71,cs),
(137,86,o),
(135,104,o),
(89,104,cs),
(36,104,o),
(11,82,o),
(32,55,cs),
(53,28,o),
(148,0,o),
(319,0,cs),
(473,0,o),
(582,36,o),
(582,74,cs),
(582,142,o),
(461,138,o),
(433,138,cs),
(421,138,o),
(421,142,o),
(433,142,cs),
(455,142,o),
(582,130,o),
(582,207,cs),
(582,245,o),
(468,279,o),
(320,279,cs),
(148,279,o),
(55,243,o),
(32,224,cs),
(11,205,o),
(13,177,o),
(83,175,cs),
(153,173,o),
(133,198,o),
(143,213,cs),
(165,249,o),
(232,252,o),
(321,252,cs),
(447,252,o),
(486,225,o),
(486,198,cs),
(486,141,o),
(324,158,o),
(293,153,cs),
(270,149,o),
(258,146,o),
(258,139,cs),
(258,131,o),
(274,128,o),
(293,125,cs),
(313,122,o),
(486,127,o),
(486,74,cs)
);
}
);
width = 600;
}
);
unicode = 51;
},
{
glyphname = four;
lastChange = "2024-04-12 09:37:21 +0000";
layers = (
{
layerId = m01;
shapes = (
{
closed = 1;
nodes = (
(434,0,o),
(503,3,o),
(506,3,cs),
(514,4,o),
(529,5,o),
(536,6,cs),
(543,7,o),
(564,10,o),
(574,12,cs),
(586,14,o),
(597,18,o),
(597,28,cs),
(597,34,o),
(582,41,o),
(571,45,cs),
(562,48,o),
(541,52,o),
(536,53,cs),
(529,54,o),
(513,57,o),
(503,59,cs),
(497,60,o),
(461,63,o),
(374,66,cs),
(345,67,o),
(259,66,o),
(201,62,cs),
(133,57,o),
(62,52,o),
(21,42,cs),
(-9,35,o),
(6,18,o),
(19,14,cs),
(35,9,o),
(99,0,o),
(135,0,cs),
(170,0,o),
(190,0,o),
(231,0,cs),
(255,1,o),
(288,0,o),
(298,0,cs),
(306,0,o),
(339,0,o),
(360,0,cs),
(364,0,o),
(399,0,o),
(420,0,cs)
);
},
{
closed = 1;
nodes = (
(153,12,o),
(38,9,o),
(38,31,cs),
(38,48,o),
(237,59,o),
(303,59,cs),
(377,59,o),
(564,49,o),
(564,32,cs),
(564,21,o),
(473,12,o),
(298,12,cs)
);
}
);
width = 600;
},
{
layerId = m002;
shapes = (
{
closed = 1;
nodes = (
(461,0,o),
(507,19,o),
(507,63,cs),
(507,82,o),
(508,85,o),
(508,117,cs),
(508,150,o),
(513,153,o),
(529,153,cs),
(554,153,o),
(556,196,o),
(556,237,cs),
(556,259,o),
(553,284,o),
(531,284,cs),
(518,284,o),
(509,301,o),
(509,318,cs),
(509,362,o),
(511,566,o),
(508,614,cs),
(505,662,o),
(453,678,o),
(368,678,cs),
(342,678,o),
(275,683,o),
(226,639,cs),
(169,588,o),
(82,374,o),
(62,313,cs),
(50,277,o),
(34,231,o),
(56,192,cs),
(74,160,o),
(109,147,o),
(139,147,cs),
(206,147,o),
(274,148,o),
(309,153,cs),
(329,156,o),
(345,144,o),
(345,114,cs),
(345,92,o),
(345,64,o),
(345,48,cs),
(345,14,o),
(393,4,o),
(427,2,cs)
);
},
{
closed = 1;
nodes = (
(280,298,o),
(257,319,o),
(256,369,cs),
(256,425,o),
(271,476,o),
(305,476,cs),
(339,477,o),
(358,427,o),
(352,380,cs),
(346,336,o),
(325,298,o),
(301,296,cs)
);
}
);
width = 600;
},
{
layerId = m003;
shapes = (
{
closed = 1;
nodes = (
(475,-2,o),
(486,16,o),
(486,52,cs),
(486,67,o),
(487,97,o),
(487,123,cs),
(487,150,o),
(482,157,o),
(499,157,cs),
(525,157,o),
(567,149,o),
(567,193,cs),
(567,234,o),
(539,234,o),
(501,234,cs),
(487,234,o),
(488,248,o),
(488,262,cs),
(488,298,o),
(490,465,o),
(487,504,cs),
(484,544,o),
(459,557,o),
(371,557,cs),
(344,557,o),
(296,561,o),
(245,525,cs),
(185,483,o),
(85,336,o),
(64,286,cs),
(52,257,o),
(33,221,o),
(56,189,cs),
(75,162,o),
(100,152,o),
(132,152,cs),
(202,152,o),
(308,153,o),
(344,157,cs),
(365,159,o),
(382,145,o),
(382,121,cs),
(382,103,o),
(382,53,o),
(382,39,cs),
(382,11,o),
(404,1,o),
(440,0,cs)
);
},
{
closed = 1;
nodes = (
(144,222,o),
(108,261,o),
(163,355,cs),
(226,463,o),
(272,500,o),
(329,500,cs),
(404,500,o),
(392,413,o),
(382,310,cs),
(374,228,o),
(347,222,o),
(248,222,cs)
);
}
);
width = 600;
},
{
layerId = m004;
shapes = (
{
closed = 1;
nodes = (
(483,0,o),
(488,6,o),
(488,21,cs),
(488,26,o),
(489,39,o),
(489,49,cs),
(489,60,o),
(483,63,o),
(501,63,cs),
(566,63,o),
(572,59,o),
(572,77,cs),
(572,95,o),
(557,95,o),
(503,95,cs),
(489,95,o),
(490,100,o),
(490,106,cs),
(490,121,o),
(492,187,o),
(489,203,cs),
(485,220,o),
(459,225,o),
(368,225,cs),
(339,225,o),
(289,226,o),
(236,211,cs),
(174,194,o),
(69,135,o),
(48,116,cs),
(35,103,o),
(15,89,o),
(39,76,cs),
(59,65,o),
(85,61,o),
(118,61,cs),
(191,61,o),
(315,62,o),
(352,63,cs),
(374,64,o),
(401,59,o),
(401,49,cs),
(401,41,o),
(401,21,o),
(401,15,cs),
(401,3,o),
(427,0,o),
(447,0,cs)
);
},
{
closed = 1;
nodes = (
(106,89,o),
(51,95,o),
(126,137,cs),
(194,175,o),
(264,201,o),
(324,201,cs),
(408,201,o),
(412,194,o),
(401,125,cs),
(396,92,o),
(343,89,o),
(239,89,cs)
);
}
);
width = 600;
},
{
layerId = m005;
shapes = (
{
closed = 1;
nodes = (
(469,0,o),
(507,20,o),
(507,69,cs),
(507,90,o),
(507,89,o),
(507,106,c),
(507,105,o),
(512,116,o),
(528,116,cs),
(553,116,o),
(555,144,o),
(556,250,cs),
(557,316,o),
(553,332,o),
(531,332,cs),
(518,332,o),
(509,339,o),
(509,358,cs),
(509,406,o),
(511,623,o),
(508,676,cs),
(505,728,o),
(453,746,o),
(368,746,cs),
(342,746,o),
(182,753,o),
(137,700,cs),
(72,623,o),
(61,418,o),
(53,344,cs),
(49,303,o),
(33,206,o),
(55,163,cs),
(73,128,o),
(108,113,o),
(138,113,cs),
(205,113,o),
(216,116,o),
(251,116,cs),
(271,116,o),
(287,105,o),
(287,89,cs),
(287,81,o),
(288,70,o),
(288,52,cs),
(288,15,o),
(355,0,o),
(409,0,cs)
);
},
{
closed = 1;
nodes = (
(223,343,o),
(210,357,o),
(209,385,cs),
(209,419,o),
(218,448,o),
(241,448,cs),
(263,450,o),
(276,421,o),
(272,393,cs),
(268,367,o),
(254,343,o),
(238,342,cs)
);
}
);
width = 600;
},
{
layerId = m006;
shapes = (
{
closed = 1;
nodes = (
(476,0,o),
(488,9,o),
(488,29,cs),
(488,36,o),
(489,52,o),
(489,66,cs),
(489,80,o),
(483,84,o),
(501,84,cs),
(559,84,o),
(572,80,o),
(572,103,cs),
(572,125,o),
(556,125,o),
(503,125,cs),
(489,125,o),
(490,132,o),
(490,139,cs),
(490,159,o),
(492,246,o),
(489,267,cs),
(485,289,o),
(459,295,o),
(368,295,cs),
(339,295,o),
(289,297,o),
(236,277,cs),
(174,255,o),
(69,178,o),
(48,153,cs),
(35,136,o),
(15,118,o),
(39,101,cs),
(59,86,o),
(85,81,o),
(118,81,cs),
(191,81,o),
(302,82,o),
(339,84,cs),
(361,85,o),
(379,78,o),
(379,65,cs),
(379,55,o),
(379,29,o),
(379,21,cs),
(379,6,o),
(402,1,o),
(440,1,cs)
);
},
{
closed = 1;
nodes = (
(131,118,o),
(93,138,o),
(151,188,cs),
(216,245,o),
(264,265,o),
(324,265,cs),
(402,265,o),
(390,219,o),
(379,165,cs),
(371,122,o),
(343,118,o),
(239,118,cs)
);
}
);
width = 600;
}
);
unicode = 52;
},
{
glyphname = five;
lastChange = "2024-04-12 10:41:29 +0000";
layers = (
{
layerId = m01;
shapes = (
{
closed = 1;
nodes = (
(-16,23,o),
(-2,17,o),
(23,13,cs),
(46,8,o),
(87,0,o),
(328,0,cs),
(492,0,o),
(599,12,o),
(599,21,cs),
(599,29,o),
(548,32,o),
(476,35,cs),
(373,38,o),
(37,33,o),
(37,48,cs),
(37,55,o),
(160,57,o),
(224,57,cs),
(266,57,o),
(494,63,o),
(524,57,cs),
(589,45,o),
(600,52,o),
(600,55,cs),
(600,60,o),
(562,64,o),
(524,65,cs),
(485,66,o),
(193,66,o),
(152,66,cs),
(111,66,o),
(67,65,o),
(46,63,cs),
(23,61,o),
(19,59,o),
(15,57,cs),
(4,53,o),
(-24,39,o),
(54,34,cs),
(119,28,o),
(558,36,o),
(556,20,cs),
(555,8,o),
(432,5,o),
(312,5,cs),
(111,5,o),
(89,17,o),
(81,19,cs),
(70,22,o),
(71,29,o),
(40,27,cs)
);
}
);
width = 600;
},
{
layerId = m002;
shapes = (
{
closed = 1;
nodes = (
(86,247,o),
(67,178,o),
(84,132,cs),
(101,86,o),
(156,-2,o),
(328,-2,cs),
(445,-2,o),
(512,77,o),
(516,204,cs),
(518,276,o),
(491,346,o),
(440,381,cs),
(395,412,o),
(324,385,o),
(335,452,cs),
(340,485,o),
(371,484,o),
(401,484,cs),
(431,484,o),
(446,485,o),
(468,485,cs),
(504,485,o),
(527,521,o),
(523,595,cs),
(521,641,o),
(495,665,o),
(468,673,cs),
(440,681,o),
(232,678,o),
(203,678,cs),
(174,678,o),
(142,675,o),
(127,655,cs),
(110,633,o),
(108,613,o),
(105,599,cs),
(97,557,o),
(77,412,o),
(132,349,cs),
(179,295,o),
(330,333,o),
(330,216,cs),
(330,199,o),
(322,176,o),
(289,176,cs),
(275,176,o),
(257,179,o),
(251,204,cs),
(243,239,o),
(196,257,o),
(141,252,cs)
);
}
);
width = 600;
},
{
layerId = m003;
shapes = (
{
closed = 1;
nodes = (
(86,205,o),
(93,147,o),
(110,109,cs),
(127,72,o),
(156,-1,o),
(328,-1,cs),
(445,-1,o),
(516,74,o),
(516,148,cs),
(516,221,o),
(485,269,o),
(434,290,cs),
(360,320,o),
(190,282,o),
(190,410,cs),
(190,472,o),
(224,488,o),
(254,494,cs),
(284,500,o),
(446,492,o),
(468,492,cs),
(504,492,o),
(523,491,o),
(523,516,cs),
(523,554,o),
(495,549,o),
(468,555,cs),
(440,562,o),
(232,560,o),
(203,560,cs),
(174,560,o),
(142,557,o),
(127,541,cs),
(110,522,o),
(108,506,o),
(105,494,cs),
(97,460,o),
(77,340,o),
(132,288,cs),
(179,244,o),
(456,306,o),
(456,162,cs),
(456,94,o),
(402,48,o),
(317,48,cs),
(228,48,o),
(187,144,o),
(181,165,cs),
(173,194,o),
(158,209,o),
(141,208,cs)
);
}
);
width = 600;
},
{
layerId = m004;
shapes = (
{
closed = 1;
nodes = (
(47,83,o),
(55,60,o),
(75,46,cs),
(94,30,o),
(127,1,o),
(323,1,cs),
(456,1,o),
(536,30,o),
(536,61,cs),
(536,89,o),
(501,109,o),
(443,117,cs),
(359,130,o),
(141,114,o),
(141,166,cs),
(141,190,o),
(186,198,o),
(238,198,cs),
(273,198,o),
(457,198,o),
(482,198,cs),
(523,198,o),
(544,198,o),
(544,207,cs),
(544,223,o),
(513,221,o),
(482,223,cs),
(450,226,o),
(213,226,o),
(180,226,cs),
(147,226,o),
(111,225,o),
(94,218,cs),
(75,210,o),
(72,204,o),
(69,198,cs),
(60,185,o),
(37,137,o),
(100,117,cs),
(153,99,o),
(501,134,o),
(499,66,cs),
(498,25,o),
(407,14,o),
(310,14,cs),
(147,14,o),
(149,59,o),
(142,67,cs),
(133,79,o),
(129,85,o),
(110,85,cs)
);
}
);
width = 600;
},
{
layerId = m005;
shapes = (
{
closed = 1;
nodes = (
(77,324,o),
(58,250,o),
(63,145,cs),
(67,54,o),
(110,0,o),
(318,0,cs),
(447,0,o),
(535,32,o),
(538,224,cs),
(539,304,o),
(542,439,o),
(454,461,cs),
(414,471,o),
(415,481,o),
(415,500,cs),
(415,536,o),
(444,532,o),
(454,532,cs),
(468,532,o),
(472,533,o),
(485,533,cs),
(525,533,o),
(550,573,o),
(545,654,cs),
(543,705,o),
(515,731,o),
(485,740,cs),
(454,749,o),
(226,745,o),
(194,745,cs),
(162,745,o),
(127,742,o),
(110,720,cs),
(91,696,o),
(89,674,o),
(86,659,cs),
(77,612,o),
(55,453,o),
(116,384,cs),
(167,324,o),
(327,354,o),
(327,272,cs),
(327,258,o),
(313,253,o),
(304,253,cs),
(292,253,o),
(279,258,o),
(275,271,cs),
(266,302,o),
(246,324,o),
(167,324,cs)
);
}
);
width = 600;
},
{
layerId = m006;
shapes = (
{
closed = 1;
nodes = (
(47,110,o),
(55,79,o),
(75,60,cs),
(94,39,o),
(127,1,o),
(323,1,cs),
(456,1,o),
(536,40,o),
(536,80,cs),
(536,118,o),
(501,144,o),
(443,155,cs),
(359,171,o),
(166,150,o),
(166,219,cs),
(166,251,o),
(204,259,o),
(238,262,cs),
(273,266,o),
(457,261,o),
(482,261,cs),
(523,261,o),
(544,261,o),
(544,274,cs),
(544,294,o),
(513,292,o),
(482,295,cs),
(450,299,o),
(213,298,o),
(180,298,cs),
(147,298,o),
(111,297,o),
(94,288,cs),
(75,277,o),
(72,269,o),
(69,262,cs),
(60,244,o),
(37,181,o),
(100,154,cs),
(153,130,o),
(468,163,o),
(468,87,cs),
(468,51,o),
(407,27,o),
(310,27,cs),
(209,27,o),
(162,78,o),
(155,88,cs),
(146,104,o),
(129,112,o),
(110,112,cs)
);
}
);
width = 600;
}
);
unicode = 53;
},
{
glyphname = six;
lastChange = "2024-04-12 11:12:20 +0000";
layers = (
{
layerId = m01;
shapes = (
{
closed = 1;
nodes = (
(586,50,o),
(589,53,o),
(570,55,cs),
(540,60,o),
(454,65,o),
(333,65,cs),
(175,65,o),
(3,54,o),
(3,35,cs),
(3,12,o),
(100,-1,o),
(348,-1,cs),
(492,-1,o),
(598,9,o),
(598,17,cs),
(598,26,o),
(550,40,o),
(348,40,cs),
(182,40,o),
(96,33,o),
(81,34,cs),
(67,35,o),
(46,40,o),
(85,46,cs),
(145,57,o),
(228,60,o),
(324,60,cs),
(456,60,o),
(485,55,o),
(501,53,cs),
(516,50,o),
(536,49,o),
(561,49,cs)
);
},
{
closed = 1;
nodes = (
(211,3,o),
(126,7,o),
(100,16,cs),
(71,27,o),
(168,35,o),
(329,35,cs),
(484,35,o),
(583,24,o),
(560,16,cs),
(528,8,o),
(421,3,o),
(307,3,cs)
);
}
);
width = 600;
},
{
layerId = m002;
shapes = (
{
closed = 1;
nodes = (
(529,492,o),
(546,538,o),
(513,589,cs),
(490,625,o),
(435,681,o),
(340,681,cs),
(209,681,o),
(68,590,o),
(68,372,cs),
(68,113,o),
(124,0,o),
(337,0,cs),
(468,0,o),
(532,84,o),
(532,201,cs),
(532,317,o),
(495,429,o),
(337,429,cs),
(265,429,o),
(250,419,o),
(239,412,cs),
(227,405,o),
(220,421,o),
(239,461,cs),
(258,502,o),
(288,525,o),
(335,525,cs),
(388,525,o),
(408,510,o),
(420,496,cs),
(442,470,o),
(472,468,o),
(506,482,cs)
);
},
{
closed = 1;
nodes = (
(286,170,o),
(261,181,o),
(260,209,cs),
(260,240,o),
(276,268,o),
(314,268,cs),
(351,269,o),
(372,241,o),
(366,215,cs),
(359,191,o),
(336,170,o),
(309,169,cs)
);
}
);
width = 600;
},
{
layerId = m003;
shapes = (
{
closed = 1;
nodes = (
(509,441,o),
(510,463,o),
(497,487,cs),
(475,527,o),
(412,563,o),
(324,563,cs),
(210,563,o),
(84,477,o),
(84,308,cs),
(84,119,o),
(155,0,o),
(335,0,cs),
(440,0,o),
(517,93,o),
(517,166,cs),
(517,233,o),
(482,355,o),
(335,355,cs),
(215,355,o),
(178,300,o),
(168,305,cs),
(157,310,o),
(158,379,o),
(170,412,cs),
(188,462,o),
(248,514,o),
(318,514,cs),
(414,514,o),
(435,486,o),
(446,463,cs),
(457,441,o),
(472,431,o),
(490,436,cs)
);
},
{
closed = 1;
nodes = (
(252,45,o),
(201,76,o),
(186,152,cs),
(168,246,o),
(227,312,o),
(324,312,cs),
(418,315,o),
(478,223,o),
(463,152,cs),
(445,86,o),
(380,45,o),
(311,42,cs)
);
}
);
width = 600;
},
{
layerId = m004;
shapes = (
{
closed = 1;
nodes = (
(544,177,o),
(546,186,o),
(530,196,cs),
(505,211,o),
(431,227,o),
(328,227,cs),
(194,227,o),
(47,191,o),
(47,124,cs),
(47,47,o),
(130,0,o),
(341,0,cs),
(464,0,o),
(554,37,o),
(554,65,cs),
(554,93,o),
(513,142,o),
(341,142,cs),
(200,142,o),
(126,120,o),
(114,122,cs),
(101,124,o),
(84,142,o),
(117,165,cs),
(168,201,o),
(239,211,o),
(321,211,cs),
(433,211,o),
(458,196,o),
(471,186,cs),
(484,177,o),
(501,173,o),
(522,175,cs)
);
},
{
closed = 1;
nodes = (
(224,17,o),
(152,30,o),
(130,61,cs),
(105,98,o),
(187,125,o),
(325,125,cs),
(457,126,o),
(541,89,o),
(521,61,cs),
(495,34,o),
(403,17,o),
(306,16,cs)
);
}
);
width = 600;
},
{
layerId = m005;
shapes = (
{
closed = 1;
nodes = (
(551,469,o),
(552,527,o),
(552,592,cs),
(552,642,o),
(524,741,o),
(343,741,cs),
(110,741,o),
(47,686,o),
(47,405,cs),
(47,70,o),
(84,0,o),
(340,0,cs),
(482,0,o),
(552,68,o),
(552,219,cs),
(552,381,o),
(512,467,o),
(340,467,cs),
(275,467,o),
(274,461,o),
(268,465,cs),
(260,470,o),
(260,486,o),
(271,500,cs),
(281,513,o),
(293,517,o),
(324,518,cs),
(360,519,o),
(381,512,o),
(385,500,cs),
(394,472,o),
(425,469,o),
(472,469,cs)
);
},
{
closed = 1;
nodes = (
(305,208,o),
(289,216,o),
(288,234,cs),
(288,255,o),
(299,274,o),
(324,274,cs),
(348,275,o),
(362,256,o),
(358,238,cs),
(353,222,o),
(338,208,o),
(320,207,cs)
);
}
);
width = 600;
},
{
layerId = m006;
shapes = (
{
closed = 1;
nodes = (
(544,239,o),
(546,251,o),
(530,264,cs),
(505,285,o),
(431,306,o),
(328,306,cs),
(194,306,o),
(47,259,o),
(47,167,cs),
(47,64,o),
(130,0,o),
(341,0,cs),
(464,0,o),
(554,50,o),
(554,89,cs),
(554,126,o),
(513,192,o),
(341,192,cs),
(200,192,o),
(157,162,o),
(145,165,cs),
(132,168,o),
(134,205,o),
(148,224,cs),
(169,250,o),
(239,279,o),
(321,279,cs),
(433,279,o),
(458,264,o),
(471,251,cs),
(484,239,o),
(501,234,o),
(522,236,cs)
);
},
{
closed = 1;
nodes = (
(244,24,o),
(184,41,o),
(166,82,cs),
(145,133,o),
(214,169,o),
(328,169,cs),
(438,170,o),
(508,121,o),
(491,82,cs),
(469,46,o),
(393,24,o),
(313,23,cs)
);
}
);
width = 600;
}
);
unicode = 54;
},
{
glyphname = seven;
lastChange = "2024-04-12 12:03:43 +0000";
layers = (
{
layerId = m01;
shapes = (
{
closed = 1;
nodes = (
(0,61,o),
(43,63,o),
(96,64,cs),
(147,64,o),
(325,64,o),
(380,64,cs),
(397,64,o),
(600,55,o),
(600,33,cs),
(600,12,o),
(475,10,o),
(451,8,cs),
(413,5,o),
(312,0,o),
(255,0,cs),
(183,0,o),
(202,8,o),
(400,13,cs),
(436,14,o),
(561,21,o),
(561,34,cs),
(561,49,o),
(428,62,o),
(349,60,cs),
(302,60,o),
(160,58,o),
(107,58,cs),
(56,58,o),
(0,55,o),
(0,58,cs)
);
}
);
width = 600;
},
{
layerId = m002;
shapes = (
{
closed = 1;
nodes = (
(66,621,o),
(76,653,o),
(113,660,cs),
(151,668,o),
(436,680,o),
(476,668,cs),
(516,656,o),
(541,634,o),
(533,550,cs),
(523,461,o),
(376,75,o),
(348,40,cs),
(326,12,o),
(294,0,o),
(244,0,cs),
(181,0,o),
(166,24,o),
(179,95,cs),
(192,167,o),
(257,313,o),
(287,373,cs),
(305,409,o),
(348,480,o),
(289,480,cs),
(253,480,o),
(179,480,o),
(141,480,cs),
(104,480,o),
(66,507,o),
(66,583,cs)
);
}
);
width = 600;
},
{
layerId = m003;
shapes = (
{
closed = 1;
nodes = (
(87,524,o),
(111,540,o),
(148,546,cs),
(185,553,o),
(414,563,o),
(454,553,cs),
(494,543,o),
(520,524,o),
(511,455,cs),
(502,381,o),
(361,100,o),
(345,65,cs),
(330,33,o),
(315,0,o),
(264,0,cs),
(212,0,o),
(253,76,o),
(264,101,cs),
(289,153,o),
(422,352,o),
(442,448,cs),
(454,504,o),
(415,506,o),
(356,492,cs),
(322,484,o),
(195,462,o),
(156,462,cs),
(119,462,o),
(87,473,o),
(87,496,cs)
);
}
);
width = 600;
},
{
layerId = m004;
shapes = (
{
closed = 1;
nodes = (
(70,194,o),
(95,200,o),
(136,202,cs),
(176,204,o),
(424,208,o),
(467,204,cs),
(511,201,o),
(539,194,o),
(529,168,cs),
(519,141,o),
(434,87,o),
(416,76,cs),
(394,63,o),
(307,-1,o),
(262,-1,cs),
(205,-1,o),
(344,64,o),
(371,79,cs),
(400,95,o),
(479,135,o),
(504,169,cs),
(526,199,o),
(425,197,o),
(362,192,cs),
(325,189,o),
(187,171,o),
(145,171,cs),
(105,171,o),
(70,174,o),
(70,183,cs)
);
}
);
width = 600;
},
{
layerId = m005;
shapes = (
{
closed = 1;
nodes = (
(51,594,o),
(53,703,o),
(101,727,cs),
(145,750,o),
(444,749,o),
(487,736,cs),
(529,722,o),
(556,699,o),
(547,606,cs),
(537,508,o),
(421,83,o),
(391,44,cs),
(367,13,o),
(342,0,o),
(240,0,cs),
(121,0,o),
(88,59,o),
(98,111,cs),
(113,191,o),
(144,279,o),
(176,353,cs),
(194,393,o),
(205,423,o),
(169,423,cs),
(160,423,o),
(141,423,o),
(131,423,cs),
(91,423,o),
(51,469,o),
(51,553,cs)
);
}
);
width = 600;
},
{
layerId = m006;
shapes = (
{
closed = 1;
nodes = (
(70,260,o),
(95,268,o),
(136,271,cs),
(176,274,o),
(424,279,o),
(467,274,cs),
(511,269,o),
(539,260,o),
(529,225,cs),
(519,189,o),
(366,50,o),
(349,32,cs),
(333,16,o),
(316,0,o),
(262,0,cs),
(205,0,o),
(249,38,o),
(262,50,cs),
(289,76,o),
(432,174,o),
(454,222,cs),
(467,250,o),
(425,251,o),
(362,244,cs),
(325,240,o),
(187,229,o),
(145,229,cs),
(105,229,o),
(70,234,o),
(70,246,cs)
);
}
);
width = 600;
}
);
unicode = 55;
},
{
glyphname = eight;
lastChange = "2024-04-12 12:36:09 +0000";
layers = (
{
layerId = m01;
shapes = (
{
closed = 1;
nodes = (
(1,37,o),
(77,32,o),
(107,32,cs),
(116,32,o),
(114,31,o),
(99,31,cs),
(70,31,o),
(1,27,o),
(1,17,cs),
(1,8,o),
(64,-2,o),
(304,-2,cs),
(510,-2,o),
(599,8,o),
(599,18,cs),
(599,27,o),
(536,32,o),
(509,32,cs),
(498,32,o),
(491,33,o),
(509,33,cs),
(533,33,o),
(599,37,o),
(599,46,cs),
(599,54,o),
(467,64,o),
(304,64,cs),
(138,64,o),
(1,54,o),
(1,46,cs)
);
},
{
closed = 1;
nodes = (
(198,36,o),
(49,37,o),
(49,45,cs),
(49,52,o),
(152,56,o),
(302,56,cs),
(449,57,o),
(546,53,o),
(546,45,cs),
(546,39,o),
(400,36,o),
(298,36,cs)
);
},
{
closed = 1;
nodes = (
(165,4,o),
(46,9,o),
(46,16,cs),
(46,25,o),
(132,31,o),
(289,32,cs),
(465,32,o),
(548,26,o),
(548,17,cs),
(548,9,o),
(395,4,o),
(269,4,cs)
);
}
);
width = 600;
},
{
layerId = m002;
shapes = (
{
closed = 1;
nodes = (
(83,414,o),
(127,362,o),
(150,362,cs),
(159,362,o),
(156,354,o),
(145,354,cs),
(123,354,o),
(68,306,o),
(68,209,cs),
(68,111,o),
(135,0,o),
(305,0,cs),
(464,0,o),
(532,111,o),
(532,210,cs),
(532,306,o),
(484,364,o),
(463,364,cs),
(454,364,o),
(449,373,o),
(463,373,cs),
(480,373,o),
(522,413,o),
(522,505,cs),
(522,595,o),
(430,693,o),
(305,693,cs),
(177,693,o),
(83,595,o),
(83,509,cs)
);
},
{
closed = 1;
nodes = (
(280,468,o),
(264,476,o),
(264,494,cs),
(264,515,o),
(275,533,o),
(298,533,cs),
(320,534,o),
(334,516,o),
(330,498,cs),
(325,482,o),
(311,468,o),
(295,468,cs)
);
},
{
closed = 1;
nodes = (
(280,168,o),
(260,177,o),
(260,200,cs),
(260,226,o),
(272,248,o),
(301,249,cs),
(330,249,o),
(345,226,o),
(340,205,cs),
(336,185,o),
(318,168,o),
(298,168,cs)
);
}
);
width = 600;
},
{
layerId = m003;
shapes = (
{
closed = 1;
nodes = (
(105,349,o),
(147,306,o),
(169,306,cs),
(176,306,o),
(174,300,o),
(163,300,cs),
(143,300,o),
(92,260,o),
(92,178,cs),
(92,96,o),
(154,3,o),
(312,3,cs),
(461,3,o),
(525,96,o),
(525,179,cs),
(525,260,o),
(480,308,o),
(460,308,cs),
(452,308,o),
(447,315,o),
(460,315,cs),
(477,315,o),
(515,349,o),
(515,426,cs),
(515,501,o),
(430,584,o),
(312,584,cs),
(192,584,o),
(105,501,o),
(105,430,cs)
);
},
{
closed = 1;
nodes = (
(252,339,o),
(180,365,o),
(180,416,cs),
(180,482,o),
(228,521,o),
(308,526,cs),
(384,530,o),
(447,472,o),
(439,420,cs),
(431,369,o),
(359,339,o),
(304,339,cs)
);
},
{
closed = 1;
nodes = (
(229,56,o),
(154,100,o),
(154,165,cs),
(154,243,o),
(209,282,o),
(303,288,cs),
(409,295,o),
(465,242,o),
(465,165,cs),
(465,94,o),
(366,56,o),
(292,56,cs)
);
}
);
width = 600;
},
{
layerId = m004;
shapes = (
{
closed = 1;
nodes = (
(73,124,o),
(120,109,o),
(144,109,cs),
(152,109,o),
(150,107,o),
(138,107,cs),
(115,107,o),
(59,92,o),
(59,63,cs),
(59,34,o),
(109,0,o),
(304,0,cs),
(470,0,o),
(541,34,o),
(541,64,cs),
(541,92,o),
(491,109,o),
(469,109,cs),
(460,109,o),
(454,112,o),
(469,112,cs),
(488,112,o),
(530,124,o),
(530,152,cs),
(530,179,o),
(435,209,o),
(304,209,cs),
(170,209,o),
(73,179,o),
(73,154,cs)
);
},
{
closed = 1;
nodes = (
(218,122,o),
(112,124,o),
(112,149,cs),
(112,173,o),
(180,185,o),
(302,186,cs),
(420,188,o),
(499,175,o),
(499,151,cs),
(499,131,o),
(381,122,o),
(298,122,cs)
);
},
{
closed = 1;
nodes = (
(191,22,o),
(96,36,o),
(96,59,cs),
(96,87,o),
(165,105,o),
(291,108,cs),
(433,110,o),
(501,91,o),
(501,63,cs),
(501,37,o),
(376,22,o),
(275,22,cs)
);
}
);
width = 600;
},
{
layerId = m005;
shapes = (
{
closed = 1;
nodes = (
(48,426,o),
(81,394,o),
(106,394,cs),
(114,394,o),
(112,385,o),
(98,385,cs),
(76,385,o),
(48,337,o),
(48,226,cs),
(48,69,o),
(83,0,o),
(303,0,cs),
(553,0,o),
(553,86,o),
(553,227,cs),
(553,361,o),
(526,393,o),
(503,393,cs),
(495,393,o),
(489,403,o),
(503,403,cs),
(523,403,o),
(553,425,o),
(553,545,cs),
(553,664,o),
(517,749,o),
(303,749,cs),
(96,749,o),
(48,664,o),
(48,550,cs)
);
},
{
closed = 1;
nodes = (
(290,521,o),
(277,527,o),
(277,541,cs),
(277,556,o),
(285,569,o),
(302,569,cs),
(318,570,o),
(329,556,o),
(324,543,cs),
(322,532,o),
(312,521,o),
(300,521,cs)
);
},
{
closed = 1;
nodes = (
(288,190,o),
(276,196,o),
(276,212,cs),
(276,229,o),
(282,244,o),
(302,244,cs),
(321,244,o),
(332,229,o),
(328,215,cs),
(324,202,o),
(313,190,o),
(300,190,cs)
);
}
);
width = 600;
},
{
layerId = m006;
shapes = (
{
closed = 1;
nodes = (
(73,166,o),
(120,146,o),
(144,146,cs),
(152,146,o),
(150,143,o),
(138,143,cs),
(115,143,o),
(59,123,o),
(59,84,cs),
(59,45,o),
(128,0,o),
(304,0,cs),
(470,0,o),
(541,45,o),
(541,85,cs),
(541,123,o),
(491,146,o),
(469,146,cs),
(460,146,o),
(454,150,o),
(469,150,cs),
(488,150,o),
(530,166,o),
(530,203,cs),
(530,239,o),
(435,279,o),
(304,279,cs),
(170,279,o),
(73,239,o),
(73,205,cs)
);
},
{
closed = 1;
nodes = (
(237,161,o),
(157,174,o),
(157,198,cs),
(157,230,o),
(210,249,o),
(299,251,cs),
(384,253,o),
(454,225,o),
(445,200,cs),
(436,176,o),
(356,161,o),
(295,161,cs)
);
},
{
closed = 1;
nodes = (
(211,25,o),
(128,47,o),
(128,78,cs),
(128,115,o),
(189,134,o),
(294,137,cs),
(412,140,o),
(474,115,o),
(474,78,cs),
(474,44,o),
(364,25,o),
(281,25,cs)
);
}
);
width = 600;
}
);
unicode = 56;
},
{
glyphname = nine;
lastChange = "2024-04-12 13:48:10 +0000";
layers = (
{
layerId = m01;
shapes = (
{
closed = 1;
nodes = (
(15,14,o),
(12,11,o),
(31,9,cs),
(61,4,o),
(147,-1,o),
(268,-1,cs),
(426,-1,o),
(598,10,o),
(598,29,cs),
(598,52,o),
(501,65,o),
(253,65,cs),
(109,65,o),
(3,55,o),
(3,47,cs),
(3,38,o),
(51,24,o),
(253,24,cs),
(419,24,o),
(505,31,o),
(520,30,cs),
(534,29,o),
(555,24,o),
(516,18,cs),
(456,7,o),
(373,4,o),
(277,4,cs),
(145,4,o),
(116,9,o),
(100,11,cs),
(85,14,o),
(65,15,o),
(40,15,cs)
);
},
{
closed = 1;
nodes = (
(390,61,o),
(475,57,o),
(501,48,cs),
(530,37,o),
(433,29,o),
(272,29,cs),
(117,29,o),
(18,40,o),
(41,48,cs),
(73,56,o),
(180,61,o),
(294,61,cs)
);
}
);
width = 600;
},
{
layerId = m002;
shapes = (
{
closed = 1;
nodes = (
(86,185,o),
(68,143,o),
(101,92,cs),
(124,56,o),
(202,0,o),
(297,0,cs),
(428,0,o),
(546,91,o),
(546,309,cs),
(546,568,o),
(510,681,o),
(297,681,cs),
(166,681,o),
(82,597,o),
(82,480,cs),
(82,364,o),
(119,252,o),
(277,252,cs),
(349,252,o),
(364,262,o),
(375,269,cs),
(387,276,o),
(394,260,o),
(375,220,cs),
(356,179,o),
(326,156,o),
(279,156,cs),
(226,156,o),
(206,185,o),
(194,199,cs),
(172,225,o),
(130,213,o),
(108,199,cs)
);
},
{
closed = 1;
nodes = (
(328,511,o),
(353,500,o),
(354,472,cs),
(354,441,o),
(338,413,o),
(300,413,cs),
(263,412,o),
(242,440,o),
(248,466,cs),
(255,490,o),
(278,511,o),
(305,512,cs)
);
}
);
width = 600;
},
{
layerId = m003;
shapes = (
{
closed = 1;
nodes = (
(92,122,o),
(91,100,o),
(104,76,cs),
(126,36,o),
(155,0,o),
(290,0,cs),
(423,0,o),
(517,86,o),
(517,255,cs),
(517,423,o),
(470,563,o),
(290,563,cs),
(185,563,o),
(84,500,o),
(84,397,cs),
(84,330,o),
(119,208,o),
(266,208,cs),
(386,208,o),
(423,263,o),
(433,258,cs),
(444,253,o),
(443,184,o),
(431,151,cs),
(413,101,o),
(353,58,o),
(283,58,cs),
(187,58,o),
(166,87,o),
(155,105,cs),
(142,126,o),
(129,132,o),
(111,127,cs)
);
},
{
closed = 1;
nodes = (
(349,518,o),
(400,487,o),
(415,411,cs),
(433,317,o),
(374,251,o),
(277,251,cs),
(183,248,o),
(137,347,o),
(152,418,cs),
(170,484,o),
(221,518,o),
(290,521,cs)
);
}
);
width = 600;
},
{
layerId = m004;
shapes = (
{
closed = 1;
nodes = (
(57,50,o),
(55,41,o),
(71,31,cs),
(96,16,o),
(170,0,o),
(273,0,cs),
(407,0,o),
(554,36,o),
(554,103,cs),
(554,180,o),
(516,227,o),
(305,227,cs),
(182,227,o),
(47,210,o),
(47,162,cs),
(47,114,o),
(88,85,o),
(260,85,cs),
(401,85,o),
(475,107,o),
(487,105,cs),
(500,103,o),
(517,85,o),
(484,62,cs),
(433,26,o),
(362,16,o),
(280,16,cs),
(168,16,o),
(143,31,o),
(130,41,cs),
(117,50,o),
(100,54,o),
(79,52,cs)
);
},
{
closed = 1;
nodes = (
(377,210,o),
(487,195,o),
(487,164,cs),
(487,121,o),
(414,102,o),
(276,102,cs),
(144,101,o),
(80,124,o),
(80,166,cs),
(80,193,o),
(198,210,o),
(295,211,cs)
);
}
);
width = 600;
},
{
layerId = m005;
shapes = (
{
closed = 1;
nodes = (
(48,272,o),
(47,214,o),
(47,149,cs),
(47,99,o),
(107,0,o),
(288,0,cs),
(521,0,o),
(554,88,o),
(554,336,cs),
(554,647,o),
(544,741,o),
(288,741,cs),
(146,741,o),
(47,673,o),
(47,522,cs),
(47,375,o),
(87,274,o),
(259,274,cs),
(324,274,o),
(326,279,o),
(332,275,cs),
(340,270,o),
(339,255,o),
(328,241,cs),
(318,228,o),
(306,224,o),
(275,223,cs),
(239,222,o),
(218,229,o),
(214,241,cs),
(205,269,o),
(174,272,o),
(127,272,cs)
);
},
{
closed = 1;
nodes = (
(294,533,o),
(310,525,o),
(311,507,cs),
(311,486,o),
(300,467,o),
(275,467,cs),
(251,466,o),
(237,485,o),
(241,503,cs),
(246,519,o),
(261,533,o),
(279,534,cs)
);
}
);
width = 600;
},
{
layerId = m006;
shapes = (
{
closed = 1;
nodes = (
(92,66,o),
(91,54,o),
(104,41,cs),
(126,19,o),
(155,0,o),
(290,0,cs),
(423,0,o),
(517,46,o),
(517,138,cs),
(517,229,o),
(470,306,o),
(290,306,cs),
(185,306,o),
(84,271,o),
(84,215,cs),
(84,179,o),
(119,113,o),
(266,113,cs),
(386,113,o),
(423,142,o),
(433,140,cs),
(444,137,o),
(443,100,o),
(431,82,cs),
(413,54,o),
(353,31,o),
(283,31,cs),
(187,31,o),
(166,47,o),
(155,57,cs),
(142,68,o),
(129,71,o),
(111,69,cs)
);
},
{
closed = 1;
nodes = (
(349,281,o),
(400,264,o),
(415,223,cs),
(433,172,o),
(374,136,o),
(277,136,cs),
(183,134,o),
(137,188,o),
(152,227,cs),
(170,263,o),
(221,281,o),
(290,283,cs)
);
}
);
width = 600;
}
);
unicode = 57;
},
